<mxfile host="app.diagrams.net" agent="Mozilla/5.0 (Windows NT 10.0; Win64; x64) AppleWebKit/537.36 (KHTML, like Gecko) Chrome/133.0.0.0 Safari/537.36" version="26.0.16">
  <diagram name="第 1 页" id="9lMTBW6NbEryZivmBC1n">
    <mxGraphModel dx="1434" dy="738" grid="1" gridSize="10" guides="1" tooltips="1" connect="1" arrows="1" fold="1" page="1" pageScale="1" pageWidth="827" pageHeight="1169" math="0" shadow="0">
      <root>
        <mxCell id="0" />
        <mxCell id="1" parent="0" />
        <mxCell id="4bvAKzDYsdmheiuHhJou-1" value="" style="shape=image;verticalLabelPosition=bottom;labelBackgroundColor=default;verticalAlign=top;aspect=fixed;imageAspect=0;image=data:image/png,iVBORw0KGgoAAAANSUhEUgAAAtEAAAEdCAYAAADKCztVAAAAAXNSR0IArs4c6QAAAARnQU1BAACxjwv8YQUAAAAJcEhZcwAADsMAAA7DAcdvqGQAAObmSURBVHhe7J0HYBTFF8a/9EYooffee1eQLkX5W5CqIkjvqKggKipVQQSpUqRJV7HQmxRFegfpvbcAgZBe/u+buwtHuJbcXkhgf/jM3e7e7O7s7sw3s2/euMULSKMcOXIEly9fRv369eHh4WFcqqOjo6Ojo6Ojo+Na3I1/0yRr167F6NGjERUVZVySMvz777/GTzo6Ojo6Ojo6Os8iabon+klRsmRJHD161PhNR0dHR0dHR0fnWSNN90Tb0v+DBg3Czz//bPz2ONHR0WjatCkOHz6svjMte+0J0/orV66ov0Rvg+jo6Ojo6OjoPHukaRHt5uaGmjVr4v79++r7+fPnUaJECbz88ssYNmwYWrdujUyZMql1ZMuWLciQIQOyZs2KoKAgrFy5ElWqVFHGtGhdunTBtm3bjL8wwO99+/ZV6xs3box79+4hY8aMKFSokFqmo6Ojo6Ojo6PzbJGmRTS5fv16Qm9wTEwMbt26hS+//DKhZ5k9zufOnVPrIyMjlQD+7LPPlPDm+oiICOzZswcvvvii2ub27dtqO3P4/e7du+rzmjVrlBDn9zNnzqhlOjo6Ojo6Ojo6zxZpXkSbQ1FcuHBhVK9e3bgE8PHxQd26ddXnuLg4uLu7q95qc+bOnYsHDx4Yv+no6Ojo6Ojo6OjY5qkS0YRC2Ry6W1y4cEF9poDmeobFM6devXqqF9sEtzNHD5+no6Ojo6Ojo6NjzlMnoi1hEsEmtw/6M5tjPgCRovvq1asJ21Jc79y5UxfSOjo6Ojo6Ojo6CTwTIjoxpp5pQp/qr776Cm+++ab67uvri/HjxycMGKQ/9EcffQR/f3/1ndDP+uLFi+qzSWzr6Ojo6Ojo6Og8O6T5ONHZs2fHiRMn1GA//n3ttdceieHs7e2tRC9P86+//lIDCLltgQIF1DoOJCxfvrzqjWZv8/Hjx9GoUSMV1cPLywvp0qVDxYoVce3aNSxYsEClyQgeTIv+1+vWrVPLdHRSA7zP9YgxOjo6Ojo6rifNi+gbN26okHUUDnS9uHPnjvpuguKXftC5cuVKENHfffcd3n77bSWuCd07KJZNMMIHo3YQCmuGwwsPD09wA+EgREbn4D6Zro5OcuBsm/ny5UOrVq2MS7SBjbyOHTvi+eefNy7R0dHR0dHR0Zo0786RLVu2hJ43T0/PRwQ0yZEjx2NCl73M7MHOkyePMnMBTbJkyZKwLmfOnCrCh7kfdUBAAHLnzq0LaB2nYJjFsLAw4zftsBSmUUdHR0dHR0dbnimf6DTe6a6TiuCbitOnT+ONN95A7dq1ceTIkYT7i39v3ryZMAmQCYrb4OBg9WYkJCRECWhuw7cnpt9ym6ioKKxevVo10tavX58QfpG/Y7qJhTffnDANvokJDQ1Vv2f6XK6jo6Ojo6PjGtK8O0dSYJSNFi1aYOLEiXj11VeNS3V0kgZde95//30sWrQI+fPnVyERDxw4oL7TNYMCmwNRGzRooESwCdMbE7oCFS9eXIld+t1zOQU533jw+wcffIA//vhDvf04deoUKleurNKhaxLfjvTp00cNfjXB39PPf+vWrWqfFOb8zuWXLl0ybqWjo6Pz5Ah7EIa7dwxukK4gOjYabvKP5TH/Esob8/0l/p4U+NugLEHw8/MzLtHRecZEtI6OFlBAsyF29uxZ5M2bVy3jTJZNmjRRQpcClgXtK6+8gqVLl6r1JH369MoPnyKcjBgxAkWKFEnwiWZPMkX0jz/+iE6dOqllHCRbqlQp7Nq1S+2L7kkff/wxRo0apdYTVgrstTbFP2/Tpg0+/PBDVK1aVX3X0dHRedIMHT4Uqw+uhpevl3GJdri5u+HO6TvIUTgHMuXLJIrXuEJD4uVf3rC8+Hb0t8YlOjopJKK5C1b033//vXrtPW3aNOMaHZ20B+9lDtpjz6857F0uWbIkfv31VyWG7YloTk9fsGBBvPvuu+o7RTR97Rl20RwObK1QoQKWLFmiPtsT0c2bN1e91aaZOnV0dHSeNCXKl8Dx8scBDi+i6rCmPNhRnNR1nmJrgRq9ayDPy3kQH6u9rPHw8cCivIsSXO90dEiK+ESzkv/ss8+we/du/O9//zMu1XlS6IWAc1AgM8qLJRhm0URy8tnSb7iMA1wTz8apo6Ojk1bw8fUBssiHbGIc/8+/liw567KLBQDpc6dHUIEgBBV2geUJgrvbMzm1ho4NUuyO+Pvvv9G7d29NfJEZqo4RNVasWGFcouMIK1euVC4EbNSkBvhGIq2+laDLhQmT8GVEDMYS53f2AjMKjDmO5LulbRhmkT7RgYGBKqZ5YjGtz6apo6OTJmBRyeKLfx0xYmm5FYuPo9OF6/7p6CQmxUQ0nf35OlsLOHCLEQtcER7saYZ5xugPqQUOsKOlNTZv3qymhv/ll1/Udwpfuk+cP39eTcDDnurBgwcnzGpJFi9ebDHsHJ8Lcxj3vH379sZvQP/+/VVED7p4cHKgzz//XLmRmFw3Vq1ahdjYWPXZnMTp6ujo6KQZ2JfAIizY+FljOPCQ/2KjYhEVEmVcqqOTdFxe07JnjiKDPdGlS5d+pKeNYoQxmRnrmYLEXBTTP5S9lIxYUKxYsQQ/0TNnziiXEKbDAVn8yygH/Et/UnM4EIshwQgFDXvxKMD5Kv71119X+6Ow+fPPP9VvaeyttcZbb72FjRs3olq1aqr3r1mzZmr5jh071AAx+qtysJkJ9hgy6gJ74HkenPnQXDROmDBBubmwV5P5wDQotiyJIp3UA/2hx40bl3D/0UwDDdlbTDgAcNOmTQnrKYZ5D5jWk8yZMyvBzPWmcHiM6sGIH6bfffvtt5g1a5ZaRwoVKoRz586pKB1czxB7TNM81jn3XadOHbVeR0dHJ83AXmpWkfPEvhBjECINX7RFh0YjJiwGf739F6a6TcUvJX9ByMkQEUJ6p4NO8nD5nUNxyOgCrOQ56Kps2bJqOUN48ZU3Jz3hzG0UIRQEJuiycfjwYXTu3FmJSwoD4uvrq0Q3X5lzUBYHc5leZ1OkmGP+nT1zFNIUtBTWJsHNKAhffPGFCk/GAVsU1+ZhycxhyDEOFuOMh//99x8OHTqkRM/YsWPVsdAochijlzCyAiMkcIpxRlfg781f8XPSFp47B4xRFA0dOlSJrbZt2xq3cC0U9DwuE+xdZYOAoQDNlxOuYyxinvf27dvVMjZAeI7MVy7jbxMPimNe0BeeadLYOLIG0zelw9Buqbkx0bdvX3UPfvrpp+q68TOvswk2/LiMjaSpU6eqXmrmBXuauZwwjY8++kg1FnkfET4nQ4YMUc8DI2wwv0wDD0mlSpVw5coV9duffvpJDVK8d++emq6e6dImTZqkZuRkw1VHR0cnTUA1ckpshhj7FDT2UvOWf8vqLMMvZX7B7YO3EVQuCG4ebi7p6dZ5dkixEHf169fHjBkzlNBkbzBFMSMMdO3a1biFHIybW4LASAxfZbPHmWzYsEHFw2XkA4pawt8ybfZUm6D43rZtm5rFkMKDwnny5Mno0aOHWk9BWKZMmUf2SVHNHmyKH76WN+edd97Be++9hypVqqjvPB6KH/a2m8KU8bxat26teioTw55pCn7T/ngsFItjxoxR3wknyChXrpw6DzYYtIS9/RSoFO7MDzYa2APKfKR7AKeL5l9ORU3BO2zYMLWMDBo0SOUXrwMbIWzknDx5Ur1d4BTTFInsiS1atCiWLVumfkPRSDcHimg2Lvj77t27Y8CAAWq9KcIEGw6kQ4cOSqwzf9hQoohkVIqnFZ6neW8xBTOjbFBoO0PidHV0dHSeNOWrl8fBGgcB9iNZUx0Uzqx2WfUNEaP34TAx630vBvib34DGnzVGgWYFLPovs7f5yrYryPN8HvU55EYIllRYgsbLGiN75eyIU93g1vGQf1PdpyI2Tn9TrPOQFHuHwV5FzqZmggKLE1RQ0NIYe9cc9qxRYPfq1Qsvv/yyCg1mwjSDW1J8oilg6c5hEtDkq6++Un/Zq8fl/Lt27Vp8/fXXjxyrCQqTxOfAnnCTgCYUyaaJMLhPuofwPCg0a9WqpZaboNhJ7CdO4UwhyQGAroDxixlBggM86TZAAc28ZQOH14jXhCKYwpfHbRL8/N2FCxfwww8/KAFNTH7uFMb0zaVA5/nu2bNHnTt7RA8ePKjSWr58Ofbv36/cE8yvpQnm/+zZs9VMfYy5zLcDT/uAOUtCN/Esh8lBF9A6OjppEurTCKNZE9p2oK+zJSiScz2fS/R4DKLkX/R9qYf0olLHSZ6YIxBdGejOwR5l9lLXrFkTv//+u1rHCSvYA8reSK6nC4YjwsCWqwBhL6o5plfoDRs2VMdAkUs/5fnz56vjcwRbA7jYM0uhzsFm9OPmoLDEmESqCZ4nzTSJh5ZQlFLg0g+X/t0moc6eZQp/9n7TpYYCm7PmEfa+E7puUOiau6Pw2Hlupt5iTjJCl5V27dqp7xTNHBTH73xjwIYEhTpdDRLDmSSJqZHDHm2T68+zAq8P3Zx0dHR0dJKHrSga9nqbdXSSyhMR0RRf7E2miKV4atmypTL6IxP29lIQ052Aoo490eauFezlTAyFGYWwOYkFbmLBSpcFQoFnfgw8psSC2xqJ0zRBlxW6k1AM0n2B5/HSSy891hhI7MfN3l72EJvcKLSEecgeY7pWsGFiggKZYpeuJWzIsCeaftqEPfMmPD0Z0f5REl8Lnt+xY8fUNaT7CKedZlrsif7tt9+UHzZ7mxPDxhJFPF1j2Hhq1KiR6hV/lmDeNW7c2PhNR0dHR0dHJzXzREQ0xRxdAPr166eEG+GANPZiEooJRiDgwD1CYWvyhyaMcsHeY3Ohy2gEdCUwzQbHwVn02U0sWs3hoDhi7mbB6BjmETaSC90y6LpAH2OT+wnFsbnoZiOCvtf//POP+k7hzUGYjP7gCpg+98cGCme1Szxwb/jw4UoUMw9NZh6mzVqDITEmNw9GL6GfM39nnqYpYkpi6NNOn3BGS1m3bh22bNliXOM8FOj0N+bAPbqd6Ojo6Ojo6Og4Q4qJaApGU88wezQp2NhTS59iimEOyGMvKeHsbG3atFED7CiCKfjoKmCCA9/Ye8zeXa6nHyl7btnTy/1wGQUjXQ1MIpp/LbloULQx7i6Pga/TKb4t+ewSCmNzP11LaVKkmdxEeA7026ag5LacDto8xBkbBnSrYIQGNixM/sXsjXUVFLFsKJgGWjKfGBmEUSYoNHmcpvPk8SXuKU8KlStXViKcecw0mcfW0uQ15LExH9iI4FsIU+PDWZhOkyZN1ADGn3/++ZFwcMmBx6qF77KOjo6Ojo5O2iVFRDR7IimQGcnBBGMqc8ZB9oZSWHEbUw8sRSgjVnAZjX655vGVuYxRH0zrTcJ0zpw5Ccvo78tebsbiJRSMjNvLdeZwvekY+JcRJBieLDH8HUORmfdaM3wfezVNafIvB0RStPEzxSldRpguvzPcHcORmbZnjzD3xTQo3HkMHLhnWq81TNeUNn2j2RjhgEGK3KZNm6qBfYxOQjcKDq4090lmD3Xi4+L3xL3Z/G7yTWdPNKN20BeaDRUKWLq3mGCaJncQvkngMXDQ45QpU9TAQh6fVlCgc/AqXYPM78PkwMYOTUdHR0fHBSS1CnSyyrTlR62jY4sUEdGm3mCtcCa95P7W1u9M68y3cWR7ktinmNj6rTNQlNIVhlAAU+CzN3/gwIGoUaOGcn9hbzF7bBmzmQLYJJz5VoC+1Oaw8cIeXnP41uDNN99Un+mawugcFMh888CJaszdQ7ieRvbu3Yvq1aurCCk8DrrUsCffWeiXTaOwZyQS+mub4LHx7QAFfuLGAGF4RP7W3L2HDTH2ltPodsLfsuHEBhwbSCb4mXGc2SgjbESa3jCYwgOaYDx0vh0w+YAnbqwQLuOgQ745oG85fdVN9w6vFV2ZeD3ZWEgM852+7oljeHOfhC5HzBv6wif+PRuEPHb6sbORp6Ojo+NykloFOlllWovooaNjjxSLE63zON9//70SNuz1fdLwNkiueDf91pk0XEXi42EPN6fk5luFb775RvWMMxIKY4nTrcb05oIxqjlFOnvnGcKQvdh8U8L15lOnc0AkZ8BkQ4Ri2NTLbYpBzuV8K0J/eA4a7dmzpxLuphjcFNoUr1zGnni6JDGsY2LYCKBw53EzygtjSXfr1k0NEOU+OHCTM2kyuon55Cz8Tpci7oe98NyvqSHFvOGsoV9++aV600Nfde6foQnZmGLjgJO+UIRzgOhrr72motfovfA6OjpJxaE40ezWYwwBevwxPjSL2m/F6GHJPgNrAbgciBPNRZ5ungmCOeRaCH6v8jteXvcycpTMoSJ3RKsdWUaPE61jiRQR0alRXKUG2IPIyBim2Rh1tIfikr2pDNnH3uISJUpg3759ShBSuD733HNKoFIccmCjScAyoohp0hvOokhjr/SRI0cSXHqYNmfcZC8uJ6PhOs7KSTholb3sDHFIkcrPXMYeYfrRU/Cy95iuPOxxp0sNwwey155xsinOzTGJaE7iw/1T8JrEMkUv/czpCsPBmAsXLlTbEp4j90WBz1k5KexNk9vwmeS+GYKQDQmKbU4UxEYGlzE/6FrFvKCIZlx0CnG6AOno6OgkBbsimgKaL/02ilFEM+YA9Sq9K/m3oFhdMUtC2gER7Sn/NnbbiNALoVL4STIPYnBt6zVkq5oNPpl8EP0gGi+tfAme/o9HoSK6iNaxRIr1RHfp3Bmrl/8BDw8XeJDIKbj7BiIukgPRXHE60gjwMEQCiY/lK21tGgSmhoW6BDRvf5w7d14t09EOimjGsja5UDA+OUW0KRY2ob82hSYHliZu9LEnmVFN6NZA9xWTiDS5PlAoU3jaEtH0facopUAm9IFnrzR7sSlcTXC/7GGmX7g5FNEcR2DuMsJeb/qds3eZcKp2Rq2hX73JpcYcRkqhiGYvO+G+mJ75YNcXXnhBCXieD4+Nve50tdHR0dFxBodENItoxhegjjVJBfZAc3sOp3lJzFJnsQMi2kv+rXhjBe6duZdQvnPa7/g41r+SbGg0WuxvAc8AXUTrOE6Kieg33u6MI4U/gH/2wsYl3K25GE383Rxb6+RZ8/TBnh5eKDvyojwAQbK5tqfk5uGFa6u/UZ9zNPlEhLT1Vz7Jxd3HF3u6WJ/2XCf5UChWqlQpIZwixSH9kk3RYlig0ieabjWffPKJWsbeW860yHUm32P2ODMqTGIRTcFJsexIT7Tp+rIXm2nxGLgP03LuiyKfLhTmUERzIKv5AFueE3vVTb/lOfHcZs6cqQQzoVuGyd+badM9w9Tbbr5fE6a84XIKaE6CRD9yupDQFcbUw62jo6OTFBxy5+Dyx4cJGaAEsNYH54g7hxAXLYlb27fg7m29k08X0TqWsH7HaI1U2O5ePmK+RvMz+2zpu7nZWifmbRDYhu/m+9DIvD2UkKbxs8VtnDRDR7f1hoKOdrBnmr21FJc0ClSKRpOAZjxp+hxTdHI9B/LZwjzsoaMwtCOjn9DFgvs3HQuPI7GATi4MKzhq1KiEtBnxhuduCw5cNM2syZ5vCn/6crMXnr33emg/HR0dl8EqkMWpJdNArbh7uSuhbM10dJJKyt01Nlp/FuHD5CJN6SZnbW52MT92B87jkbQdPIdEHYI6LoSuFRxwZz5AkP7A9FEnjEJBH2gTnM3RHM6oaA79ipmmeS8xfZxJ4p5eExzQyAGL7L0234Z+x1rBnmZGOyHcB8Vw4lk8zSe04SyTzAP6eRNT/tBfeujQoSpCh5bHp6Ojo6MJev2p84RwREJqgwNikqLT3Uv+Sqsz/NIhhF3Y55jIdRCmFR8ThZBDq3Hr3zm4tXUu7u5fJi1Q4wbWMD92W+fBdSJWbu/8WdL/CcHb5iHs/F51PvYQvaPjIigg2cNqYurUqcoVgr7Hc+fOVZEr2GO7YcMGtZ5+xRxwOG/ePMyYMUO5cRD25hL2HjM9/qXrAycN4oA7um1w+1mzZmHs2LFqW/YyE/P9m2BIP7p7sOeXgx75O87iaY3E4ec4KNUc0/GZ/tJnmlFFeB7fffedSj+xiGa89fHjx6s8YJhD9qqbXEE4AQ9/y9B8zDPmiaUJi3R0dHSeKHr9qfOE8JBK/CvjZ5ey+LdluJXlBXilCzIuSYQ8BBHXT+L62u9xd9+fuLZ6JGLD7iJTpZcRb8cFiSL1ytIhyNG4vwhiK5EDJP3IG6dxfn43Ec5/ICb0pgjc3bi6YhjcfYKQoXR1EdjGbRNB8R168l/1ObBYTcs+W5J+fEw0Lv3yIW7vXozY8Lsi1lfg5qYf4Je3EnyycGixddw9gct/0Lf2S+MSHa1gjyxdGyhaCWfMpO8ye105c+PVq1dVbytjXNOHmH7BFL2Mk82/FNUcFNi4cWMV4o7bUqgyfjSjYjBkHN0z6OrAONjsueZU9Qxr16hRIxQoUEDtk9vVr19fHQPhjJpcxgggdB9hxA3G4qaYtQSPjQP/TDBNRhAxRfLgedJnmYMfGfGFDQVG7OA5ckp9DmTkPnn8hL7cnHKePczcNwcdckCjaXZQ06DCa9euqfQotk0hAHV0dHSSwpQfp+B63uuAK4L7sKPqKFCkdhFkLJnRsExj3OXfnsF7VGeJjo6JlBtY2LYLjhUfAP/sRYxLHsXdBzg0sLQI3ZMo8O5sXP59oAjoFsj31neIszOOj73Xuzp5ovyYm/AMyGT51Q5F9M2zSkAHlmgA32xFJd1whJ7agtOTX0PO/32JPM2/QpyF+STcROBeXTFKfc7ZtL9lsS3px4bdw/3jG+CXuyy8M+VFzINbIu6/RPCO+SjR/1/4569o+dgED19gZ3t3xMdbG1Whk1rhI0QBaw17658UPKYUevx1dHSecSo8VwEH6h4A2I+W1GKH21srQrmOAwt/BpoOaYrCjQurmM9aw4GFE9wmINZer57OM0UKRucQEV3CuojmAxJx5SjcvHzgmS4LTox5EemK1ET+t8dqI6KJ8VQNYW34Qf4TO/xVWXj6ZUKpQX8j9vG37qqn++pKo4h+WUS0lWcoPi4O7p4Uwvxi+F3I4fU4Nf4lFOmzAulLN7J6bGxE7HpXF9E6KYcuonV0dFKKAgUL4PyN84bwda5A6m7fQF94+EnF64pijRrlakSCi56ODkk1PdHmxIQG4+T4JiKiX9BWRFvhxNgGQGwMSn6+2bKIdqQn2gJ0Awn57y+cmvQ/FOn5p00RrfdE66Q0uojW0dFJKcpXK4+D1e2EuEsuFOZLgYb9GyL/G/kRH2vcAf+Y92An/p4EPHw88KPHj3qIO51H0HDYXtol9OxOuFnzpU4W8qSKGOaDHHn9OHxzlIBPdk679GShYGLkiYjwCINFpEGT4+ZEJSkJ/Z85qI/7Dzc7FvPPSVn3pMw04NCELqB1dHRSDIpXil1XGN05JH2GqfPw8oCHr9H8zD5b+p4UcyRCgM4zR+px5zAjpXqi+UyEXTiEY6NqosLYO/Ld8msgR905+BBH372GsEv75e8VXF09EvHRYSjSewUCCpSz2YOdEu4cFy9cxJsd3sS/2/4F/I0LtYRNsptiWcRcdVfdB9q83gYLFy80LnA9c+fNQ7t33kFej3SQppFxqXZ4uLnhQkwo8ngEuCTb+IjH+XnhqzGj0K1rV+NSHR0dnZTDoclWTFBwm3qMua297Smkf7c/2Yo5bgk7YPL2txcZrU+2ovMYz6w7B0VryKHNOPFdXWRv3B/53hyJuEcjhiXgqDsHxfa9o5txdflg4xLZj3cAgqq/jQxlXpJWsCHqgSVSwp3jwtkLeHfyu9hYZyNQXBZovat0Yry8h8RcUc6wzNsOdFjWATN/mWlYlgLMXjAPJ4fNwfBGneS8XNAL7u0Hn+/bILLXHLl3XXD9Y2Mw5+w23Hu9Ivp062FcqKOjo5NyOCSiWcazw/eGGEPtM/wsAwLxN7bcKNkT7cCMhYRiOPx+OG7tvoXYiFgVzSNDgQzqN/Z+p4toncQ8g+4c8fDwB4K3/qIEdK5XvkL+thTQzrcl2EOdvmQdlPx0g7LiH29A0HNtcWnJxyrmtVnD98nB5z9MjBPPhWpspsnsXJG2yRgq+QnkY6QIUUTJzl1k6u6zsFwLixKLiElZFxgdHR2dJMFyneJ5pRhfNC4Qmy32s9gOMV8xZ5BC1lv+7fxyJza224jl9Zdj1cursPaNtdj+2XaEB0t5qaOTRJ45Ee3h64abG+fhzLRWyPfWZORu9iViKSo1UmYU0hycSGOnYpbnWyNjuVdwdeUwxIbfM26VhuBrMrqLO9/GeBRmNwtF9l7TXOFe8sSQk/P0FvPSPNvAyVLov28yBhjX0dHRSeuwTqA7ICdFrSPWwmgVxJaJcaoGJ4o7TzdPrO2wFtHh0Sj0RiE0WNgAL/78Ioq/WxzHfjyGK5uuaF/P6Tz1pJyITgU3J2cmDN7xJ87OfAf5281A1ro97LqKKMyPPSnnIdsaZmFk2J0McLMx/WKqGuPF12kUtbS/xT4wftYKZgN7xL8WqyVWV6yjmLM9DU8aDy9ArjVbT/23LMSgbb/CTYS0ZogwP3zrIkrN64/8s99HPrFlZ/bKPn30sl9HRydtQ082ugO+KlbOzMqLUTyfFrNWhTpQAMbKvwoDKqDqkKoo/k5xFGlTBEVaFkGFvhWQ4/kc2PXZLsSEOxh6S0fHSMqJaG06epMN9ev9Y9twevLryNt6HLLWEtXmqPIwP3Yb50HfaXOdzM8RN2+o6B9ZanSAuy+7XC3DeNWpAhZWB8VqirHwooC+I6blncJXdtXEdopxhulWYruNy9KLpUVEQPfaPAcBU7vAe0YvjP9vA4IjH8gKbS5snLSy+myag7K/DkG5oDz4tnpzBHn7o9m6H1B98Vdy79mbu15HR0cnlcNizEeMgtpkrKftBc9yoJilv3PGEhlVpA1OxsLv/MsBhlwWcjzkYWg8HR0HSTkR7QBx0REGi4kwDLCLi1E9xZxZ0Nmu2qjbV3BsZA1krdsT2V/si9jI8If7E4uPsTBVYRLgwMBjX9fChV8HIi4qTKUZfvU4jo+uLfs+D+/M+Y1bpnLYG/yNGO8Mvj4rJMaCTEs4K+sSo7URe1fsiBhd0jjjtfW2RupEBOxH/y7E5COb8XvD7ojoNFH5UJuP/nYWFvmLzuxGfJ/5WNSwG1oVqYr9bYZiTp322HXrvDwfWl8kHR0dnVQAq37O3+BCtRIbFYtsz2WDu1eqkkQ6aYBUc8cwWsaRr0rh0Cf5cHRYJcSGBqspug98mBUH+mVGZPA545bJxN1DzYQYcmAp9n+QVfaTX+1L2YA8ODvjLSWEkwt9oIsP+AehR1bj0MACKt3jo16AX85SKDFwJ/zzlTUUBqkdDgr8RYxuHMQV2oy93QXF2G5h+jRGRikqlgY7AtgAG12zDeJ7zUGj/GUR5YLR255u7rgp4jw+MtQgmNmolP2+XaaeZFk8huz8QzbS0HVER0dH50lDhXJXjP0R9cQ09rZgR8e96/cQeiEUdX6sA09fJ5yudZ5JUo2IjouIR/kxZ1Bp8g1UmnQdFb4/hwrjLsr3m6jyYxh8slJ1JR+vDNlR6YebCWmq/Zjsh1so0vdXEcJOKjjRNmWG7TNL+yaKvv8bfDLltB5bOgXx8fGRtoRccmotvjLjq7PEZnqVxuPld94hLMCsbW9u3IY4si3LKvPv/A1FNffH76nmzrSP6m9m9I5oaUnFMfNcRHSkYV/mGP2ACgVmMQhrHR0dnacB1lPsO5ssVlEsl5iGxSsFdPSDaGzutBm+WX3hl8NPdUjo6CSF1CNVRAzEhosWsWJO39vye0bhsJQ2zRAj+jGJkmRUZI5E6abkm/Zjx49h+JDh+Hb4t4/Y6BGjMf678Tj3j5RKDB80SYyFky37Qeya2Hmx743LaD+afTa3cWJ87eZI2oltghj3w5HZ08TOinGAY5rH+XvKKp5e+PXoP+pj2zL15Yaz003jwkPR0dHR0Qx2quwV43QAHHj+hpiVeRwS46gbXVxcHP5q8xdu7b2FFya+AP/MT1WIKJ0UIg319+k4wt6de/H5hM/Rf2d/9N8mtt1gH2/9GCNOjsDpXKcNPb6XxC7bsStijcRqi1HUchkHBY4X47rE258RY0iii2bLHDX2ODQXayq2UYwTtjwVItpFPRvuHrh27xbe/OtHLG7QBYhxoIbRO1l0dHRSOxTQHGjOMTOvizUUCxdzEEd6kz3l3/J6y3HrwC28tvU1ZCqcCRxkqKOTVHQR/ZThIeIKBeTDc2LVxRjxgsbPVcX4Wqyy8bMjxggdNNN3pktxyzTNtzMZQxJZWu6ImUIa8fh1wWcdNzfExESh2dof8FH5RmhVVC6uPouWjo5OWocuHOxA+U2stVglMS3niZJ6xVf+LSy9EDd23UCLfS3UbIUMf6ejkxx0Ef00QgHKRrUrzFTWWFqnlekC2gZukj/xaPPXjyiTKTc+q/iy5JleAejo6KRx2DlzSowzFb4mVkqM9YGG+Lr5YkaeGbhz5A46hXWCb2Zf2YXGO9F5pkg5EU1hpAY+ifGvI2ZrW7N16qvC9OHR9YYNrHx2aJ38MaE+G9c9so2Fz6bvpmU21qmvTxJX7Z/p6sJYM2LiYvDev4sQLX9HPdcc6bxMozl1dHR00jB0MZwlRvcNvi1l34CpY0WDOsRL/s0pPgcPLj9A9/juiIsR+SwWHxNv+KvHiNZJBm7xgvGzS2nW+h3siK8Gv0wcYqvtLt08vHH6h2bI334mPHwDJXmNW5bunri7jw5aQMaKzeWB1n5WIzcvP5ye9D8R087lzeL5i9FmbBvJcPli7TA57oK7CRWjf/RtsZNinCnK3qszarbPxb4Us5XNTJ/+0+xZoI9zYTEOEMksxugb1mDBeVyspBh9pM3Dd/O4dwEd/uqAmT9zxEnKMHvBPBwePAOjG7ST47P/bjFCtvGb0Rs9S9XFpLrtVSg6m3j7wXtyB0R1mWLz3g2TdIbvXYHjITcwu+67SOfN2RHt3y9RsTGYdX4XolpUQ59uPYxLdXR0dFKO8tXL42CNg0Am+WKp2GJ9MVuMPdKJX65xe9YJHHNjqTilG8hvQOPPGqNAswKy+eM7oB/0nw3/xL3T9xB9X8pxs/GHcdFxyFk7J15c/KKaeMUSHvJvqvtUxOpv/nTMSDER/XrLt7DlTk74pM9qXKIdbiJyLy8ZgJxNP4e7t7/FB8gZ3Nw9cP8YlSAQWKKe6BztHyJ3Tx9c+qWf60U0Cw5GwGCrf50YNRu/M0Yzp962Nz7NERHNU+DIagaOkDaNCmfHZRw8WEWMx2ZNi6ZVEe3uzhtFfYyLiYbH9O7oXboeJtTvZBj0F8sTs3JtHRDR0XLPjT24Hluvn8Z8STPAL71sa3Yf2ojMoYtoHR2dJ41dEc3y3daLNRZ31uoNB0Q0F3m5ecluzNSzGfxNtI1eJF1E61gixUR087Zdcaz0IATkyGtcoh3yXGBnO09UnHAfngF+lh9QJ+B03leWjVWfc73yAeK174iGuy+w4y13EdG2unftY1dEU+dRzHKGQOYTBxwy2kZxMc4cqJWIXi3GyB4Bxu9s3IsAVhO59BXLImbp92lRREsja/X5g9h+44zqGI4RcTti3yqUDcqN1oWr4F5UhBoAmNXatO/2RLSkP2DbLxh1YA36l2+sXDhizOJRu7u54cuqr1O9G5c8SoKIbikiuqsuonV0dFIeuyLaGcxEdMFmBaVqca4etYQuonUskWI+0WzlxcdEwjCNt7YWL0YMU3g/vl4LixfxRLO0TgsznYPLYdnC6Bf/E6P7RgYxraHYfUWMPdCMG01hHiZGPzdCzxgWek8N8cjsG4CCgVlQMH0WFMuQXYWd+6RCE+QOyIgiGbLCm1FTkoso86pZC2CRpFk6U07kTRek9pNggfSRcaBW0rri0tHR0UllaP0mWkfHFik3sDAZuIsI8/CTD5bfviQZvm1neo8Zp/vWuEOeaZrvw/imP3VAIc1OSwp3V5U3TN9a2vSNdkFv/hMjLg5VsxVC+xIv4F0x/mXYubeKPS/fa6FLqbrI4C03QXKJj0OLIlXRWtJsZ9yHuXGZHqFDR0dHR0cnZUm9IlqO7PKyr7GznRsirvH9vpOIEL93bJNKb3cnP+zq4J1g+/sVgIe/RkpdcPcG9vQIkrS9VPrc572jGzRrDKRJ2BG7zfBRuWo8bZqPbhgUstbMWSylaW46Ojo6Ojo6KUrqFNEiNu/sXoLbO+bBK2NuxHPQlBYC1Cg28r09BVWmR6HyFIOV++acmqJbC+g/vauDG9x9AlB1djQqT41C+TG3EVDwedf1+qYVVonRjUR7dzUdHR0dHR2RCs9yb5VOSpNiAwvfaNsFx4oPgH/2IsYl1okMPoejwyqp3r3Y8BCU/uoIfHOVtCpC3b1EuHbyFLF6E54BmSxvJ8/V/aN/4cTYF1Gg/Uxkqd3B4QGCFMZXV4xSn3M27W/1dx7+wJ4u6eHhlxEVJ15ATCgPRHbMZ9pOLtP9Y2f7FBhYmBhuM0xMy4GF5vDcuY9JYuyN5qBCWx2nXJfGQ9wlGQdD3CUXPTrH45w/fx6xMa4ciCBVuZub08+zLdzcnC8vbJES6av73VQ2mpeTictMS2WoaZmtdR5S6DAyjvk2ibfnd5I4DROW0idyfZWZn4PWmI7fhLVjIZbOw3z7xL/locv3DJkyIXNmjqtwLWUql8F/5f4zjMOxdg7JheNv1gK1etZCniZ5XBLz2d3HHYvzL1ax+nV0TKQ6Ec1y9erKbxAdchV+ecrj/E+d0oSI5nGHXT6Ko0PLofJUDkI0rnCQp1JE8z0HBxTOEaNe6S1mD5OI5mxVb4iZ6xxWAjufJhFtrNUsimiuI+Y3s3F7m+uI+WejiL4gIrq5LqJNUOAiV1XJJvM81Aim/eA2EHIFyF1Oe3cbps/Y4zfkQclZxrhQY3gfXtsL5Kgkz7EIOa3ziWle3g/kyQ8EuEJVGTm+W8qS5+S51Vj48BrcviF2HchXDFCTHml8Dh5S8RzZDpSoZrgemiPncOMKOr7aADNms5B2LfkL5seFBxekvJMvWl9uORXcFX2eMwO8M8kOXPFYu7sheE8wYmI0vpd00jSpSkS7Sbl6ZelQXFn2FSpNjsKNv77HpV8/0lxEF+y8ANnqvmmICCbbxlkK3m6GIyKagwePDqsnQvogKo4LVucSGxkHd293Vd4yAoetB/upE9Es1CigOYUr9yH6E/5i9u42k4jm8VBEJ+6Jljqxw8aUFdFzREQfGPwjxtR/RwpQ7XsvPb194T2lMyI7T0asWeg6raCInnNxN2JbPofeXbsblz7bBPp5o9R0ublcoU2k8XjvyE7c+nsqivSZgTh7z1RSkecg+l4kzs/tjMI95qryRWtYXh34MBfKf3dFjfGw+9wmEYb0PPVNG9waOAgoV1rz9BOoGACcfAA1sZSWSPmOtWuBVfOBTyYDWWU/Wp8Dw4MWlgL3qNxA2hc76j7Fhk3otX0GJs6ea1jmQio8VwEH6hwAguSL1nnFaE8/A00HN0WhJoXksdb+weZkLRPcJiA2qT1kOk81qUtEi1jd3clNKp6VCKr2Eq788S0uLemvmYi+998anBzXBH65y8E3R3FpWXrCK3MBFHhnxEPXCws4KqKPDK6J9GX/B6/AbLh7cCnioyOlAvJDYPH6yFyzgwjldFbP4akT0TzP6WLM0rfEAsUcOTWWT1LO4oIYb5XEv7kqIrqwiOi5KSeiFyxaiMEdeqNBobIuEbneHh6YfGQzupSoJdffyg3iBLFyT52LDkGzj3uiV3frPdHLli1DpUqVkDt3buOStMeqVavw44/S4BkzBvnz5zcufZxAf2+UGB/lsg6++8c3IfjfmSjU/SeXiOiY+7dwYWFvFOosrVS+BtMYhgs99GlBlB1xVsowKZw0vi3dpRw5M6Y5gj8aAJRmT6txhda8IEp0v4tE9IY/RUgvBvqNAbLk0P4cKKLLcpS6NPZcJaI3r0SvA4swcdZPhmUuRI8TrfM0kkpEdDw8A92k0K6GDOVeRZ5motLkqK6u0FBECzEPbiPs4j4RrIEihKNwY+NE3Nm9GBnKvIwSn6yQ9cYNE+GQiJZ65r/BzyNrg364tmIICnaUlr3U0HcPLMXV5YNR5P11yFDqRavHlqIimhWAnJOC2wwSow9yFzH2/LLSt3ZXOCKimb7UK8goRmEu5/bItrZEBcuno2KcjIWTtZhXHhTkh0REnxARvSjlRPRPC+Zj/SdjMajGa4hUr4VNjS1mkukzMf9ua92jcPKUYosH4UDzQSJ4rWV88omOi8Gf144gS7uG6G3FnYPis02bNsiUKRP27NnjUh/Je/fuoUmTJrh+/Trc3d3h4+ODw4cPG9c6x8iRI/HJJ5+oc2CDwBpJFdEsY1gOxDLuub1LJJfZcREdL4LS7aEOlrT5hsymq5mkbxLRBTvNl9/ygXME2Ze37Es2tzeQ2lERzTxh3iSGnXVxUdbv+WSJaJZZ3Bfz09Fi0lERzXKNaZsOmfuwJVydEdHs2afxXrJ1nU0iercUynbuB7WtCfPjeGD9GqRaEc3j4rU2HbbN58cIr529GQvN8JJ/HIDI7WLlnyOi+0mJ6FKlSiHSPR7KBc0F+Hl4IUbqtWitXZ6MeEmBM2b0d3jppZeMS54uUoWIVgXqj10RvGU6qs4yHA4L5itLv8fFnz9AmeFn4JdbWpdWHiZHRXQCxnsxLioCkbfO4shXpVCg4zxkrfm2xUnfHBXRR79+EfeP/YXy392SRoFBhPC+Pz+/N25umoRy316FV3opbC2QYiKahdNuMU75bXKVMFUWLIj4mW/8LR+mfRHNyoWzEkpZqbD0Kpi/tfa8snwy+URbGlj4pHyihxh9orX0h+P5MG9EpPhM7oDIrlMkT42ZZSovzfPOtL2tdcT8s8DCcabyia5q0yf6vffew6FDh/D7778jQwZXzMIj4vL+faRPnx4NGjTAtGnTEBkZibp16yI6Ohq3b982bpV8vv32W/Tv3x979+5FxYoVjUsfxyERLfmoxLPc0xcWDcL1NSPlGb4mZQzfR9tAfueIiKZw9kwnj8rA5xBxRVqHgrtPOuR4+XPkermPQbBbQtJPjojm27JTk97BnV0LUXHCAynX+DBbxhERzXLx+rqJuPz7J3A3SyteRAbfvhX74Der5+CwiKagYhnC67R+mQilqUD/iUCeApbLn8TYE9FMnzbyAym3JskFkQvuJTv8aBzQUp53uqRZIrkiOloKtCXynI9+T+x3oMHrhjLPEo6K6KvnpbwvKtsHPnoMHJS45QZgrcHE805tIpr10yWxNWLXxBhev58Yr7Wt6826y0ER7S3/FlZeiPtn7sMnsw+qfV0NxVsWlyy2XbY/KRHtKyIipONE3JNnUmsooHv9PR+1X2iCZhXqaP6m1Veepe4/jUCT99vinbZtjUufLvgYPVlUhRCO0OMb1FeGh6PtaOumBDQ5/Fkh7HrX0IOiCXy+xNy9fOGXk12wQPDWmapScAbOaJi+zMsPhbwY02S0DoULXAGSDMsJaov+YuyBpg0xmumzNQHtCCxfKH5NaVJwm/ZjMkd0qDH/HrMnRcL+zQ/GSVPtV5rx/wn/E+O6hPVmy+ytS/xZTFUoapltvv/+e6xfvz5BQHMATawxMgD/mj6TOLmX+d1SG5zLzLfntqbBOL6+vvjzzz/VfgoVKoSSJUsiICAAd+7cUevNMf2Of81h+ubrXNUP8ODcPlUWMc77tZXD1PPtSD46AsuF27t+xe4uWREbdluJ8/JjguGfvwouLe6Ly3+OdLo8MoeNgYvSELi9c74SuVrkGTsI4qPDpZHwAO6+6eEZmM1g6bPBwz+D81nF8v6QtPjLyI7KSVXV71W5KPe0K0clWZyQxksF+XBwK/D7SeAfUdtZc0tDvz3Qt6VhHIeWXDhhENAk2pEuVgdgfnCsho8cbOZsQJDRMom55tFwDVQj+8WkjQEWB8z7u2KsM7aIOfk8sOc55EwIpgRMQcT1CPjn8Efsg1j81eovHJl9RK1PjXhIxvj4p0dWv0DNLZ1/IPxF6Kb3T4egwEzIqrEFBgbBz9snleasNjxxEc2COOr2BRGaGeCVISe8MuYyWm54SMFMVMEc4KLXy6ary8LGmSvN30qtER9r3nVqwEVvYZIPz5XGusiSOYuttGlPJVJAR4Xj8oO7uPTgjrJrYSEG9w9X3ABu7rgZfl/tz2HsHEbXrl3h4eGBy5cvq+9eXl7KJeKff/5Brly5pEAMxPHjx3H16lU0a9YMnp6eGD9+vOpFNhEaGopZs2ap31Ek79u3D40bN1ZpRUREqL+vvsr55q1Dcbxx40a88847avt27drh6FH6+MjtI4Jh3rx5aNq0qVrXtm1brFu37hGBrwnyLN8/ugZZ6/dFlRnxyFq7m3GFNvCWCLt0AEX6rka5USek/AtUjfpiH6xA7jdGiYDfhZj7IXavmSOveNnjfe/YVtw58CfcPNhlpz1F+6xE2a+PKiv3zQkU7DTLeV9wuoENFCH7v3dFXEnBMXeX3GAiorXEV5TagMkioHcAufIbLsyyw/IwDBaBfcDwJsx+FjvGfXlW36wgmVXeuMBB7O2frRWex1ezgdXynCw32lI5D+07L10H64bSYux8+ViMPdAjxLKKyaV3VETbEsMxoTHo8qAL2l9qj7eOvoVOVzuh5oSa2NRhE27svmHcKo3De9gVdY6JJKbvwiNJFTxxEc3XqX65iqPM0D2oOOEKKo6/rKzyD5eQ63WOeANKfrYHlabcSnLYuMfgteeDyKsqxt6ZqGCOYJNGb/4qTqXP3wYUfl4q3vWql0f5OHJ/HjzHONmXn3zWsGtJJ3Xh5YNW66bhf6snotnaH/Dyqgko+8sQfL1/FUKjNK7J3D1w9t4NNF45DnnmD5CbzMHHmI0bG9A3mZgLszNnzigf4/LlyyvR2qhRIyWo6ddcpUoVvP/++xg8WASHkQ4dOqBTp07Ili2bEtEffPCBEtK2oADOmNHwtoafx40bp9w9Tp48qf5evHgR9erVU+tHjRqlRDX9qV988UVcuXJFifQJEyao9ZoheZDrlU9Q4J1x6hmOY0g5DWH0i7wthiJdwcoGsWm6NvLXKzAL7u5dgvArR4wLreNIj3JcVBTu7PkZ2er0QKaKfE2kPXT/4Dkx0hHNpk+3o3Cw919ngZGzJFH5HhGmylTNYNblKwy83UNaGcbvhO4P7fvLsjvA+TPa1JJsEEz5AmjYCvhsqmGZo9i/xLwRDD3bLGrMLa3B68trzXY5jefQWSwJdbM1Vw4uz1IuiyQVq1w3TP+80hkalgxhl2Zxl5uUDWSpC7ZdO43jd66pMkwzWMfQ1Uns3K3LOHjxhKqHHMGR2zcto0Xx4DQU0vSd42AXc4s3+gDFRdy3OxDGLnI/Rd06j1v/zkP0vZuS3n3c3DwLZ358U0XryP/OSFX4Jxf+tkC7kfDJVhRXVwxB6JndiA0Lwe3dq3Hvv9XSIBgOD1f1pus8eaQVVTFrXux94zPsaj0UB1t+iffKNsDgPcvx1+VjhkJIE9wQLYKu7YaZqJmjyCOC1xXQr/jff//F2rVr8fzzz+PChQuYOHGi6ilmDzB7nOmecfr0adWD/Ouvv6JOnTpqHbf57LPPlAuHJdgzPWXKFFy7di1BBFMwDxkyBO+++y527typ3D42b96M+fPnK0E/cOBAtGjRAlu2bFH72LRpE2rXro2hQ4eq32uZHyZR6CqY/mM+2XL41EOBJRpIWSICz1lkB8HbfxJR/hsyVX1T9mnNydc53L19xeSvtMO0u9UlMzjY29my3xbMf0vXODzU0Lubq6BhG2dg23TRj8Avk6UVuAC4c9OwXEuYV96yI/oQ01JFza4B9IfnSyiNXjQlFtju8i8uxnCB06qIjpMCY6cI52/3rsCQ3UtRe9m3GH1gjXYPogj0szcvYsK6efhm+XS0mf4pBv4+UY3l0Unlj1pcjOF9oLOD7UxwApdLv3yIU+Ob4NSEl3FuTkdkKNsU+dpOdf7Vo0ChX+Dd2Qg9vVWlf3L8S7iwoBfSlaiPzM+3hxsHeug8ncRE45saraUuk0cqirW+G94qWg3FMmTHfTYGtSqfPb3w65k9KBuUGxUy52Gt4DjJOAZzNwmTX3OvXr3UX/ZGsyeUkTXo4vHFF1+o5bNnz1Z/ScOGDa1GyeDAwh49emD48OHKLYOEhYWpdAsWFPFiBnukKboJe8X9/ekwaWDu3LlqUCLFt58fFUQaRa5PdMgd3NoyHQEFqsE7o32fVruNBqkAr676GgU6zYNv9ozqrZiWxBtHYl9c1BenJ72Fs9M7IfL2ZTVQ2jWkgNDhgL7P5X7MkBlIL/tzpiuNNezNO8CwLsD3ywx+3klN0O4pS3rspWdPd9+3gf7tRKjfNoj3tAhf2Jrun1Viy8VeE2PPtAPY823mAEEOLiSnlp/Coe8PoWy/skhfxOA+mrZww6l7N9Bi3VTsuHEGedJlgr+nN3zZa6wV3n7oMm84pv69BOl9A1AiRwF4q/Qdu49T4Il9oqRaEc2yOUuNDij24Ub4ZCnkXEFG5Pd+eSug6PtrkaflGOR6bRiK99+CHE0+QWCR55x3FRGYRmCxGijYYS4Kd/8VuZt9LX+XIM/rI+CZLsj5c9BJ3aiJWEwXWf7KfyxAGKdZE0Qw/XfzHPpt/xWN8pRCNj8W+km4qTS6/0xi+ubNmwmuGt7e3qrnmOTJI+LeDPpZm0Ph/fPPP6toIBTeH330kXENT9FQ5CYeTEhM6xL7P6dLl079pQuJFgPmnhhx8biz5xclTLM1eO/xXmoLWD/feBWN4+iwKkhXuCYylK2NeAdFiKPw+PzyVZZjfR8BhWvBTe7HW//OxInv6uLiz1+oXmntceX1lbT5SH3eHdi+Bhjzp6EnPLnw2jASxadtgC9mAnVfclgIPoK9Uw6Unbz5HlDjZXkYMgAr5gIdawAzvnPYjzjVwOP9R+xbsfFiHGjIiboqiDnoImTNnYOw5/nQlEOYV2oeFhdfjH+6/YNCLQuhxnc14J3OIKzTFvHI6Z8BC1/sgum126Fj+SbI4KVxR0JUBL5+vTeW9hqLng3exEula6gJvBzFlU9saiD19kRLznNwYWDxuuCEJVrAgTv+ectLmnWUpStSU/UcaqVxCIW0V4YcSFesttqHf74KcJOWYYreSdQsbCi6yggLO0vrtLC03GHPa63MB4dvX0augAxK8KoK1UnCo6Mw5uA6NMlTGm8UrY6YJxz0nzGeTYSHh+O7775TQvennx6Gy/rjjz+wbds24zcDdNlo3bo1Bg0a9Ig/NTGJQvpfJ8baujJlyiBv3rzo3r27Oo60CNsH9IG+uuxL5G83A96ZsjtVZrh7ueHkuNYqLn6hLj8hni4LZl1C6o2J2ffkwLIufYkGyPPGN8j58kDkaz0O5UffQEChFxBycAVi7mv4BiYlCJCD/eZzYMlUYHMIkDOvNGyM65JDOkmvT3sR5GuBxm8aRCAfGdNrdv59+Agln/QiovuOBNoPAD4cC2yLlDJUCmj2TKe13mjmUWWxjmKct6CaGF9sTRJ7+PIp2TAedLF2xfDq5lfx6r+v4vkxz2Pv0L3Y3HUzIu4Y3nSlNQJF19C1LxOjs0gDXHOpIfVM1YKlUShrHsTHRCMmNvap711OClo8wq5F6zuC6Zmbq0iJfViC4pYdggwLRH2itX0qRu32ldkyLY2urXyFl9aeUlFBodGRCJzeHW6TO8BtUntMOrIR65t+gJz+GeU+cP5GuBF+DztunMPUWm9rkp6WsHeabhbsdaaLBl016MPMuM03bjwc9c440ZxJsEKFCsiePbuaWZDG7QgHI3766afKl5p/o6KilG81hTNdPOjWwXXcnu4dkydPVq4kRYpYnwk1tUMBHXp+H44OK4987WciIH9Zp9+MsWPg7r4lKPnZboSe2oHQ02KnDiE2zBBK8MHZHWK7nHabZIxqxptm1A/GivYMzIpcr3wh4n0vrq35Rg3eThNQbM4UpTZzOLDprgjq9M4JaObr2UvAYSmMh80HTh4ADu4ADuwGzh0zbMNwd/tkmbONYd5AXnICnlL48y/jXKvIHGHA8j/ku3G7tAI7hOlSw76zWmKM0sHY0ZzJVoMOFk9/T/hm9YVfFj8UbV0Ur217DeeXnUfISWk4pVVcXR8w/VRW56QWUr+I1kkabMmz9c7AJpzUJClGYWxpOc207msxFmQUvObrEv/W/LutdYmXUfxzYqM0+Ly6i/Lnq7VcIpppu26ex6DdS+VUnH/VQb/qAgs/RevCVeDN6eOl3kzwh+Vf02db2NmE8aHplmFyv2DEjCxZOHWkAX7mRCmm/VLYMuwdl5kie3DmQ6ZDAUyh3K9fPzUQkPB3NG7PwYRffvklvv76a2X0iyYchNizZ0+0atVKDTqki0bz5s3VoEb6O9P/+fXXX8eIESOQI0cOfP7552ofGzYY4szTtYPHZaknOzVCERtyYjNOjKqJwr1XIqjiS0mKbJFwD5jBCES3/pml3uSdGNNAjc2g0c2C4pmcmvwaTotxMKCriItyxSBGB+7zpMDkaAunAVO/ABaL+KRLhLPw9lsl4jn4OvBtX6CvFGq03o2AaSzshFlSmHYWlRhh5+1Jck7Z9JtxH6Zd32gTzEu2MxwU0UmJ98ye6TxV8yBHjRw4NE4amVFONmieBZJ4Pybn9k1L6CL6aYTlAF/f0v8uKWbrN6Z1ppHsidcl/q35d1vrLC1Li+WYtNIZtP7EO9/icsfxuNxpAv5q+gFG7FuFaUf/kZLEiaLE3QOf7Phdva5rU7gqtl76D7uunsTRO1dVW2P7tVPYfeOc7MPO42ynYUIhyxkE2UNMOAEKI2/QjYK2aNEihISEJIhsulFwECCXvfDCC2obhp1jz/OtW7fUuurVq2P//v0qdjSFLUUut2fvMbehXzXt7t2H8a5z586NxYsXq8GCXM6/f//9t0o/Z86cakZFHptpHd1ITLAXnL3XPDan4SUTe+TS8YtxubPwct07sQUXfuqMYh/9jUwVGqmxIElJ3+TiYg5FeJbaHVDh+/OoPOV2glWdFYwM5f6ntqk44bYKKRob7lxrVd1yZsfK76aoSj7Zi9q95+xiygtlxh1peA3UDKG//CCCdgQweR1QvPTDtJ1JP1LS7TIA2HUb2HEL2Cl/aXvEvvvTsM3whcAxKfgCDD79VrGXh3z7aP7oU3Re4nR/AmdFTCseTsxvS0WYaZmDjQF7PtGJoZCOjYhFxhIZ5f7V4qZ6ykniM53EzdMclm5Zl8DWIWMlc7CJCoWksRF3b394uCh9d09vg1lap5GlOCxsuV8aC2JXwvSfxDmmNIwJzegckWGomLMohlR5FZP+24RrSZkUJTEioicf2YQ7kmaxxYNQ889RqPb71/h01x9q9fN/fCM2UvLXNSERTD3I9uA29IdmGDxCMT1gwICEeM/mPtTJwZFj0JI4ye+Y+8GIvh8hwtQQvif2wW3EhAbL3zuGSj+5xMfhzt4/cXXpFyo6kK8Izqg7wSpt7jMugiPakl/9UEibhws1WbxxQFBseIT6rgRpcpGfPji3F5HXTyWU6/dPbcOV5YPhX6AastXposL4JRseWojk891gMfnLyWd4/PdEiPI7lzsD01o5F1g4Hvjwe6BACSCY+zKaA5PdWEd+yI4BTjee2NS1FeT+wn3564zKoN/OwsnAmWMPw9vtlEZ7z4aG8ylXTs5TbZn6YV5wnDLzw7xe2i7GdnsVMcPtmywYlePIj0eUYPaUf17yj6L6/PrzuLnnJgq8WkDq+BSTRDpPCW7xlroyXMBrzVtj4+kYeKczToGtIW5uHri15UcEVX9LHgJfeQa1PSUOwuHsYsQ/T3loFXLPHPoU3vp7qsWepaSweP5itBnbBmgmX2wVOBTQ68So7VhR5BR7Xoy7t3V67A3gVN50vXA0G6jtNonRNdb2ZHWGAv+4GGdj57wQrIhM8Dh3AR3+6oCZP880LEsBZi+Yh8ODZ2B0g3ZyfFZUAcVI4mvn6YMhO5ZgxvF/8e9r/ZGH08FbwtsP3pM7IKrLFEOlmBgRnxMP/SWn/7BG95Rle26ex/RjWzD5hbfg5+mFd0vWNgiDRHAk9azzuxDVohr6dOthXOoaKHQ5CUupUqXULIPHjh1Dly5d1ABCUxSN1ECgvzdKjI+yPqhYruWtLTNwa+tMEYf+CDu/W0RnCAIKPa8a0x4BWVD0vV8th8aUy3T/+CYE/zsThbr/9Pg2sp6TPJ2a0FQq9HvwyVpE9vdQ6XBil6CqbZC1dnfDoOTEyO9j7t/ChYW9UbDTfNAv2REYdu7o1y/i/rG/UHFimOrUsAYnTzn0aUGUHXFWzl9+aKFYotvI5d++UBFFAgpUVeUiz9svTwXkaPgB0pdpYNU1haL7zJjmCP5oAFC6msX0lSDs8ZoodfqqykmH3AJOHQZKVZV1ASJCpRUwmwrLBi/IdvtFtFK8JoaTqdQPMvg/l5PCL9JsICSPJ19RYPh0yz25zPINfwJrFwP9xgBZclg+h8Twd+t/Bz5+Axg6D/jf29ZFLv2Cy8r13y2FoLWynDfwxM/kOBYBlehALKz9GWjUSspPedYryHlZu8epFzevRK8DizBx1sPBwK6ifPXyOFjjoCFiiaW8YtuCdRL/sqjgNsybQ2KtxTjRo3l9YA7rs9+Axp81RoFmBeSnj++Aonn1W6sRExYDn4xyA/I5ks/BB4KRp1EeVB1SFd4ZLTxvRijCp7pPRWwKD+gOEH3zoPdsOXdLN2IipC7JO+s9vF6gPCbUaivX3s6xSr3R46+ZqF/vVbSs/KJsb7tSpz5ZsGM1Fu5eg+UfTTP43dvCywedp3+Guj1bJoQxfdpIMRHdrHU77PKqBb9MueWbtrt08/DGyfFNULDzAsNU4RqLXM40eHuXFJZCUNXWCb05WsIK7cRYqXRSQkSznKAG5fNVXEzqJuwWYxghTgzHdo61w0iqiGalwTBFUm+o7Y3ugFbhMaVBER0eEw0/+irzfTwLLrlngh/cRb3lY9CxeE28X7aBcUsL2BPRxD3RqwJJf9mpHXhtzWTE9ZS8YOFnpcBMSRG9detWNciQIeooqOkzXbp06QSf6dSCXREtRN46K2LX4CajhCp9FTj6XZ5RDqJLx9CYln4v96lNES3QXzjyxkkR5oap8h557uWzd6Y8Iq4LGfaZGFb+yRDRTCr8ylH57U059hcsp23EERHN44i+cxkRch4m3OQ+9c1REl4ZM9v07XZIRPO09m2Vk+UzJztjQ5VvM1SIQ/kB7/kqhpksrWJLRDPdA5I+3ZMsPTv+gXJslQxlUmJ4bMkR0XIKCLkNnBQxWbiMCMos1n/niIgmPI/9Wwz5Q/i3eEUgvdSFlosEA7z8qUlE8/CpyS6LSftG1TUMOUiBnF/MVh44IKLZCREeHI67R+7iwZUHCLsWhvSF0sM/pz+CygTB09fT4u9M6CJaLpuUTbqIfpQUE9FvtO2CY8UHwD+79qPoOQJ8VydPlB9zC14BGVkHaQp7XK6tGKU+52ja32blkFzYS7Szvbscu+2b2B4OiWgWVnx1ZnKxYH6xo32pGFv8pcWsHUZSRTR7oeeLMXTwWjEOHLQFn/m0JqKloGi3dgp+ObMHfzV9HzVyFcOa84fRZNU4vJS3DH6s/Q5ypZOaw9qN6YiIToyI6N9P7ULzdVMQ1226zd8liOiWIqK7ulZEpxUcEdHqfrOFtXJGfmdPRCucSN8kogt1XiDfrYvhxzDt004Z6ZCIJtbOwU76DoloYu/U7D0utkQ0sZU+j8nacSVXRBPmGc1W+sQkovdIIWi57f6QxOdhL22S2kS0CeYN6wH+NZ2XvXMxE9EFmxWU28L6jUExTdkTFxun3DfUd7s7SOUimo1LngJF9Mw+aFagAsbXeUfykccqK6zVPY6KaOWKJxdE0lm4YyUW7FqDZR//aBDRTNtaQSp1YxcR0XWeYhGd+NFL4zjyKCQPpuuqtFMcnghfl1Hg8g5ghcBxWOXErL0uSw5Ml24crMAenX/j6SI6Ej816q4KrlrLRsNtShc0XT0B3UrWwsr/fYBc0rCzWoilJE/NDZxCmB56a+YsltI0NwdIch9IEtJ2CFN6iU0rWDfbMmexlKbJtDwPc5huUtJ3ZLuUOvaUgMdu1GzqcxLPxZ4KUOslbZP/s+tUQ8pwT8T1sjP7ser8Qfx9dh8iYqNx7n4w1p07gJVih25dkvN1Qup5eOCf47ux6uDfWCm278JxXL93G5v2bcSKA5tw6NIJm+VQ2s5d+6QeEc0HxpZpTGxkqOpt0Tx9Y3ociBQbwe5e47LUDI+PvdYcVK/VsTKdK2J0WeSAEO1d4VMXIqQXNOyO2B4zEd9zFmJ6zMCUOu3lRnPBawsi6TYrVBlxsi+He691dHR0dJ4e3NxwVgTzq2snodVf09B0zUQlaP+5fgpvrJuC5uunYvLRzarHOdl4++KDX8ai1bSBaD39U0zb8jtO3biIVyb1Q7MfPsa0f37TblbeNEiqENFsJD04uxP3j21Sr0Eftc0IPfEPYh7cNm7tBCLsou9dx90DS3F8dB2cn9ddpR92brdy2XAWNw/RoVeOyvH+jQuLP8Cxb55DyOGViLl3w6mGoMug0GUzkeN2dolR9GY1LnMWPlOcU6CYGGegStk3YE8G+kPH0H/RaK5+7ceCi/vR0dHR0Xn2EMFcPks+xPf+Cfe7TVd2q8sPuNNlivoc3mMGfqj7LuKjrfmU2Sc+LBS7By/B/el7ld2duhu3p4hek89Rsw5jwjuD4OnguIynkdQhokXA3t4xHzc2TsCNDQ/t5saJuL5+jAje2oi4dsIg+pKL/JZi9uyMt3D5twHwz1VGRE40riz7UondSGlZOSN0+dvIW5dw4vtGuLz0S8SF30VAgSq4uKgvTk9rjeiQm84dv9bwnudszH+LLRSj2wX9qAuIaSGi/xPbIlZJzEWdsTpJJDXdf6kANnpdZmogopsqFyyud9Y40FQSd/PweHydJuapbhdGDbK8XgNj5jCf2IHhKiOWlmthpsGmkleqPDUtN/+c+HtS1tF4FRIv08q4Pw6qTMn37axjuV/+1dokq9w9GLTOdf9SJexMob+0NYuJcqroV6FFGY4xPNSy2RHozuw7LZBKBhbGw92LT4DxqxEOGLy2+kdc/uNTlB1xToWassTDgYU34ckwYhbOKD42GldXjcDdvUtQ9P118M2WXbmpRt9/gP190iHzc+1QqPsci4OAKPKvGgcW5rQysFANlJn6rup5LjP8LLzSB7AORfiVC0pY539rMtKXqm/1zXuKDiwkLMj+FePumF/sheZnBpHIZvxsCUcGFvI6MrteEyslxuNgb/c4sadxYKGzJGdgYRJIyegcaYXAAF/k7r3RJfnNBz/swh6EHFqBXK8NT5h8RDMk/ZiwO7ixfgxy/u8rgxi1CR9w86rM/LvldXExkTgzrSUKdfsFDBuqCsvHtk0+bnLPX13UDyFvvg0ULG1M3wX0lAJt1nYpiBk3TUMoPvdskkL7L6BNHyBDZkP2KBLnk/n3JKzzk/quXTVgxhYpQ13QE8GJRfZuQa+wo5g4Y5ZxoesoX7U8DhY8aIi4wVPVEtZnfwPV2ldDzro55bE27sBWdicRd293LKu+DDFqRqSUI0nROZJKEqNzJBk9Ood2JCc6h4ef6KlRTRH0fHsEVW4hR2u5snBERDOU1MlJr8A/dxkU7DjJMNEAkQdqT1c3BBR6DqW/2vZwuRmOiGge639fVEf2lz9DpvIPgyFTXJ+f1w/hlw+jcPclIpYDjWseJcVFNGHBQ5hfjBe9WozuHLXFTOsSY09Es4fjBzGm016M+oGXjSGLvhXjdOTEWuNVF9HGhdqhi+jHSR+YDnHZK8onVxR/blKOhCDm/nX4Zi8hz7TWbj3yIMh9GHnzFHxylDAu0xi5Dxkb2z9/VdkdH2Bt84k99RFX/kNMrjyGUHIuuQ7CoW1AhVqSXxoLH/aQqElZbgK5C0m5ZwpzpCHs4d4nyrD8C+p6aA7P4dZ19PpfA0z8gYW2aylbriwO3zhsqEO0vtysG24DGfNmhG9mX3nmtL+fOJvhza03VQjPlEQX0ambVCuiKVxvbJiCC/N7iLg9At9coqqsHKkjIppwUoBra79D0b6r4BXIODuyqTx8e7t6ocSnuxFQoLz5nAcJOCqiDw+qisK9lsI7A2cuMcBZvC4s+Ag3Nk1Cua/PwzOQ3byP80REtDkUv5vFGOyeOssw8/Pj2BPRHL/wmeGjiv5hfi0onPl71pkfGr8nhvl/QozRQlqKJRbRO0REr0l5EX1s6Cx882IHl4lonwltEdl9huSXCypLERAzzu1A2BuV05SIfvXVV5ErVy5MmSKNC40J9PdB4eFXtK80iIjO0FP/4PbOBSjQfpaKCa0pkn5M6C1c+v0T5H/7B9FC1lq8yScuJgJHh1dByc/2SPlq6onWDnefAJz/oRVu9+wDlKisefoJ/C8/sFHU1QPjIG+tYE/0P8uBTX8C3YcAmaXA1Poc/NMBdTJImXxDynIXlDsMW7Z1DXqdWYOJM+cYF7qO8tXK42BFY4g7rR871l8rgXof1EO+V/Kp8HWOYivEnfk6Dx8PzM04V++JTgrPQIi7VCuiKYwv/z5YNEWcCNfPQd88azgkokWARd48p3yimVahrosRGXwBx7+pjvSlGqF4/zVW47k6JKKlnjky5AWkK1YXuV8bKj+i4jOK6IX9cX3ttyg38jK8MuZSyxOTKkT0RjHGi35HTMpui9gT0ZZgRxZ7uh115+DkLByUmE8s8T5uioiuKCL6p5QT0QsWLcKAtp3xXL7iLhmF7OXugV/P7sXr+StYLcydIU6O+aa0WNp//hG6du5sXJp62bJlC5YvX45WrVoha9asaNq0KQ4elMpXQxyKE51c5NF3KE50cpH0kzPZSlJwOE50MnE4TrSz2IsTnVyY5cmNE+0ojk62klxYLqfGONHJgfLAzmQrzpImJltJKnpPtNOkThEtlUTE1eM4M7WliNbPEFSttc3KztGeaL6VZDqnf2iGu/v/UMtKfLYbAfkqq31a/Z2DIvrkuBa4s3cJyn17DZwamDt8cH63quwirx1DuVEiojM8YRHN8zS5aFIQm86bPb5rxLKIPSfG5ZZIARGd6VQmtA1si0LFCz3So8CCkTPf1apTC+XLcw7YlCEkJASr16zG2XPn4a6CzmuDKeuZ5tnTp1GgUMGEzixT9pvfkqbtba0j5p8NxCNzUGa80awZMmUyvIFJjVy9ehWzZs1CbGws3n33XYSFhUlb1E3l/759+9C1a1fjls6TJBFtynATj2bu48j2SRLRyUjfYRGdOG0TdvaRLBGdhPNIsohOah6ZcFREJzX9pIjoZF6DZInopJxHWhHRpnOy9RsnRHRqn2yFZWCXkrUQrbVLkuAhdc+WqyeRM0c+FMycS+qfpFwY+3hI2bTx6E4MGT8Kb7/9tnHp00WqFdF3dv2My39+jiJ9VsA3e1GbD5CjPdFxkWG4+PP7uLv3NxToshA31o1B2MV9yFD2f8j9+jARuJYLQkdENH/oGeiG49+2wN19S+RH7vI7bzmezLLODQzRV3bEGXilt+wnkWIimoXNMrFLYpwxl5UB3xQyUsc1Md7necWsHYYzIlrqGkem/Q46HYQpTaeg5Vv059B52mEvc+HChVGtWjWsW7cOERERiI5++Pray8sLbdq0UVOKe3rylYnzODpjYVxEKB6c260+838cxBdYvJbd3zkioumFEXP/DsKv/Cfp8WF1g6d/RvjlkwainfQdEtGyXehJ43TQ6oDVScjHWATkryxCljMuWSYpIprnESvXLOzCXsTHiuCTbT3TZYZ/3rJW8ynJMxbu3izbcCPDOaBMdcDXAXHvyIyFIXcM03AzfeYVfZGr1DSUi9ZwVERzuyP7gIhwWc/MMJ4DZ5IrXEoEZVbr55AUEc3zCJPzPHPUEDGB8DwqvWD9XkrtIpqXmvUGB6Wz3sotZu1ckimio0KicGvfLTXtt28WuZ9s8KREtLfck/++PhAPXBDO1MfdE9/sW4lKFWugXrHK6q2lwnibJmD+PQnrvD28MGzZj3jrs55o+7beE+0USRHRsRH3cGb6m/DNVhgF2o+X78YVVnBERMdFh+Piovdw/8RGFPtwE3yz5oab/O7+iYM4OrQCgqq2RpHeCy3uyzERTURIp3PDpT/GIOLiAXgEBCFrnR64vX0uQo6sRbH318LDz7KfRIq6c7CsWC4WrL4Z8BNjPGeGuLNVeSRHRPOholso/a0fjrm0DHuiT2fCpMaT8Ga7N40LdZ5GgoODcfr0acyePVv1UhQoUAD3798XHWNeQhvw8/NTLh49e/Y0LnEOR0R0tAjVK398irsH/kS6IjURFxWOe/+tRr63pyB7g26MkGkZOXx7IppvxcKvnsCVpV8gOuSqlBtZVAz7B6f/RdH31yN9SYbJsYKk78i03yy3dncy5KUHG/PGk42LeoASn+yAf74KFstK4qiIpoAOO38It7bNVuebrlgdFY2EnQXWoh0Rh0Q0T+v8SYPf8TRpfT/XyBBlY/taoHUf4MOxso2VBoQJWyKaWRNyG/imF3BUGkpFpfFy56ZhMN+w+VKGviX7M2z6GI6KaI7/qJ0PuH4RSB8k2xg3otD9Wn77ohTU1jSZSUTbm/ab+RQiavP7jwwRQwqUkOOTAzywFfhXzsfaOaR2Ec06abLYeTFG9PhUzJoWMBPR9qb9NhEfG49DYw9h+8fbUW9uPRRvW9zm756oO0ffuS5y5/BGr/XT8WL919GsSkN58B2t1B3Eywfdpg5ErR7N9Wm/U5LYsDuqMgmq9rYU+MaFThL74DZubZmOTJVbwS9HblUBxoqwC8hXDnnf+gGRt84aClWncEOMlI25XuqnKpD8bcciXeFiiI28j2z1elsV0CkOC6KXxOj7bDJGwmAPtK3COrmwwGR0Qu5DR8fIsWPHsGPHDvTt21f5PoeGhloU0OTBgwdq3ZIlS4xLXIyInZCDS+GbswSKfbAeRfv+pgYkF+gwBxfmd5eG8hDVeE82cprRIdfgn7eClBVLUPQ9MUk/W/2+OD35VYQcWqkEqj1s9oEYV3lnzq8a8IV7/qmsaN818MlWJGF9spFziIuKxsVfPxSxHIpC3X6WtP+Qc1mNXK8Nc77sZmN/cEd1LTBxDTBBVNL4VSKs1gPLZotommbYzhkipTAsUtaQ7sRf5e9KYOAPwOdvS6N/hUGcOYMq+4w9/t8vB8aI8KZNkoZABRu9xObYu0737wFDOgEHt0l+zZF8kv2Ml32M/t16FKTUDq89o0WZ8oedNw7iaC90ZEgkLq6+iPyv5jcuScVQuLvEYhAnz1cMP9NdxAX2tM9mmOpEdLxk+sWfP4R/vkpIX6q6zZ6ipGGonPk61jxNfg4sUc/wQYNKhVCgsweGkT5C/tuNm/9Mh1e6LNY6jJ4MFMus5EzG766815m3rhDoOmkWunEUKlRIuWvYeyFGv3G6e6TQizMWFEhf8kXkaNJPuSWYBGG2+u3U31ubJque3uTCsoG92zlf/gRegVlUeeHpH4gstbrKvsIQfvlgQnniLO7eAVKWSnlaopbBStWFh691Vw5HocgP3jEP0XevSD4NRIYyDRPe0nlnlha5s5eKArDnMKDTx0ClmobGv4cUoo0aAEVF+I7ppzZLNjy+rLmALp8CBaRRwbdl/gHA293VaswcniTxZpdqzwNVahmsel0gyIYrR1J4ICL6yC4RzdLIqCb5JPeWKmsrOyjSUxt8rnaLcaA736i6APpBr2y4EhlLZkTO2jnlvk2hcsVVsPPBS25Wbz8zY0tEG1S56+sP+Em5kWCB8jw6UQg+JaS+nmi5F0IOLkPWur2svy5NDsbXflF3L6uODb5OpNGl4+hgKZDVDGBqk+Qhv40Nv696p0xpR98LxtkZbZG1VhekL91EwwaBjk7ap0ePHpg2bRrOn+f7WvukT58e169fx/DhIm5SAO/M+ZQofKTRbRSJWkBfZpW2sf5muaR8itUXxwoLaz33jxKvRLu5aSHe2CkQdfsCstXtCZ+sBQzpmtAgfSUGq9QxCEJT2kxXNfglfzJyFLQGMG3z9E2fS1Z++FkLTPuh8T5yNI9sXWLeNH/OkNZdbjne4o/2PGt57CkJddkesY5inG8giVAg24IzD+4euhshJ0JQZ0IdRN9P47077u649uAuXl0+BummdkHGad2UlZ7/iWG9Q2WEdXibuqUPQo2vWiND18rI2K2KMv9O5bDluLR27Ahp5/ae+klVIpqF8q2tc5Rfc5YazTWtsLwyZFevGYO3zsLuTh7Y3dHTYJ3c4eGfEaUGbbU40YqjeIhoZtSPXR3dEtI+0C8L/HKXRZ6WY52+kXV0nkZmzpyJPHnyGL/ZJk6EU8OGDVG5cmWcPXvWuNSF2BA5/oVratMoZrFgNBYRMeH3EFi8HrI1/PBRUWoFR3vmWbaaTBPkWENP7cXNTZNV+cle6Uf2wXPSAkt5zLSjRC2272/47ixMj8dM8xbbsEKEnBfw5QTr/sTJwbSPpOaPrUvMxsTUr4DchQ1psq/ItI+0CN1nloqxMZDMNpI9dw6u3zt4L7rc76I+p9jbLZfghqPBl5FHBHNx0Th32o1FcPsxuPPuWBy/cw1Vfhsu9wRv6uTj5pcOJfo1wO2we7j7/SYEj/kLt8dsQPfazVHr2844dvmUcUvLpOXcdYRU9ajxXvbOkAOFe6/QzBc6AUk7Q5nGqDw1HgXenQOvoHzI/EIXlP3mIiqOv+70/mIj4lFy4HoU+2AjvLMUQsYqbVDis70o2vcXB3uLNMSVu0vhU9F5usmcOTNeeukl5fPsCIzOsXv3buzfz2DiKQuF4r0Tu+Du7Y/i7y+xOmjOURhD/uKv/XF8dD0c+6Ymdndxw4WfOqHoB39JvSetcg1qHzepQOlusauDn0p///uZVRQNZ59jFmlRdy4i5v4NuPmkw5Gh1bC3p7+yPd29cWPTD9oJdnOoB8aPAM4cARq1MSxzBorOf1eLIK8BdKwFlJMT++B/wAGpELSYI4fX0C8ACMwIVPYTk0ypId+XaTW5CStNuVcatgQGdpH0PQ3pV5Lz2L/FcH5pBd4vfCkllxYcV+u8x9FjsBd6qttUFO9QXHJOgwfsiROPAC8fzKn7Lr6t9Ta8PDzgIQ8ee+NDOo7HnlsX8PGWBVJwOiGkIx5ga/8ZODZimdIyDFtH97oxbT9FnWKVcOTqmTTeEHGO1NVeleuQsUJTpCtY2SWuD6Y0s7zQFhW+O4OCHX6Ad6bcGgl2NxXZI33puij/7QkU6TEP6QpUdLqiTSrqZmbhbwoNpLVx+m4+L65KXyw+PK33DugkBQ4WXLFihfKNtgdD33Xo0AH//PMPLly4YFzqeiigo25fxfGvqyFfu5nauJqJzokLD0Fs6E0pJ+6rQYYe6bLgzr7fERN2z2mhy/KuWP9/UWbEWVScHK7eiDFO/dHhlRF6aqvT6TMBNy9fXFzQE/nbTkWVH8NQaWoYAorWxpXfBuDuwVVO+Y0/Bmuro4dF9K4AftopLbBkvOu3RJQU3HduAKFS+JSoJOnmALZL/kRIQepsHrEne+g84LcTwDb5MnWTwQ/7q3eBxRMM2zgLWyvHDwB5CgMnY0SESoO02otAZ2kUnDuZ2mp56/DN83GxKmIlxVgFmOe/k9fCS/7tHLITGUtlRMPpDcFIHBSbqpNL8sieG0hqJV9gZrxdnCEZHxUbEcaQeMGRoXJyTpyb1MVB6aQRmDjEnohpbxHn64/ufOoHD9oi1T1eymfPxdeDbiIUvEo8a6zVePymtJ/EfRWUNQhZIrIgw+oMyLguo+aWaVUmVdhkWpvJ4nqnbX1GZL2YFZmyMg6SzrNAhQoVkCFDBmzatAkeDM1lB/ZaM1zS6tUcvu96OG4i9Owe/DeknDTAOyPL860dcrWwR1xkPAp2nIqy3xxG2a8PovSwfcjTYjQuzu+G4K1zlHC3h823XFK2BRaukhD2M+dL76P82EMILNEAx0fVdCh9W3DfDGeXt80EBBSqqMq9eGlcFO21FF5BBXDv8ErteqOZzuXzwPgBwHNNDGHctCi7eR0bvg6sPwUsPwgs2wMMmg50ElEyd7TzAwtZBxQq/lDwV6sNrBVh2/YjYM5IQ+g7e/rG5npZGSni/L8dQL9PDJ0ct8UWrZOLL9f9LWkUMFReaofXcp+YtF1UCDzOWXDTaIQCm58d6PCyJIbZA315x2Uc+vYQ6s6ui+vHr+PO8Tu4c/YOwm+FI+xKGG6fuC11tsaCICVgh5OFqch9ReC6yzPaKHcpWe9kgZW4U4vlTmQYQsLu442K9eBpI9Skvds7rZM6J1tJIo7OWJhcHI8TnXy0ihN99+5d7NyxE3dv37VdwVqCm1vLO+M6phl8JxhBmRjz1LAq4Skx/615WonTtbQfs2UB6QLwfM3nU/XsejraM2jQIPTq1Uvdw/buXV9fX0yfPh01a9ZU7iBJxdEZC1m2PDh7ECcnNEWmKq2Qr/V39hvHcujOTPt9edlXiA0NFnE6TvLBggqV9B2JE20JupBc+m0Iri77ElV+jLfaGLAXJ5q7vLP3DzUOpFCXxQiq3uphWnJ8d/b9gftH1qDAuz9YfNPnUJxoE7wV7twyhJ1jOLpug6WQEGXoSFGZnGm/+eZ7dH9g4+/AOhG8ln5LzZDcab8pzCcOAaZ+Cfz8n2HSFUu/pfi1FyeaYcSqy036ehdg+LSHPtw8hw71gLNHRZiKIrV0DrxtUkucaN4jX4sxX7OJmepYXvvrYlyeT6yuWEGxxNeeL7FsxIn2ln9/NPoDl9ZdQqbScgBMV2A5E3Y9DB5eHnKfu6PloZaiISy/PklT036LgO7790/449x+XGj3neSnlRsoudN++/hh6c7V6PfzWKz7YDIKZsllXJEILx90mf4Z6ujTfjuPLqJto5WI1tFJq1y7dk1NujJnzhyHfKQDREi1bNkS27Zxus2k4YiIplCMuHYSx0bWVD3QuV4bKssc6L6VCjq5Ipplzc1NPyLswj4R0eMt70/Sd3ja70QoP+zFn+La6q+dEtE8hshb53FmehvkaPAegp5r8zAtqVJubZ2NsPO7RERPdk5EU+hFSgLtqgKvdASadwX8/BwT0CQ5Ipoc3Ap81UFE8nEXi+jDIqJLW/6tSUTbmrHQJKIbtgbGLXrox00R/XYNaTGdBraJCk3tIprXUw5V5av5teUx8tA4xUIrMf6W+ZL492Yi2tKMheydDj4cjPCr4Y/0NlM4H5txDP45/JH7xdzI82IeeQaNCjsRaUZEi3CdsG81+m5dhEMtvkCZLNL6sHbMyRHRHp7Ye/Ywqo5oh5Fv9MEHL76tpg+3iBxLZxHRdZ9iEW3lzHV0dHRSFg4yfOWVV5SYduQtSlhYGEaPHu2ykHfRoXdxZFglBFV7C3lajICHt4cSucoc161WYToUtRSk6ruUxlG3r+HSkgHwSp9N1jm/EzbOTR3V/Mvv946sNSxwBtEhvtnzI32J+rh/ZoeIbmPlS4Efdhvnf+ooeURl4wTMl3v3gFcLAW++B7QXCxQBzWxh0hpcA1UDSpIJafE7B7T1Mb7dsH8b2oZ9VEzfeA3UX2q4kGCgxssivnM9LgiTAsOLTdkIXD0ngki+83hpFJqMHZ0pi3PppxTMl+JihcWKiRU1Gj8TPifsf+OkXck4H4rqzGUyI0/DPMjbOG+C5auXDxmKZEBQuSAUaFLAqoBOM4ho/f3EdiWgDzS3I6CThRuu3bmOysPbokONV/Bhw7ZqoOGzjOnRTgHk5pSahwW51mY6C/bIWFrvtPHQ5YPBEq3TyJwurHV00jgcWPjqq6+qsHc+PvadUfkSLVu2bAgKCjIu0Y74uBgc+CATvAKzwitjLlxZNhyXlw7DFaNdWzdOieDkQvF8bnY3HB1eG1HBF1QZcP/0Dhz8OCcCClRD1vrvOe13TaG/810P3N7zu/p87+gm7OtbBGEX9qDi+FCn02ePYcZKzdXMjmemtZQ8i0V0yHUc+DAbAovVQf5245I/aJvlIfP3NRHQuQoAt66JWBwG/CDGv5MGA2udnL2S+/hvD9AgP7D3X4MwP/kfUFbuPfbwLrXSC50UAmUnjeQc9hojZVw8I42B2sCi8cDrHUXksmvVSfKK8uS05Z1fBe7eBm7fACqJeI6VC/ynnI9jgW+ePGyHUSCb/prMRDLEszkU0hb/saEj++TnNI00Wn/6bxNarJ+KgyKgy2XJo7GABqJjo5Hz48ZoXqk+fuwyQvQQH6I0nm9OkmLuHK1bt8LSP36DJ2ec0ho5A44Sj4/he1MXnQ4nYyEWHPg1QQ47zt3L4VBfOjpPK3TP4HTg7JWOibH/vHGbt956CwcOHDAusY89dw4Kwn29fKRcoeuAVESJGrleGXKi/HenLceWl20dcueQovDk2MayLadmE6RCooAu+fk/tgc9S/qOuHNQmJ//+WPcWj9G9iXbSFHvn78yivRZCc8A2w0Pu+4cRtiQeHDuIM5Ob4XImyIQ5Rx8sxeX3x1UAw2tYdedg/lNe1kENHttE1+D6GjgxZbA8AXGBVaw587BCByMszz3W/VqmxNXqLyy5wLCLHfEnYM9wm3rAYe2yTkYb7bCZYFh84BiJa37OhNH3DkIq9SzIvjffwW4clZdAwRlB/66aIi3bA3+zoo7B8cl/PTTT3jxxRdRqlQp41L7/Pfff+p3I0eONC55iE13Dmswn+XyQE4HfcSsnY8ddw5r0EVj94jdCMwfiGJvFxMtbaVAEFK1O4fct7+c2oUuf8/Fhv/1kzYUpzJ3IA8cdeeQeyoyOhK+vWqgesEy2D7sD3k+GKLLDs+AO0eKiGjuwpHXszo6OqkDulQ8CRh/lDGgt27dqkR0YGCgoafIDgx9FxUVhUqVKhmX2MYRn2gPvoa3hhxSbLj8z1K5Josc9YmmmFRvoozweOz6UEv6jvpEc7yIeY+5St+WQDfiqIgmPH5ztxSVNzYENHHYJ5pCkjBt8234ncLSzn7simimw2OnCDOlz2X2eqAdFdG8d/0lQbNrrLbjcdu49xSOimjC9OUyJeyH+7DXH8NtrYjoPn36YOLEiUpEUxTnzJnTuMY6bMQy0g5nFuVv33nnHeMaA8kS0YQvpbi9rbcayRTRhOKY29sS0CS1iug4ucdWXTyMz3b+gdn13kWF7IVlodkx8qG3VoY6IqJlm4s3LyHfJ01VXOhNw+S+D7klzwkfFIFvPKzlt+4TrQ26gNbRSVusWrXqidjy5ctx8+ZNBAcH4+TJkw6XHffv38esWbPUtOBawV5mq0YRpEG5RsFsnm5SBiE6AuNZP5Z+UgSMA7COZn4k7MeesE0KFII0ilrTZ9N3LfbDvGCemKdvT0AnBd4jkiePHDsH/9kT0EmF6TFdHrvpXJyAg3bpXrV+/Xq8+eabOHr0qHGNZf744w8loAl/p2nfHK+PLQHtJLHyz56ATr244XxoMHr8Mx9FMmTDmXu3sPj4Viw+uUPZr6d24uidK7JZMqWehwf2njmEUl+2VF8/f7kTFq2di8U7V2PxjlWYt3UZ7kVo+cCkPVLMnUNHRyftcPo0h8o/ORgvmm4asaqXwz7c/vjx47h3756q9O3haIi7ZCG6yZkQd3aR9JMb4s5RktITnRySFOLOGZIbncMejvZEO4OpJ9pWiDtnsNETTb755hsMGTIE4eHh6g3PokWLULQoR/s9CkNNdu3aVX2m+KagZg92YpLdE+0IZj3RlkLcaUGq7ImWRtquG2dR7XfGB7TMpxVfwvDnW0mhYaElYq8n2jcANYe0wdbT1l3lDn6xCGVzW4m65vX0h7hLkZ5oHR2dtAUF7JO0yMhIhwU04bb58uXDoUOHsGHDBuPSpx+9D+QZ4Ald4o8//hjDhg1TEyHt3bsXr7/++mPP5NSpU9G3b1/jN6iea0sCOiVJ8wMEk4I8/8UyZMdvjbpjaeNej9nyJr3RoVgNKSCTOZYrKgJjW/XDnz3HYGmvsUZ7+Pm37t9ajxFt5Gm/GrqI1tHReSpgRA/6URcqVMi4REdHJ7nw7U6/fv0wcOBA9WwdOXJEPVvnz59X6xcvXoyePXsiIsLgV0P3q+eee0591kk5Mnj7oVnBynilQIXHrGn+8iiSMbso2WT2zMfFolrBsni1Yl28UqGO0R5+bla5AdL5MO7gs4suonV0dJ4K2CubO3du9OjRAwcPHjQutQ7DvrnCGMjHzfA/i+udNY4jVDGYJX13T4/H1mtjXmp8nTv/WlzvnKnsoRsK4xxz4KOrjFha7qzRfYBT1DOaB6N6WNpGC+NV4L4srdPCmP923mYMGDAAnTt3VqL6woULqFq1qnLhaNOmDeLi4tRyCusiRRyYSI2KQ7ItyWbrd1xHk6xy93SXRR7y1TX/bNG4cWPUqVMHdevWTbL17t3bmEoyUYMHrZmTfcFMg24e1uwZJ8V8ot9p/y5Wb9oszyxLBO2Jf3AP7unSO32/WIKVSVyUobXt7u3rktcTMVFR6PRWG4wc+Y1xiY7Ok4P+xWkVf39/NYX45MmT1WdLMIJAeDzDGbiG+Nho5Vfs4Zfe+UrMApzZNDbiPjz9OJWbK4hHzIPb8AgIkvKPJaDGuLkhLjwEcbw+FHKu4u4tIFNWl1wDREcBkVIv+KeTisG2wEoWHJTImM+ZOA+2i6rpB6Ho1bkDJk6aZFxgnffffx8//PCDioJjgj3UW7ZsQZUqVYxLrFOqTCkcvXjU0CjQ+nR4iz4AAtL5w9vP0yW5xctx7/ID5W6WmIwZMyIkJMT4LXlwLMeCBY+HbEzWtN+O4kh0DmfQQ9xpw+F9e9FqwlwcbT8YyCqVitYwBE4RucPPyak4OSrZInzop3xv+Nz9fe0HebD8DQ5Tg2BSqE2jo2OTtCqi2StGv2j2CNmahCXQzxulpokYcElty1kBd+Dm31NRtM/M5E84Yg1JP/peBM7P7YzC3ee5YlyhOuYDH+VC+e+uGMLXaZxPHFh4amRr3Bo4CChbxmUaEZUCgJNSKdw3ftcK9oCuWwOsEtEzQARoVhHSWp8DBxYWkYw6Eum6gYUbN6LX9pmYOHuuYZkVWC8xUs67776rpuU3MWXKFHTr1s34zTblXyiPg0MPAnSh1boDk+3hr4DJrd5Hg6aVVbwNrfERIVDErS3iLMxS1KpVKxw+fNj4Len4+fkpt5kWLVoYlzzkaRDRHFj4jj6wMPl4eBoiMarA9rwPtDaG9mHNwr+W1mthHNlKs7ROE3OF+tfReXZgJX/79m3s3LnT/qRFUlyo8HIRrrG4aHmo42IQ66J9xEVyxkFJPyL2sXWaWGSEEk6xERGPr9PIePyqTmC57SojvBUsrXPW2AsdI+o2PNTyei2MnSquOn5ahNyn7GK1A5+tFStWPCKgyc8//+yQ61QCrOssHYezxjySSxEZES1fI1xiD8RUj3ci+JwwH+gznlzbs2ePRQGdgKe0ZJXbkMbm4Q0PaYV70z3MS1oiIno1NW8feLp7OHKLpVlSpCf66KGDaDV2Jg63/sQQCkhr2FNSTtoDR6QVxQfKEUwX1ZGzl/sLM0YZPnfq71ivQFLSZ1Pm9i3gxax6T7ROqiAt9kR7e3urXugSJUqgWLFixqWW0UPc2SZZIe6SUObpIe4cIDkh7pJa79gIcWfOjz/+iC5duqjP7DXt378/xo4dq0JKli9fHsuWLUPevHnVemuonuhPRXBz3hZHnzuejyPnIvcTRgBjm/dC3eYVXNIT7S1CoLx7Z8SlcIg7NmDeK1MfUdyvKS8S54ut625jnae7OzZcPorcuQugSNa8musPD0l/7eFt+HjEF8qv/mkkRXqiHXsKzOCrmXRiFMdaw4eNhROnjSXcD/enxc3DNJg2jSOWY+VBZvoU4fbQxbNOKoIF95O2pMCZDnft2oUTJ044NsApycQr4cdZDPlXGx6mmdjMZxm0hfVKL95iuubGAX5aQHcPnocaNyKXTcu0H4NlaaCYVunzNqPbPMvpxKbKbSfKZV4bU11myXgejtTAjhwC60qeh8lfl+lrlEecxKhXr17Gb8Bff/2Fr776CiNGjFDh7zhTIaPi2H37kxT4jPEcXOQu7ymZEwg/uTzezlzhFIGXsVGeUqifqwTq5y5uMPPPpu+Jlzmw7sXcJZHbPyPK5CqCBiWqon7xKppaw5LVkTtjNnh4unDcwxMmhXqiD6DV2Fm2e6KVAJUSjdr2+8+A36YA73wMdJXf2PMpdLQnmjEuF4yRZvUwKbzk1mRF7SOlXJO3gUGjgHvMCguVt6M90SzEmlcBrp6XfUlhxvQD0gMffg80ft0w85IlWJAG3wQaZrNRKeropBwcLPSk4DPAWc84+I8+zo7CyAEc6FS7dm3jEusktSfaQ57tk9+3woOzO5CuaG0U6joX8dZCr8pj70hPtOqNndIOIYdXybeH5Q5dQXI3+xrZG/a2vA/Z1N6030z7wAd5JS0LO5dyyd3LF3naTEBQpVdhwcXT4Z5oCujzc9/D7R3z5LrFSdIe8EyfDbnfGImgyq9IOsYNE6HOPak90Sznly8CBneU8ljuz1KV7Pdo2uqJZpbfugZ801My619JSxIzNd442LHzIOCtHpbrH2a5vZ5oaUzgo7bAvysN6ZlgGc/vdAXheRQoYVyRCFNPtL1pv9lDuXoB8C3jNcvx8xzk+cHUTUAhSdtaHjnQE71w4UI1IIxROMjZs2dRoEAB9ZkMHz4cQ4cOVXHdc+XKhc2bN1ttxDrUE81s4nFNF1sqxvr8LzF7GoCi205PNLPdz81bCei1q3djcIfZKFImNz4Y0xLFy+a123v9pHqilU90H7k+LvKJ7rn+RzSo/xqaV24kmaTxuXn5oOu0T1G7Rwt9shWXk04e/OeCgIpSOs0ZKQvkO0dWG8s0p+GZ7lwHrF8CLJIHee1VsevA2x8Cc0dLQfo54OvEzpj+1WCgSn0p6EVEr5H0fz8J1HhZCtJmwK6tqSm3dXRsUqNGjSdmtWrVwpUrV1TcWfYwO8LVq1cxc+ZMhwR0UmGv6p3da3H/xGZE3b6A6JCrCVrLGZhG+NWjKPHJNpT95kKClf/uBrLW6W5dpDsAhXvpoSeNaZ5PSLvcyIsoOegAou5cRKaKlgW0o7iJTru66nvc2DAehXv+iXKjrqp9+OYujyt/DkLknVua5JOCt8GB3cA8EaxB2YAIjXo92dlx8RTQUoT0OqkPll8w2J9ngGZd7Is3W1DzfDETWHX5YbqmumHQDKjoHqqzxbB5sjlzVPbTDuj4GbDxtghjqYey55O6TRoZ7AlPJlu3bsVbb72lBDSfw3Pnzj0ioMlnn32GPn36qMYun9nnn39evQ1KFhTQbE+WE5sgxnDUN8U0ItDND83KD0Ipj/bo+9J4BF+7h+uX7shlcOJBM8KQf76+vsrVJTnGBgh79K3C1r6LjG2/OLYwWBiwsaSxqbSfYlKPrGOBM0lE7kG5kJvuArkLGXqOtUKuJ2o2ARZsB3LlVy0k8BVD+35A+kyGngjHO70eh+lnyAz0GyUFl780W6X0CpLvdV4x1pYavurS0XExrDSflK1evVoNtilXrpyUwXywbMNtjh07pnrNXAHrmht/jUeRPivgGWA94kdycfP0VT3DD80PKs60k5inZ/rsGeiDE6PrSMPA2zmBK7+NuHIGt7fPRaGuPyOwxAuGfXj7I2/zUQi/dAA31n2nhLYmRIvQ2b8FqFRHyvGXta0bCAdZeUt1yDeTJtMi9J6Xt6TlZ5aufPaTdHdvAJqK8M1TWG4w47bJgSK8TVmgekOg10fGZWK/7wQipVIdOVD2aVicFDhYsGbNmuqzp9ST+/fvR/78Um9a4Ntvv1WTsvDt0a1bt/Daa6/h5s1kqF9q2fpi0lbCWbHcYhoSJTto/FZVbHkwAYfiZ2LFxW8QGqJN7+6nn36qeuM58UxyjJ0A7733njG15BMWE4X70RFG4apVC9aEG6LlfrsfEYYY1Ruvdfppk5QR0QmFhI3SgnVl6cpSMsvfqEjZVLbV+hpxH3y9aH4YvBeKV5Bl9itrh0hctlNMs/DUKn0dnaeYsLAwJaQbNWqEaNO4BRvQd/r06dMuHQh5+bdPER12B345SxnKpaSQxM1dipSn0XcfIPbBLVScEO70m9uou5cQdmGfpCPX6ZHzNHzx8M+kzfmzHtj3j6EX+pNvXdMhkVLXiedy7QZw6pA0CGoD/vT50ADVk2j8zH2YtGGOvMk6t/bt26tnKzAwEH/88QfKlhWhbgW6X40aNUpNysIeaTZoR48ebVybREwdWdZcH+1g61Sj4qPRZcD/pDr2kuSjER2pwVsAIxxoyQHNJUuWTJZVqFDBKXeHu5Fh2HzlBMr+MhjpZ72HBad24NQ9uc8suHolGbkPQsJDcfDSSXzx5w9I/15tjFo9B/svHkeYmj/Dfiam1OP1JEgZEZ2Qx3Yy26QzNbqxHYL32IUThgEZWuyXOcqWP43pHdsLZM4JZJVm9dN8J+noaAAFMUNp5ciRQ1XO9uCr0KlTp6pIAVqPJ2DQi/DLhxByZC3ytvgW3pn9k/4IO1CmGHqJ+ddgrhqU5yFl0oUFPeEZyGmA7TdQbCIZkaFUbeRuNgK3dy1G1O1r6th5vvSP9slaGFle6OyUS0oC90OA7vWB1n0MfsYaX2d1MuyJ9pWP5mW3K+C1PbQNuHEZKFnlYZ2XXKTBibf7AWePAEdOGfyoI0WBzv4OyCL1TqeeyXJJ2bt3L/r27YvZs2ejadOmxqWWMQ0Cpm/0559/rgYdjhw5UvPn0RFsXjZZGY0YzathnufHH3+Mo0ePPha6zlHbt2+fil6RnDzjb1Zf/A+Ddi9FxSz50KpwFSw8tQtFF32Of64ck3vEyQLF2xcf/zoO/X/7HkeunUWrKg3xz6l9qP51e4zfsAjRbETbwVWPU2ogZUR0akUVaLuB65eAN99LVmHzCMzNU/8B478Exn0BjP1Eaq2TwLe/AcVdOKGAjs5Twvz58/HJJ5+oHml7UEAPHjwYc+caJopIakQPe8RFR+PqiqFIX7we0peqoY0gNIeHGx+Hy78PxIWFHym7/OdwhJ7ZowbsaQoFxP0IhF3ch7xtxit3DmdhT3aGMi+LKM+GK8u+xKUlX4gNwP3T25D7tWHwzhTknN7ljzkh48hehkHmfcS0efv+EO6DHSjrFgMjBsi+PjKU3/fuGnx0teb2HeDPGUDd14CihZyvE9jS6zXCMBZnRHc59mHA8K7ApdPAp1OSPfkYn6Xvv/8eb7zxhnGJY1BAf/nll0rYaf08pla0PM/kpBUred00f1n83Wwgfn35PSxu0gcrXv0IQd7+6LT5J7mPnXzWY2NRJndhrO43DX/2m4LFfcZh1UfT0adeawxdMR0X71w3bvhs8uyKaN6rMXHAgBZAz+HA662cF9GqV/sUsGic4dUjB0huEAEdEmxYl0p4Ej0EOjr24CtRTh/MUFn2KhO6fLAHp0mTJmrKXe2Jx7V1YxB6agtyvPSJ9rMOCkwz35uTRKA3QkDB6vDNWRpX/vxczUR4//gOTcM/08U6eNtsEdI34ZNNmxCA9FBLV7wcfLIWwq1/puHampG4vmaUHLc7Mtdq43yjg9Ga3m8PrJpvGGvCWZW10ysGAZsxK/D5dKDDp4ae4fI1gOlD5GZsDpw/q20NyWNnXXB0D/DyO87XNyYCfAyDIHf9BfwwCFghwun4fuB/rz7uXphCPCsCOjXAWM+BXn5yraOlpRxhsJgolA3KA19OouIsklbfRnK/crI5To5EEwL9/BEWFan8pJ9lUkZEJ2g2B8WbqzUen2++smtTHiglBee7A7SZLpz3UvUXgflSgC0+BPx5GmjdG+jRANi3K9U0WVjA9ezZEwXzFUb+PIVcYgUk7RLFS8jngo+t08Jy58iHFs1bqGD/rmbd2nXIWyAf8hTMjzyFXGAF86FUqVKW12lhkn6tunWcmpY2JShYsCAqV66MWDuDxtgIpK/mxIkTVXxal+Duhht/jVWRLHyzZVauEB6+hmeHg/7c+erfEZ1goyxjT266Is8hqGpLZVle6IAifVYi/NIhJd61LC94GBHXTyBX08/hE2R5gFhSYW/5zQ3zceWPz1C4+28oPfgoSn15CGHnduHE6FcQeeea5Jdx46SiBGcksGYhsPqKIXyoKQa/cr2QBfzsLByvUukFoOEbQOOWhr+/nRBBugEY2dPgPqIV7PGe+620nIqJYC+hkcCVK/vveuBLaWz0GwssFeG/8iJw5j/gpbLSSOAmrq5QUw/Pzpkm5uGZq09evth58yzCHXC1cAiGYzTHwxOxcXHoWOM15MogDVE7PM3XJfXEiTaHrfXeTYCKUrgNlILB3iADvq1wdMZCFs6snN6uBuQqAAxbIIWynfd2bMwldcZCEzy2r7oDWXMBHQYaKoDE8HhSOE50qeJlMP6fDvBPTzWgPTcu3cHA1tOxaM8XeBDBwQfawYo5OjoGg99egAXTliF79mzGNa5hzryfsG/aCox9+2NESGvcpAt4pcw1gvl3W+sS4+sbAO9uVRA64R+HolEklUgpAOfuXQO3GnnRq1sP49LURbZs2bB9+3aHBhMylBTdOOiHyEE5ycFWnGiKw92dvdWAOforP8RNxU/mDeidMReKD9gGn8x5Hk9DLnSyZyyU315bPQpRdy4hb+vvZVcWlLRsYy9OtDlM4s7eP3D6h2Yo3GspMlV4xe44Z3txopnm3YMrcWpCUxTo8BOy1HgnIc2I6yfx3xfFkKPJJ3IOX1vsxbcbJ5oCuW09YM8mg9A1redDxHuE8cMZIm534h8mIjkzFnIfK+YCM4eLgD9m+bfM8qTOWMgB8zyeTyYDbbra74lmHtiLE81ewOpSp9QT8T9hycO6kudQSf7HKFd/nbZ8Dry1HJyxUAuSNGMhJ1ppIHZZjLOK28srdoolccbCS6dvonPtbzF2aS+UqVzQ7m+eaJzo3rMlD2z5Msm1pn88/4rALTrvY1wLC8H9TnKvxdnoKRY90uOvmahf71W0rPyibGsjD1S0GklfNMqUjYvRe+FI/NVvCuqUoG+/ld95+aDz9M9Qt2dLPU70UwELljgp6d5/HciUBRgiBaWrZ9JhDvtLafiL3MyhfB+ZOqBW9/b1UiOVXWXu7m5Stlle55T5eMtfqVx4PVMA1o2eUmm7efvATwoFX6OZf0783da6xAZJl3hbWKeFcd9eIrRcIdC1gKP6//77b4cENAkNDcWgQYNQtGhR4xLX8KiAThkoTj1804nwFuGnVS+SEBN6C9kbfYygKvYFtKOoRoa3P3yyFDQuMeCbvSgKdFmM2HAnyzs+33Lv2hWnWsP95S5sqCu0gueybwuQPQ/Q3gEBnRQYWvV7o4DmIasCS6xiLWnRuCCSiU7qQhr156RR/eKy7+A2pRPcJrXHmiZ9ce/dcfKs2xDQScE3AOl6PgePLhXh1qUC1h/bgZgf96N2sYq2hfczQMqI6ISyyE6hxNY9jT0r7G5UNYpxmRaESYHCWZ38pZk76jf5KwV0wj7VFs5BXyGmYzKm+0BarVcvGAZ/sLBLw7glQbUmtfph2u7JughJ3VMKkux32Q7AZ8OV6acQjJHKWdBiTNMV24Exa+nGsXv3bvXZFcRFxaPqzChU+TH8Eas+PwyeAZmQvmRDVJx0Ed5BFnqhE2Pr9uSPjcWcyWIehOL+sQ3wzpQH7j6GxpWzRN48j8t/fA7PdFk0E9AKaYnHRYUZQtyZnUN8XCwirzsZcjBUMm72RuBgBHAg/KEdF/tfe+DHf+SzRs++HHNCHcC/fKyGdAQCM2hXvPAFZK8XgTLVtfdTZsi/0ycN++A5mM7jwX3ZV8r2mjoN857HTjNh+s7zsoO9y8U6xsNkHu6G3clfD/XPgR2kRuQ5LJA+C9a/1h/xPWdhb7NP0XT1BATM7IMDty7KSZtnZvKIDw9F6PS9iJ19GBdGLBfdHA+3TuUwdt0CxDrQM6/VY5QaSZm7JqGuT/jwOLzO/6wCNi0zTJN6/w5w6RSwYQ3w1+/OxwZlPMMJnxh87DiSeY8U0BtlX9wf/x7Y9uiDm1RY37G3ecV8YO8WSW87sFsK+q+7G/zrWHh62Dj/VAynSfWFN+7dfYCYKMcKZUfP1DztA9tPIzYmVr02czynUlme8pUXJ1gQNXGL97CWQpdpefuoQuvgxeO48+CeZCD9hdIuDKHFXmVO1GAPDia8dOkSXnjhBTRu3Ni41BW4IVaKC0tGdyv27sTJZ4dqBiuXn2Hs7tHlY/s83D+xBaGndyDkyAbc2PA97uxdAv8CVYxbOk9k8Fl4BmZF5ufbKz9sLVBvsjLlVZPP3N79M+79twmhp7bLufyLm5t/wNWlXyCg0PPJF+2815nHLPYTG/0z2WHBz85y7zawfB6wXcrogzuk7lkn5fgPwHlpBLTomTTXPWuwXvl7reHz2MX2XQ6TAvOpQHHDuJudxnqH9c+6FcCJ/UCd16y7gqQ2+KzcEOM03+vFeP2JXBpIdY3/xOzU0VYeNwXrmp0bj0p1v1+q/f3Yvu4IIiNisHvjcWxcuQ/rf98j9U8a7VXlA8mBf2IVsxfC0XdG470y9fGyiOk4NnKdrIfUQFHjoMK8WXPht4+n4+eu3+DDX8fiyFXOjGMb5/aeukk9TS8O4Oj7MvDBq8DnbxumYt281OAb/dEbhjB0znDnFvDzRIO/9dBOD/dF6yf2TS/nBpGwQs2Y2SDSu9UzxDXlPu7fBSZJAVqiNJyOCZrCeEmx4yUFz5a1hzB20C8Y3GEOrp4P1uyB8JOWB9Me+fFCDGo7U+qBMXJpfsLiaRsQI2I6KT3fTxKlpShm/QOx7tC/+PzXcRj423jM2bZcltsXh45CX7x+879Gp5+Gosn4Pnh7xmcY+MsY+uUYt0hbrFu3DlmyZHG4R5luHIcOHVIzGaZPn964NGWJiwxFnE3fRMeJjw7HtZUjcGJsA5wYUx8n5W/kjVMo2ncVgqq+oongZU8xfaf985aHb3bGhzaucBZJJ6BIZRTttwGRN0/jxPcNcVzO4cSYeriz73cU7LwQWWu/o31YQMIOES16WFm80E+Z9QJFKK13I4OA/uA74M13Zb0GGcbHs7c0+mr9T3s1wV7G6X8DZZ8HOtcy1D38+8ePUgcNAb6Vv+FaXXQXQ4Es7Rhw4kUO3ZCqWtFHrJ/YJDEnijrWN5+0mibV/SSp9idheNd50oZ6gDH9fsF7TSfg4zemIPxBUgYwpFLYMyzP/eeVm+JqWAjmnpCGlQYzoCZA943Qu2j5/P/wQpEKxoXPLqlHRLPVOWoJ8PWix23oPCCbk3OAUuAOnWs5/RFiHBxiavkmB/q4tehg8LPmfr6YAQxfAAyeA5SrrE2PRgrC117LF27Du3VGYkinOZgzcg02/bEfD+4zk5yvCfjybN3K3ZL2T/AL8EbjNlUx6Md2KF4xH4Z3m4ffp29R/tRpATcvb8zY9Ate/bYLWkwdgKl/L8E3q2fj5A1tXqURjoSuO7obLty+hsaln8foFu+jU83X1H7aTJIaxofhC9IWFy9eREBAALy97femsyeEPt2MH21r9jRXwgFyhbosRu5mw50WuPx9pkpNUbjnHyjYYS7yt/sRhbsvkb8zkKF8k6QNRrSBm4cXcjT6WKy/Zmma4HwtAQXKq8GNhbv9ggLtZ6hBhoU6L0CWGm1UfmkO02z7IVBU7gFntSF/nz0nMPp3YNh8Q6g7lt0Dvgc6yjOlBuNpoHqZ718vNgwodKaOsUagNCi/nCn1569S78jfIT/J91lAr0EAgxc52QuZYvCZ4guYoWJfJ7IRYl3FnMi/cLkQQ37qINV9F6n2H7ehczvC1z8NvtmjD5WFUHZ8a5ZJ6oUq2QoYChxnSNwZ5OGJg2cO4fi18/KEpJH7y0WkjIhOKOxslHrssWB4oSatH7f/vW3wY3YGHz9Jp63l9F8Sq1rX+ddeLCwzZJL02gAvvwnUe0WavyJu0piAJvHyL3fhLBgw6U1M3/wx2n3cyLiG2K+97G0RJ/+KV8iLcSt6o9OgpnJpnpcsq4633n9RFXS/TfsHp89ckRvU3gNq/1hcjoi7Qllz4/OXO2LrgJnKiIdyEFUfnYaDNCe9NQCz2n+JN59rirfEmldrgksjV2Lx7rX478xhzQR7StGxY0c1ucqpU6fg72+7ERAZGYmuXbviww9FQD0hlPCt3AzpS9R13E3BxvWPk3LBN0cxBFVrhczV35S035D60EPT3luK6Cw128Mvbzlt/aGN8Fi90meVBsHr6hwyV28DrwzZ1bm5BGqBctWBoGzaPFtML6sI6aZvGcps1hHMfy0bHEyvSatkT8FtF15XDl5v2FzOQ87hlXeA9Bm1PYeUgHnDyB3/E2uSyF4SY6enHS1oK3tj5McvvFROqvtqUu0/bqyDPL3SVhlKTty9iu/2rRStIY0pDobmm0l57ost/gKZfQJQOjsHyTrx8EtaC7cuN6TrK/cZLS4Wkzf/gnSiqzL42ddmrrjtUwspI6ITdJAdQcQHxJppgaV0TaZVBcO7xTzdNHr3UESXrlIARcvkQcFCORGY0Shy1CW03/K0L33jkTVXRhQtl0cN7GB4IRp/l6dwVpzYfxFbVx+G/cEe9o/F5cTGoE6xSqhWsAxK5y6MvJmMYRw1PDS29svmKYpAFmAMa8VXdjHRyJ0tn1r/6Z+TDL7YaQz6REdFRaFmzZoqdB39ni3BXui1a9fKvfJkKzkK0SSJUfsPQkKarhC5RKXrynIo8Tm4uszTeh9My7zMdgWurgsSn4Orr4GrSHwe5sbrbgd7jxs7b0x1jSVLe7ghLj4ew0VEe09oi8BpXeE/pQu8p3ZBSFQ4TrYZDuX+5AzePhi8Yhq8O1dAQJeKCOxaGR7dqmL90Z1Y2GUE8ma2H7Y4FdTSLiNlRLROikGxwYgHEeFG42fTd+NnEi+1XVRENCJtWFRUjGwfhci4KNFrLMWA6MgYREZa3t7coiJi5FjiEQnL661aVDTCw6JQqkp+1PpfuTRTsLmz15lwgIerajCVdiIopoVxrT7kxVGf0xL0h+aEKRcuXMBvv/2GX3/9VblumMPvr732GjJnTtvRbXR0dHS0JR4lMubE7U6TcKD5IBRIlxmDKr6MqK5T8aDzZLXe6fooPBTHhv2JiIlb0fWFZsgXlB23vluPU9+sRPVCdKtyUX2XRtBF9FPGqlWrkCFHBvjl84N/fn/45zOa2We3rG64FH0BL5X5FLXz9bNrz2XvixmT1iB9ofTo9sY41PDtZXE7c2tRcyguBt9G5aw9LK63Zi/kfh+9Xv4eFWoWQcF8OUVCP9sPqE28fTFi2VRkDsiAAnmKsAVlXJE2+eCDD9CuXTsMHz4cN27cUA0+Pz8/fP311zh37pzy8dPR0dHRMUfKxZgolAzKjUNvjsDAKq8YOleMHSyaEBuj3hKOfXsg/huxHJnSZVD7fNYFNEmhGQsPovW4OTj09udA1kxON4weg+HlSkh74JSICC3CHiWGPvXTxhg+d+2nvY8zmzLB94E66Z0WCvNmzcPwk8PReERjxMo/rfGWf9/7fI9ekb3kMmp/6/B126kFJ1D2Sia8+9FLqic7MXRtiI6JwactZmPBVNfPWDh73k84PGM1RrcbKNfe/mipiOhI+PWuiZ51W2JS+69ge6YpwS8A3h3KImrKTseFsAjo3Sf2ourX7bC6z0Q0LlfTaqEZFRONWbtWIKpaDvTp0cu4NHUzevRo5MmTB+Hh4bh//z769u1rXKMNgX7eKDlFrqUr2h1uwL2jW3Hrn+ko0nuW5gP6mH70vVCcn98NhbtyxkLjcg2Ji47Hwf65UW7UFTWDo9aPOmcsPP1tK9wa8ClQtoJrrgOpFiAVkFQKUrxqCoMdrFsJrF4I9J8AZMmofb0mh44SklEH5QZyhY8575tN69Fr1xxMnD3XsMyFVKhVAQe+PADkki9aV02M2jEEmNCyL+q/WsklbzA50L2Ee3sporWvV23h2IyFySQpMxYmB6+nf8bCFBHRu3fuwNsDvsSJXKXkjgg0LtUQxuad8gXQc5hDIifJcMDWvn8MnzkLlNYPEV9fMw723NFOi+gFsxdg8OHBaDC6gctE9GTvyegS1cU1Ijo6DpcWn8fzUbnRrGMtRFkY7alEtLSMP22eWkV0lIjoGgYR/a6I6Eh7IjqdiOgyjotoHz9sPbIdNUd1QucXXsf0jlJ72DiutCiiSUhICEaOHIkRIzg0X1vSp/NHunr95ZMrij83RAWfRdjF/chUuSXUZCSa4oa4qAcIObwKmSq+YSg/NCZenq8bG8YjW/2+anCi1vnk5uGNu9vnI+z5GkDWPLLERdXQrK+BbmzIatySYcvl7FHgzH/Ac41UeEvNz4GzNbJe6yLmCuHG++b0UfQqlB4Tp003LnQdBYsXxLnK56QFK1+0vtwcKrEFaFSyKgqUzoF4LWebNOLh6Y5pX61ALMekpCBpXUR3ERFdRxfRzrFv9y68+cXXOF6yttRemWSJ7JJ7NS/7E383x9Y6wkJ+kFygEQvlRnNBDCHGWPxnmeFzLb4q0fghYoEceg/4ts8TE9EMacdeYHskVURT8DJtbutI+gYRfQ7PReTGG51rWxfRz2pPtBRKm//bigZjeuCzlzth8Os97VawaVVEu5LAAD9kaT1VyhaNKw2FOyKuHUHoyX+QtV5vxMdo3RXtjtiIewjeMRfZaneXB8IFIlrumUtLPkaeFqNdI6I9fXFzzWiENmkK5C4kS7RNP4Hh3QxhRyO1nOFEYMfKkd3AYXlmm7wJ8PW26Rz4x1rdlpR13n5Sr70NfCkCSus6h7DeObIHvQJDMXH6DONC11G0TFGcanQKyChfeK5JIXHemMN1vEWXA29WboAS1fNJI9Cwg8Q/s5WMPTy8PPBlu1kiol3QoLGB3hOdukkxd45W42bhcJvPgKxZjEs1hK8bS0uBcFxuAI3LSgUf0OnfGT534QAuw0fN4Gu14LtAvUwpKqIpbj3lX4z8u3ngJrKUzyKFjO39OyqiKXS95F94ZDhOLTiFrNWyInvp7Gpftn6ni2gbhZhU3Ecvn0Kpr1rio4ZtMar5e6KfePPYvma6iH6cQH9vlJwU5RoNLbX0/WNbcGvLdBTuOccl7hwx90Nwfn4PFOqywEXuHDE4NCAvyo68BHdvEYzOFUuPQXeOM6Nb4lZ/eabKVNI8/QSeCxCh+wCGmM8awp7P9aLa1iwCPhon9Vpm7c+B7hwlJaP2yw3kis5P3jeb1qDXnvmYOPsnwzIXUuGFCjjwxQFDGDutnzvJJgwDxrXog/qvV5SaT/sHmzPplnbvIEW0LqId5hkQ0S4ofi0hpQtfr/A1CAsDVxgLMEvLtTI+ODRL6zQxVzi9WcYkcE/+chLTMk7DjwE/Yu+QvUpQa0Xk3UgltmcGzMTmjpuxpOwS/OD1Ax5cf6D2r5N07oTeUQK6R50W+Lb1RyKgmY+uUh9PP4z77DJjz6E0iC2u08SkvJAWQHxsbKLlWhkbu/wbnWi5hsYWjCvrBBqxtFwLY32gzkGuhaX1WhivgqXlWhl7VVOoOFadJ5aOQSuTSxEXGycfY11mTwy+DXKReUg94kWXWE9piTBMqsbm6e4hDf2nt85PIRHtBFp3lDM9S+YK2KpjIeWq9JMBZwo8+uNRTEs/DX+1/gtegV6ICYtRPcBaER8Tj9mZZqNkz5LoFdML3eK7oXdcb/jn9se8HPNUD7g92COfenLNPnFSmcZIpWowQ14yficrWi5z9mwiY6IQ9EF9vFymJiZ3GCxtrkiz/T3Bwv1px1Q+JDZXQFHMa+mK9BPS1u45fwSVvigZV6SfOO9N5gpUmS3noXWPHGHesD5wRdqEeeLK9FMSXl4WazwVV11qEdyxYinwMt4pwiQT3Me9CfcfOmpvE97BpGP/oNmkfnDvUAbuHctpa++UwNR/f8ehg4eMZ/P0kXpFNAuy7WuBqV8CIaZJ9J2ADaGr54AfhwKzvwFmjTAMOqEtnmBwCdEC7uf+HeCU3DS9GgHVpYU39kPgzs0Ua/Hbgn7JOevlRMd7HdErrhfaXtT+FYubpxu6x3dH7e9rIyo+SgnIyPhIdDrXSa0/NPWQEvPWuHPjPv5deRgPIiMky9JAC9bbF5/8NhEZ3quDdH1qIUu/BsiSLiMW7FwN326V4dWjupoeNdm+q14+KPVVKxXKbuuZg/DpXEHtx2QZZb9qRk4dTYmLDMWV5UNwbfU3uLpqhNjXCeZm/fZNEnTFiLl/A2GXD+PkhP9hbw9PXPz1I0TduaRNeSFphF08gHNzu6m0T056Tb7vM650Hvp7R92+IMf8saTvhdPT2iAq+LxBUGsBX47NGSllNstqszJ7mtQLYRr5aLAWDA0x+Dh/8Y6U2V7AZ28CV85qU0PyLSPrnq97GeqDTyXtA1uhBjtqcY0pAs+fAH4aBdT0B95rahjwmAaKzseg69MVMQYLqS7WQUxkACgBNHjmOHnXlXPB2Lb6MNpWGYGafr0xf8x6WXZLJEfqbHwEyDHHffAz4nrN0d7eW4A+JWtjWZ9xiPvpKOLmHDHYbONfS9+Tsm7BKfR44Q2UK1/OeDZPH6lTRPOo9m4Gejc2iN7ga84XCPw9CxqK8uWzgT2S/u4NBjvwryYPqNpHtFQeA9tIYdxOxI8UxrX+B/y3A7h+0bDNE4aCNmPhjOpvtPyLidCoskuEYWao2IfXTf7SH5qc+eWMXGLrt15gJn+Uq1EIfj7e6jhTPTFR6FmnBda/Pxkb+k1R9mfPMVjVZ7x8noq/P5qO/EE5DJVdcpBK+OcuI7C011is6D0OGyVN035o6z6YLPed1o63OrHhIbi6/Cvc2DAOoSf/xv3jGxJMCz9kphEVcgPHRtbEhbmdZUkcMpT7H8LO70LoqS3O70OeueDt83F0WAXE3Lui0naT5+nosEoI3jHv4bOZTNiQuL33N5wY2xDhF/ZI+q8gLuIu/htcFrd3/2wIjecsFNETBwJbVkpZvelhmb19nTb3PPPgjii0D1+Tcru1ocOGg8fv3wVmDjf42joDQ6/9ORN4paAIaRHlrA/C7gF9XwK+/wiIcNLPlWXKqvlA67LAzvXA840kzyTTWpUR8fmLNvVaSsFrLW0LdBOTKhO1xDhec7GYXB5IO8SZ8/GUH2/76wj6vDQOc0atRZacGfB8k9JYs3AX3io/DMf2XjBumbpQtUZ0hMssOi4O4XyWOPg2wmjmnxN/T8o6sajYGNXr/7SiQVXgCEksrTmr3vpfjaO2Ba1GznBENek6GJgvzds5UujQxslTGqaBWGOBOfkzQ6/zvN1SCK8Cpi2TQkBEemk7g2dcMMLeGk9CmLJHOeyBPFTCi7+8mCCoLeHp5YmMmdOpXgOrpFx22UcKoQLZ8uD5YpVQw4LVKlEVfhxpbxU7JxMfh8qFyllMm/Z8Ubm3noZXuKkN4zMZVO0tlPpiDUoOXJ9gcRoMYfCQW+Ly7wPhm7MUin+yDSX6r0bxD5eh1KC/kfn5Nspv2B6JZ3c0hyL33My2yNNyLEp+ukKlXfLz5chUuZUsf8e53nTZbfiVE7i2chiy1OqCEgM3SfpLUbz/WuRo0h+XfxuAiGsXNSu68f1yYK4IZ1OZ/fM2SCFhXOkEPL5VC6S1cR2YIeX0rNVSZi+Vv2uA4T86Vy8w7atSF7AR0OlzYDbTlvpgrtQL7QfIOUyUG0CEtb2yzNZ6PvfsPa/ZBFgk+cP054j1GiGNglZAOuN2aQEWYYx2+LUYe6KniTFoCKPviSTAeDEnGjWsT3ZvOIaRv3TFvA2fYcbKjzF96UeYtf0TFC6bC4snbUB0lGs6lVIcT/ojO9sCtIGHFB6+AQ81lQ3s3d5pHa2KODskoSCi3x7dH47sAlp0Ny7UGI5y5aQsJqO2c1bE8ucPpBRY8L0UvlIoe8rNxbeNTJ9/7VWIqdwvyynk1Hzl34a3NiBLpSxIlymdHSEfL3WDnfxIbdnFyowuSNbMzvnaxVKa5qajPcbLEhcThVgpMmKlIjeZs1DA3tm3CXd2LULeVmOk+HB7mL7sK97BS2rTn1NWMTxdjpfeR/Q9Y9pSHvnmLZ+wPrmwuIy48h8irh6Bf76KSvAzfUYiyVKzE6LvXELwttlwY++iFtB1w7zMpjlx/AqW2RfOiOj8Bnijqwi4HA/LbBo7iZ2pF1i7njsm9Y1kTL+hhglfmC7rm4Rn1oGTsLmJrKQrV49hwF35yvRvy7L3RbiTgT0NnTtpAYro4mK8PeV+TbgObLCyveSkWomMj8b7w1uieJl8cpnDJekI9TeDpz+y5w3Cyp92IDryKShLRUD3+2c+Oq2X1oe7CySehyf2nzuKRiPfxZ5zh+UZsb0PZx/T1E4KiegkYHo9NWmtHJ1WJXAi2CvI8EHO9MQkhh2NQztJgSUf8ktJwO/sBeDf1JfLKYdcTj83P6ztvhbnl55Ho98bGdw8dHTSCO5SKXn42K0rkgRF9N29v8EzMBs8/DPCQ4QOe6YZ+k2zrhtJh9E1zkxpK/sxLPLwF31ycDm8sxUzLHAGqaDdfQIlf+TgzWpKDmB08/SRxgBVnUZwpL8cu6ZlNrkbDGTNBbzU1pDvLLNZN2gBi7kqteS4JdFPOhgmGSGs1sJFrddrDmTL+0jeJQumX7GsYX8KORGTp8tfSwz7SytQSCeuHpg/PB9n9a1kS5Qo8sTh75g8/aEz55B72RWiMyWRRl/Ig7sYe2g9fj27lwsMyzXkSvBVtJr2CdYd2YHLd26ofT7LpK47hoVXnQxAt8FA7iCz1rrGfNsHqJodOLLfMKBQi1zgfXTpNFCuBuAjX+rlByrICXVsDFw8m7YKMg3xdvPGX+/9haNTj+LNM28iXT57vdA6OqmLm39Pw6HPX8D907sMPasa1RkUmbmbj4JvtszY368gdndJhyNDaiLmfrAmPbjszS4z4jxu75yP0z90U+Xcf4Mb4cGZbSj5yTaH3EXsERd5H9H3Eo9ZkSecE8xo2er4dTLwemVg/3bDK30tklbiLBzIkQ8olhXo96ahzK6Zw3A+zl4Dpk9beABYPgeoX8iQbu9Whu9v9gXSp+eWzkH3wcH9DB02JkzHTv/otA5PgSL6VTEN3KgSEymJhgSH4utFXeEboFWEgSeETwAq/jYcB1t84bKoTaduXsTFO9eQI31mvSYXUo+IZgHQtLQckQfQ+T3DQ6M1phYTo2fcuw20rSSiV5ZtW6+NyOVEHB0GSkEsiTHuYr6iwPE9wGtSeG5hz7pxu2cEDh7cO24vDo8/jNe3v470BTWoMEw8UmmndZ6qk3l6MF4WCsKwc9txfORz2N3JDeHXjmt2ybwCs2Fv7zxwk/LCJ2sRRF4/hgMfZsHVFSM1EdI+mfOh7IhzCDm0Anu6uCGwRANUmhQBz4Ag4xbJgy8MA/JXRfpSjXD/2F+ICQ1RPdCMLx16iqPDiEaZxLKUA8xPihjtWAMoK+nu3Oh88gw5d+uKtATkZAa8D+zZBBQoIXWD1A9VpLAe/ZHzrhDs9MySE9gnH+j/XFkOOiIU2HQdqFTbsN4pmAliR3cb/IYpnHjffNqDK9M+rDMbiuUV+5+YxiLaWzJr+vBlOLT9DIJypNfqjn0yePnipd9G4GpYCMoG5WZT1rhCO0Ijw/Da5A8x9e3PEBFjf+KxZ4HUIev4iu6UFDA3pUA7eM/gi8Zlplcr/OvskbKweq6+FDZyYx2KEZOn8ZQsLFEZ+Oh14LYUnM7uwy8A6NEA2BAMrDsN/L4f2HoLaNUbGNbZMAr8GYE+nkdmHMHW97fipRUvIWf1nA4/1HGx8bh9/R4uXLiBi6cs2OkbuCR/wx+wpaV9QZEYd2l83X5wDxevX8SpG9rbtevn1X7OWFinid28hJvScIy352eu8wheGXOh2px4VJ0VLRaD5xbFwl+E45EvSoiwlvLDyRrX3Tc9TnxXF6UHH0G5USdRZuh+lB8bjKz1+ighGh0iDX0n9sGO4NAz23Do0wJIX/JFFOy8CHd2LcTeXr4Iv+xkCDS5lXyy5kLW2j1EoK/E/n6ZVQi9fX0DcW3VCOR8ZTDio1mQOwmFIcvqwyIOWW7/J2U2Oyq6S1l+1cmIRzGS3nlpEG36HShSRsrqq8Cve2RfUq7UeAnYvFTqIjlRZ/KJ9diuDUA1UeOlqgJ/ngGuyPNe2Qf4bZoUdk6qaA7w2iB1DBsYFOjVREFX8ZZ82g4ULOm6t7muhvlG3/G3xLKKrRajT7mGsI6aO3EdJn/+J75f3htFi+dJgdrERbh74NStC7gWHoILb39tePi1RvYR2Lc2Gpaojgr5iiPWRT3daQ23+BSINH700AG0GjsLh1t/Iq3yHMalRlhA8QjoxlH2eXlo3jf0EHh6GaZUXToTGDgFyJYbqC1NUUtHyzcw5eSmOSK/MwSAcBBJLEAOoKRY2eeAX7ZJrWNcZY4cCmaMMnzu1N9ya5iuKG3rGgbA/LRLzstY8rIn47vPDDFOV102+N8lhvd78E1pcWezPVDIARyZ9puFhynEXEx8DKa7T0eB1wrg1T9elVOLlvZGnOSM5eNwZNpvpn9i3glsfGcj6s+vjzJvlVHpmrDlE81JX45PP4YTQw4jS/6MloWf5G2cVD7Xzt3Fsf9OIHv27MYVrmHRokXo2rYDSuYtbJhARWM8pJG489x/qJK/pEvGl3JmuLtRYej2YW98/NHHxqXPNpz2u8T4pE77HQ/P9G7Y8aYbgqq/g8I9frI8pbc8+vePb0LwvzNRqLvlbRj+7cz0jsonOverQ+DG0fQCfaVv/TsX52a1Q9H3ViN96caPl3mSfsz9W7iwsDcKdpov9SUVx6OwDg27eAhHhpRDjqZfIP/bg9WARfpEn57UVU1JXumHWNnOcmUbFx0h4rsgyo44K8f6qM+zOewtZx7e3vmzHPcM5Prfl/DPW15EdVZkq9sT+d4ajTgLHVZq2u8xzRH80QCgdDWr6T8Gi1WWx83KAh2lXG3cRi22ygtSMO9/YLlcp4he+L0hPvQ4qWvM6w6K22qSrx+PB9r1efzNKLN8w5/A2sVAvzGGei3xObBH+IDUBZ1eAAb9CLR5x7APvnWd8p0hxN3P0pgpXMry+bNOKSv3xW7JQFtamJeQtmSGQbC/0Q2oX1saBpJZzzUCZq6xXC/yN5tXoteBRZg4y/XTfpd/oTwOfnrQ/rTfvL7XxHqLsf6cJ2apzjWHLj5SxY5t3gt1m1d4zO85MQx3t2TGZgztPBfDF3RGszdfkCyy9DA/hNN+l3fvLLdGyopHu9N+S314N+IBXlkzCV1KvIB2xURHSQHgP6Mnwjr/IHlt43gdnfZbyoB5//yOsevnY8+3a/DPrrVoOvE9zO04FK9VlAattX3o035rhVFQWoKr+EqtnVTubDlvloLp72WGv2ePGLbZs1G+/+GCo5Wdc/Qv4QhnRwtyS/A8GDw/i4jkxErIJKht4cg2GkDxfGv/LewdvRe7h+9W032T2//dxs7vdmLHFzsQdi1JLZFHoIA+s+SMEtDpi6RX039vG75N7ctk3MYW6TL44f3vWmDpjhFYsmvIY/bbziH4ZfdXqFa3tGzt+nzja6s+9Vpjx4hl2DVkiea2feQqeLl7YufQ3y2ud9Z2f7kYn7/SGX7pWCvrJB9pvLFnVAi7sMf5zp7YaPjnrww3Dpozx1QhObADayHu3ESInBzXBB6+gSjQdrCIbvopixa7J5qt+zQl2hlez52CxQlUFBEp7jI/1wolB6xBYLEaiA27K8LbD4GlGmnid/0ILFoprFheUzA6A/2FS1WRNEU4JM5qESWKi6eSX+9Q2E36VDJdRPDLIiDYk8r8YPH6SgegRCVD5A572CviqHuYbstOwJj5Iv7N3ERGiMh3YBepBt6Pl8TeEysiRgGtYWc6q+Z00oqZMnSpEtAjf+2G5m/WtiugUzdumHn8X+XGUSdXcRYKxuUaIWXF+v2b8c7MQVjZZ5xyh7UVWjMxrq+hnyyay9Ikw4edvbM9Pwc+GwsMlpYTbfhEoFFrwza9vzbE7NSiQE58RU1xNDNmMRTQyYUPes2XDROr+JtlK3sjTPPGp4K7iQI29GIoLq2+hAsrLuDSmkvI3SA30uVJh7O/nsW5P84h6l7yfZ2YfvD+YOSqm0uleWruKbUfc7MnotkbHxkeLe2bcBWGyKLFRiAmRusa2jqcdlv5MrJydYGpXn0Ly7WwqAipIqKjVL7qOI4ln2R3CjiBPdGOhqGzhke6LLiy9AvEmfUwUTerXmlpVHn4ZTQuTR5xMVRPiZ+1eCWwSZwW7hZEbivmBUPccXe3ts6Bd6Y8yFTJWREtCTMihznsAb4mzyEnRWn6jmFZcmHWMNbtwW1iRwxpm2CM3UDJ/1dF7Ca/OJQ0H39LoOq8bEFAhsws7NRpOgWvJ9PgcVKgs6086gv5n5BLzsEkqFM7fN5uiA0So4AeLGZspGkBszrILRBfvTcbU75YivEr++DV5jVUmLs0i4jZGyKel184iEk130T+DNkNJ6oZ8pBIep3nDsOUtz9F9kxMP63cUClDColoOxeVq9kQZCFsMt7X0cZ3OJGygMuchTcXz5jCmcY66vVKUghJpfX5dOf2wePvLE8/Z7rq8SqQSb5zHN2ho8AfM4APvpNlNtwONL3xrUNXitwv5lZuFg1/a6is3rx6qL9Qvv/eEC+veRmBBQONWyedOPlX7sNyKj1Tmqb9mIzbOE3KZFeSUEKYPWR+cnPRP97b17DMLkk/mUf2paM98jze2bNUhZ1LMMnqI4M5ygnI0egjEanqY7LgZC25Xx8mD2QMLv36sXJv4D4ig68rN41sdXqqXmp7t4a1hlG8pF+s3wYRtvdwfsFQeGVwU+l7ZXTDyfGdRfRGIU/zUU5NGkM3IQpPU/54yi1/ff0k3Fg/BgU6zFXH4BS+UoH3aWkQhaYym0UHJ7S6fAbIU1i+OAGzLp+oNUZUWrPQ0HPMfbDcblWaU6cC5Sskv/OG588ZCuluQ7dEFqs8F9Y7i38Edqwz1D2J2zmJsXUP8Pqv+92QJo89i9gIyR8OxJy3x7IbR2rlshh7oBkrWg5fXQc2okzX39iATS4Bbj7o1uo7LBq/ASsufoOmLz2vlrNnmubnzEwuT4h7kWGo+eco5EuXGY2LVJMHUVoiDOFLFyzeWPwsjXI7xYh1JJ0us7/Ey2VrolsjabR6Sx75pkOALGdnmD/3Y6cOSva+0whPvifaGixYYo2lsBYtH54pR19XlISrSIlTOQNQRp7OY/uAzffkgZXvzuyGdwr3sew88M8yoKyUAJWDgJalgLqvy99ecoNb6JV4Anj6ecIvux/8c/g/bjn94e7l3G3hndHbctpGexrh5XcLyIhXv+uOTN2rilVDt1lfyDLOW6s9bv4Z8OI3HRDQWSp5K36tOs4ReecSdrZzw55uGZXt7pAO94+tR7nRN+FGVwBnagf5rYc0tIr0XYnbO+ZJ+oHY0z0IhwbkRroiLyBPq7FW/ZUdgUVmQN7yyPXGN7i67Avs6mA4h53tAhH87wyUHnbK4OvsBO6e7ri2chR2veuljn1Xp0BcXNQHRT/aiIB85Zx35eDp09WvopTTLK+riqitKZ8XjQfGShlraXxJUskoadZ+BZghDZrKIgaqSpldXv4yXOkfp5zrWGHPcNveQOEyIgo7y3lInVBN0i8nanpYF2DAJKBIWefuI/qwft5W6hseu5xLKdkHx9/8ehQoWcm5Oi0lYX1/W4wenNKeAfWtFG2oaDTJJvQXE02YfNzw307OHQ60KPElSge8K7dWF1QI6Iwy3h3QqfFIREU42/JLWaLiYnHq3g3MObEN6X7oiIApnQ32QyeES0PZe2I7dN84C27Jnb1QyqBzwVfxw+Zf4d+lotQ3Yp3K4fmRHXEv4gFemfg+3NoWRQQjkz2jpN7alz27HT8F9kkJU6i0cwUNYWFSrR5U5Az6p3GEN8XzXkmYrSstChumwQEmPObvfpdCTfa3XET155MN+9B5anGT1niJjxriyLUzqJyvJAplyY1pf/+GDpP64UEku4PsdTclAU9v/Pz3Ehy4dAJhjvhU6iQdNzdkr9cT5cfeRpY63ZC1/nso9+1VVJkeD69AJ12/jFBk+mYriooT76Jwjz8QUKg6Sg8/h6J9lxoEtJP7YCdlziYDUGlyFHK+8hWCnmuH0kOOobKcg2/Wws6nL8efs2l/FHlvNfwLVkOJgbtQZVoc/HOV1eaNLx+bWf8CWx8YBu893xhYcgw4IAfOQeZaQKHfVOqDQ5LmaCmzS1UGlp6VekFOQINroIT04v3Afknoy1kiDGsCUzcBB+V7q56GbZyBHTPbJH9mbQfqvAZMXGOo0xiqz9ljT0l4rCXF9olxmA6jJJrbDjFp5zjjeREmLaIV576W7JmOf0Mnym01KcF2Rk3B5DUfwNvXyUECKUwW33SI7zZdWWinSXhgss4/wM/TC1Hdp2NK7XeA6GT6fItQXvfBD4ifvhdhk7biAW3yDmzo9wMCfQPwS7eRiJ9xEL6Jx3U8Q6SQiE6mgOCD5Wxvhjks2DMEiaidCHT+xFAAaVHYJ4bH/FwD4PslUsvkc2xghNaDAZ52Ull2xYeH4tjXy3Fq1Bqs7z8De4b+ho0fTsXsbcvx54G/DRWyVZJwMrxPYqKwcNca9KzbEu5Oj27TsYqUP54BmZC35UjkeWMwPPwCXeIOSH/iDKUboHi/VfDJnCdJPbh2B/jIOaipvxu9j/xtx8M7U25Nyzx17KUaoMSHq+GXq4T2+cP0aM07ichdBOTIa3CT0FIgMi1qjBoNgR/XAUFZta93WAc0ag5MWgaUFqFOce3oOdgrHnisxcoAI2aLSH/eNXVaSsFzMV1zS+YkjDtFd0LL/7S8qVIQPnSWjPBNhelzcuHvmY7JpIAyRKmSvORfO9FKUllVrTkpVAOnopuTh8ICzAl/RofgfZWUgtKKb6OOFVJZdqmCgr3CNLb6I8NRNFtePFeorBQ09goxx08mKiYa7WZ9KWVZHPIH5ZBf6veNS5HspVBUgwhdmNWqnkqGOHR0sCiFuavOIbnHniR47EkpT5MDy2yKaVftw1Qn2CsOEuPI8TDN5KSt89QSqWKEu0bCsk5jXcR6yB6ufGRTA3o31lMIfZq95J+ni/7xuXRZ+l6e8PD2SPutVw8vhISH4uT1C/Bg8F8tcHfH3vNHse/CMYxo1htZOfBJb3zp6Ojo6DxCPPqWqS9/XNCqkjond8Zs6FWvNQpnzfPM10Gp253jWUIjdw53H3ecmncKy1stx6rmqzS3ZW2WIT4mHitarLC43llb3Ww1Dk08jGjVwrWRJ6nylpKDYlQOL2/sPLkP787+SvVE1y9R1U5h5tjJRERGYODvE9Gp5msoXbQCYmJtv0bTefpJSrxWnTSKfol1kooI27G12rpMRBfOlg/fvfUJyuWj773tfTztt2/Ku3O4Ikf1QiYBCtxs1bOh7Ptl/9/emQDaUP1x/PdW60OELFFSJEXEX1QoS6mUJbJHpChR/1QiqVTKlqiESrJV9K8UobSvIpIlqUgR2Zf3vPe4//M9d+aZd81d5t65993H9/McM3Nm7ixnzvI9Z875HbngrgtcdzBfl5CYIDUH1LTdH6mr0f8CbWM6SdvWDlDDjbfKrxIzhzPTpf7D7aXGkNZy/aRBUqF4aflfvzFStiRmMwt0w8EfBp/tn1z4smzevU33hQ5pkgaSJ0Rb18Yyu6NG90OucGEgOSIawRWD95Hv3jLmNogWEM4og4L0hwbxVlS7TexaopEbY3AVYiKu6qbDOaNxXqvTsyAoZ/Vz07lUWnmOeiTtrDSp0LCCFqMVmlTQzrputx2yq1dB32+FK2z2ueDKNyknJaqVUK/TnfCIGUrkFkopoGd0+uy+qbJ44CRZu+13qfXozbJ804/euBMBMKk24eM58tPDcyUV5ooCinISjGPHPHqK7Wg4pI+ERHR7SrTdH6mDbWYMFvQYeardMZE7w0pBYqrNPpcc0gTs2qp/UXPAzj9Sp+4fE+LoMg3mDq373HTIB3Etu31uOBX+sZqESefpyAaRtWPppsM5lUMDj9cLS3ddviuTSExIUAko6ilo1apV0qlTJ1m3bp3hQ/wR6euY9eosGbFmhFw1+irBxCpuk6r+nk99Xvpk9lE1TPejzrGsY7J17h/SIKOCtO19hWTajABFZpaVnS1D2r8qsya/J2XLljH2RIdXX39N1kxbJKO7PygSqj1MJXAOpB/UgwBb1GggdzS+SXn6Ca9CRSS154WS+eJ3UHeGpwUYtu9ZU9rXvUrevGuCHrQoySny9veLpd2L98mxKSvsf2eAASCvfP++ZNY/Q+66o7/he2rToEED+fZb2M0i5NRmyJAhMnLkSGMrelSpUkV+//13Yyt/kqwqTFnmJHAxooiqcR6681WVkUdhZkVVjtzx0ctyZdPWclPdZgHLkbBIKSC9pzwkTfrdJF27djU8Ty5iIqLX/bRaOkyYLmu6DhcpjWmIXAYmmM9V9c/fVQQ45PVyFTTKTB7vXe870GtiyU1Qdd51WOSyIjET0RCiR/YfkexDSqSqSyYXTZYCxQoEFcbhiGhcK2NvhhzLPCaFygS2lg8Rve7FdfLlgC9l6JRuclPvxiq4cz+HFtFHlYhuF8ciGqgM5JH5z8lTi16RdSPekrP9DcIoVFSJ6Jr+RbQ6zxkDm+i4kZF9RD8/QBjATnRx9fszipeS9U8vEkk/MQFQRBNC8pral9eWVSNWiWCOHJe1mp7N8BGRSR0HylXX1lElhtsXgMxIkXMTuskxJzYoXSC6IjpViehphohurt6Ly8+myq4+SkQ3PolFNORbDFDCAYOgMpRQRDxw28EoP7QJlnb73XAQT3B2+1xx0VD/9kCE/bvqX1ly0xJ5vfzr8nqF12XxjYvl4N8HxXMsNGHslCVtlsisyrOMLf/g6sVKFpZRs/pIl97NThDQOUTnNsMHU/vadNk4kp0pTc67RAndNHsBrQn8MJ6sI7J94pfyz6SvZN/kH2Tv5OWyd9oqmX/7M1pO752yQtaPWiSewwe9PyCEkDhDNxBhKIdt+RehQ9mfjW66WWrzSFTcYeWM9ouYou1XI+xQTOil77q57etnukD7POqfdds81iWHhTpvKKbw8isxaoleJR3GvSJrOj7gndHPF9xCQRU7g0l6JBY7MFnORerHa9WLQmIKBBIBjjevhXcbbDIftERPe9q7fuvg4C3RaBk3zw8NGKzxEsfu2inSvIw3QkdAKC3RMCX3xX1fyNH0o5JSXD2cCoN/vvpH9v6yV65dfK2UurCUiv/29+G0JRqm8H6a9pNs/XCr/Pbmb3Kb5zZjjz35sjtHUorMX75Y6lSqJmeVq6JuUEUylWms+eNn6TxtqAxu2UO6Xnqd8vNTIQjWncMOducghOQjal1WS1YPWS1STm0EyubQV9s6cSCyXD9ZZw4oc58QGdeuvzRpV1sd7v8CKD8KahHgJVsdnWVTzviSqm6qVmJvldUGuxl3KVm0mDzVoK1h99ldUhKTZO7G76TqORdIrYrnRqw/fElOSpJZX38gz8x4URr85z+G78lFfIhoJIBJjyshuU2tWKp6WMXdQZTs2yXy1Cz7xBSqiEbiPKgOeHOSyK9rvOfF9Kh3qfs64D3EllBFNIKyhDrnSxPUQ2PuUrVdt4nIDT29z+EvpGMsonEfsF1sdgvAcvcfu2VBswVyycOXSLXu1VQWZJ8JORHRiepvxw87ZGmnpXLp6EtlaYelcmvGrcZee/KliE5JlReWzpK3Vy6TssVKSVJiou5qsXrrRjmzZFl5qetQqaiWOn7YEaaIfuObD6TjlAfFM2Wl+p3/jJ0imhCS14QkoqEFVDYo7yuHrBbbGE5SWzmU0d4i60RCFNFJqkw6eChdRt89V7JVWZOckihXta8rTa6uZVvWWMkrET1v3jzZn3FYyRV/Dx8ZKUoL4JmORsEcHjRCsjp/ty4nZ1cOEB8iOk25hipl7dru3bZj1JsizdrbC9FQRDTi3y+rRAarFHlgj0j3+5Sf+s2zatm0rciUeSJ7cXKbiBqKiEYwllS/7dNO5OP5IoPGKsG+V533UZH/PivS4U6lKqGWbYi1iLbh6JGj8sWdX0i5y8tJ9e7VXRHRmXsz5ZNen0jx84pLjb41ZG71udL7SG9jrz35dWBhthLNK7ZskH8P7ZW9h/ZLiSLFdF/l6mUrSyklrAP2NQtHRKsMdZeKXxu2b5aG59RSHv7fBUU0ISSvCSqiYYXkc+UeUe5G5Soqp4pPgWRoZKz7+xodgoiGgP5j43a5+7qJUv+q6lL7sqqy7O0f5aO3fpAx7/STxq2Rj/onr0Q0iW/8qDq3CVKDQlfOOUrgLvwrt1uqhOWDL3iPubRlIJ0QGls2ipRVKXPmSpEu94h0utt7nWVK9PbrJFI4gppeEfVbnAMCesFmkZvvUoL6YZER00VeGCay6svAoR2lWmYo6Bbjb3fIhqkb9GyHbgChu2v1Lj2YsO4jdSUxVZ030vdnJe+Cy5bkpGSpX+VCaXXhZdKp/tV62ajqxVIKswoGzXTDeBhV2SpVpIQ0rIomGjcDlhBC8gDo3jrKzVQObS3XKbdEOYhptE5DZEcAGn2SVPn2wtJBMmhMe2nZqZ6MnHWr3PLA1XLvDc/Lrz/9pcstQpwQIxEdpJDH7tPKiJQun9uVP13kiw9E+qsqZoHAVh2CsnuHyLCu3u4blVWq1PZJU7zXAXuVYI8k/eC3fyvxPGyqEupnes+PwWbtuotco677+zqRowFaGaP/QcAWtPz+8cEf8l7j9+TiIRdLtU7+u3I4AYMUcc5yTcpJwYIFI25hP4F41I34HKaeU392w/Ma28EJ92GMaxBCSH4H2SCsbJRWzhy3dJpyTykXbNxSCGCAXvmzTlfF82lKTqTqfBq2/SufV1bvz85iCzNxToxEdBjgzrYq4btjq0jTNkrwokNzBBQrKdL3UW/fanTHgOiFO2x0hi5aInwtY3JUnbjhNeq8Pmq8oKoAjBmohPq/hkfegwF/M8rOkFdLvCrLui6TOsPryMVDL5as7GCjJkNjzcQ1UunaSlL/v/UddSshhBBCNNABAXp5Rgpano8ajVuJepZcQpwRvyIaNdF5LyrxrFaKnx65wE1RIhxdQj59R+RpJWj37RFZv1IJ66YiV1wvMuUtkUMRXgQtzys+9YpzE4QwWqUxQUaUzMeFQ5YnS27951bpe6ivdP6zs+xZs0dmnTVL/lz4p85YwgW/3fbZNlk7ca1cv+B6yVZ/SfhL8X6LQ9cR/BFCCCEnAE2Ldpf9yq1RDmPSLjH8XADm1tDqfGh/uqxfu1l34+g08EqpcE5pJTPip4wm+YP4VDPQcFu3iSz/WKTLIJEySkRHChJmrVoi078TeXuKyOB26tx1RAqnibz2rshulXgi6ZeMtFemosijvUQ2/qTOq7bhfv1dZNUXOELdQxy1yKpHzVR/WeovtUiqtHqrlZzf+3xZP3W9pO/yN3ojOBDM6MaRkJQgP078UVY8vUJWjF4hayas0TaoVz69UtY8v0YfFwhM34o/f9OvotUAf7FCXwsDURFH9NJ33cm+E53aa+vvhktU147WyG5CCHENfHDG4MIxymGAYXflWig3Vblg5mtDAIMLv1myTsbe86Y8ftsM6XDBCNmwcov0H9lGiqcVMY4iJHRUKRuH4K7Wr/Ba66h+sTaiHjE451Z1vjkTRBq1Eql3lUjHAd4JYEYO95qmi6TfLvpsYSBh+Soi99+kRHpPkf+qHACDCvft9h7jzzpHHoPaN/pBpxZPlS0Lt0j6jvBFNM7T6LlGUu/RepJ9OLwXh9eQcShTDhxJlwP7T3QHD6jlvnTJSM+I7J2FCPpzHz6SIZnpB2R/+kHlsPRdd7Ivt0OXIjzFIZt9bri96tqHVFhmZ7uRkAghJEogI4S1LhhcQutzX+U2KfekcsWVc4GixQrJGZVKSs36VeS2R66XImp74oPzZefOvcYRhIROfJi48+XQfpGhXbyWNIa/EHxQQSgm7mBu7s6rRYqdJvLQSyLlzlRKTYmwNd+J3NbYa61jiKr+2unHUO1E47jfVYrf8Zf3GTBw8cyqInMnisyfLLLgD+8ASl+grWNl4k6dPjkhWYtd6wBCTMCy/Mnlsmf9Hmk0oZEW1HaEYuLOt7sGtg/8c0BmnjlTbsv0TrZivbYVDHRc/9I6WTn4O0krW8ivRs5Q765Vszby0gtTpWjRooZvdFi8ZLH06XyLJGao8IxCv7mkhETZtG+bnF2srJ8QjYxjR49K2bMqypx350mVKqqSRwghMSbkyVbwkdIsQmBR9EvlBiqnimjpqZydHgjRTjRAeYQWaYCJVtZ895sM7fqyPDmnj5xfp7Lfco0m7ogdMRLRq5WIfjl0Eb19s0jni0VGvCbS9LrgLdGhiOidf4tcU0Gkx/0ig586LpaRlmZPEln0usgbXyvx6/XORagiGkBjwZmhii4dw+8SOfdCkRv7qH02Igz3sPtfkWaloy6iMaBwYceFUuOOGlKpSSXdTQGZxqb3NsmHrT+Upq81lWrd3JlsxQTXOLj1oMyuMlt6Zwa2E30066hsm71NWmxvIZ17dpbMI/Z2mRFOxYoXk7S0tKh3VcjMzJTde/ZIth50GZ1rocvFsSgmxdTUVClTGsPeCSEk9oQson1BWX25cs2Ve1Y5uzLegYj2pZAq0/rdOF7SD2XK+Pf6S2pBFPgnQhFN7DDre1HGgTiAya7ln4qcV1ukZQgC2ikpSnFb0xfWm96g1JtLF8Kj4pzmI2/eLvKryjjKVkKTo+FpQ/TrMhoM9Kv/RH1Z1n2ZPJ/wvExKmKSXENB1Hq4j1bv5n2glEkIV3AD9oUuWLCmlleirULGCrat4ZkUpVqxYTPr6QoCeUbasVKxQUTl17Si48uXL2/q75SigCSH5ErM4graNQjGJRp5jRz1St/G5kpQceKwOIb7ESEQ7ICtL5JEeIqejuuoiZn9kdLUwGxTh0g+JDFfXi9QONc51YK9K5CrFm+dGgn//NZGD+0Wq1IhKBuAUiNni5xSXHlt6yC37b5HWX7aWW/beIv09/aX+iOiYo8M1i1YsKrdn3m74EEIIIRZQ9OxRDuUzimuUoRDQ+5TDF91uytl/mAwJiOX9uw9JZkaWXscf+GzZalm/YrNcft1FkkwRTRwSXyIad/PNYq9N5zEzXRmNm0OpsiLPLRJ592WRUQNEfvzS6wa0Etn0s8j5dXO3UDsFifyeG0QWqvte/onI98tEpo0UmTREpPdQkUqV4kJEA4hatEgXSCsg5RuWlwLFC6h8KysqLdBWcE1CCCEkF9CzfyqH6b5hmWOlciuUm69ca+WaKofZDCNo4ykkBeT+mybLMwPmyA+f/aLdrPEfyeD2k6Vu02pyevkSumwkxAkxEtHeGl9QcDfvTBNp09t9wYnP/g1biox9V2TnXyKvj/W6M84UGf+eyMPjlGiP4KIY7NBfieavPxSZ+5zIGxNFtvwiMvUzkevaBa9Bx6Bbgi/IMCCc4y3jMFsICCGEnAKgCDpXuenKoTX6deVmK/e9cncrh77QsBsdAemSIS98NEiys47JnGc/0m7l5xvljsday2MzesnpZVwy/0FOKeLPOgd6VeCO0tV/oQrLUAYWmqBfle/kh/h8FKiRNNSBhTivdUwCngPnDdYAi8pDrKxzREg4AwudgIGF2+dul44ZHaVbb3y/I4QQkt8JaWAhelP4GobCscEsdIU4sBCKooC6gLWhBsdmqUI6WHnGgYXEjhi1RDsAI3EzlItWyywEMK5hdW71MsB5rOfFc7h1bkIIIeRkBvrUWobCBRPQDoBMzpBMddojOQ5TjrEbBwmX+OrOcSqTB9054hV25yCEEEJIvBMjEc1aXlBc7FUDs2/R/PP+i85fYpKKkvH3fYQQQgghJBex7xNd2ugTjataGxx9t60E2gfQh+pCpbzWhdAnOhzQ13naM971W+9zv4sGns2lyVY+/PBD6dyxsxzNPBo4zMJF3V5y4WTvlN5ROn/J0iVl9LjR0rZtW8OTEEJIfkb3iX4ojMlWQsHsE922vzRtd7GlT7SveAgmJvyTqoTARewTTXyIiYheu3qVdHxmsqy5rp/X1JzGSeQOEvFTVQpqXELki4Oi7T67DabvnjnOu95lkBLR/kYWhkmCqgDs3SnS/vyIRTQhhBASb9RqqER0H0w8pjbcFtFoSJskMuya7nLpdTXk6FG3LwCZkSzXlH9AjlJEEwsxEdH/7twhLTt2lRXb94sUgkFll4EI/eEjkXrNxbWZB63g/H9u9K6fea7S9G4nUFVBUOK/UakU+eLzzw0/Qggh5OTgoroXyU+n/ySSpjbcVh2w6rFS5NKzL5Dy55RSRbT7siYpKVHmT/5CsqOhMUi+JSYiGvzv7fmyYe3PkghBGg0wnXcWhvGG96kmKInGTEZRqoVmZ2dL5x63SOXKlQ0fQggh5OSg1qW1ZHXn1SKl1UY0WqKnidx7VQe5pEU1PY23FyxD/eIdmJQCSXJzzcfYEk1yETMRTQghhJBTE90neqgS0eXVhts6tKByj4uMb3+nNG1j7RPtHgUkRWom9mKfaJKLKDULE0IIIYRYgLaFBsXSTYdzetDT0jsLbzT+oiHMSf6HIpoQQggh8QcUiumiAMyqJqmTY0lIOFBEE0IIISS+gA2CxsrVUa61ckWVcxEI5yVvLJeLE/rIwtnfSrIenUiIMyiiCSGEEBI/pCi3SrnT9JZ322W2/7lLpj+9UC6of5b7BrfIKQNFNCGEEELiA0xuBouynZQbDQ/3SVJ/C2Z8I3WuqCZXd6ov2Vk0W0fCgyKaEEIIIfEBRPQTykFEV4OHu6Dbxsuj3pcXHnpH7hrVVg7uS2efaBI2FNGEEEIIyXsKKTdHuVLK9YeH+8DSxnMPvC2vfHW/lEgpKseiMDELOXWgiCaEEEJI3oJxfd8qN1a5K5WDoHZT36pznSZp0qb6MLn9sdZyyaXVJFPYjYNEBkU0IYQQQvIWDO5br1wH5a5RzuUG4sIJBaRvxzGyecM/ctvQ6+WIZBl7CAkfimhCCCGE5C3LlXtFuWbKHVTukHKHlQMQ2FgPc7JA9HiGaF752UZZ8s9oOXDgsBw6kCGHMjMk60i2HMnIkoOH04XzNxOncNpvQgghhEQVPe33kNUi5dSGr0k5COQrvKsnAAUMlYLuHqOUa66cbyNyAeWeEBnXrr80aVf7hNkFi0hB6d3qGfly4RrDx55P942XIsXQj+REUiVFaiX25rTfJBdsiSaEEEJI3gGBfJlyEMhW11I5CGhMvNJWOTsBHgLZSlY3aFlDrmpfR5p3vCTHtexUX6pcUF7bim58Qy1JToFpEEJChy3RhBBCCIkqAVui0dps1wAMTXueclWUW6bcbuXsGoKDtEQDtCQn+7Qbwm/syDek4jmlpf3NTeSAHPLbFZst0cQOtkQTQgghJO+AckWXDjsHsD9duQj0a6ZkqdMdOcFlZR6VzIxstZ7hV0AT4g+KaEIIIYTEH+YcKBDQUZgPBafMysyW7Gy2LpPwoIgmhBBCSPyBAYRfKjdfuQPwcBdY7LjjsRukdc+Gut80IU6hiCaEEEJIfIL+zqne1WiQlJwoiUmUQiQ8GHMIIYQQku9hn2YSayiiCSGEEJLviUK3aUICQhFNCCGEEEKIQyiiCSGEEBJ9iihXNAouTblUkYKFU9Vmoai4NOXYX4T4wslWCCGEEBJVqp5XVTZt3+QdKOi26kA/jl0ihdKSpUixAhINVZOQmCD//nlQnZuSiRyHIpoQQgghUeXIkSPhC1D8zF+HZ599uESCsW1dB77b4VCwYEFjjRAVnyiiCSGEEEIIcQb7RBNCCCGEEOIQimhCCCGEEEIcQhFNCCGEEEKIQyiiCSGEEEIIcQhFNCGEEEIIIQ6hiCaEEEIIIcQhFNGEEEIIIYQ4hCKaEEIIIYQQh1BEE0IIIYQQ4hCKaEIIIYQQQhxCEU0IIYQQQohDKKIJIYQQQghxCEU0IYQQQgghDqGIJoQQQgghxCEU0YQQQgghhDiEIpoQQgghhBCHUEQTQgghhBDiEIpoQgghhBBCHEIRTQghhBBCiEMoogkhhBBCCHEIRTQhhBBCCCEOoYgmhBBCCCHEIRTRhBBCCCGEOIQimhBCCCGEEIdQRBNCCCGEEOIQimhCCCGEEEIcQhFNCCGEEEKIQyiiCSGEEEIIcQhFdB7x0UcfSfPmzWXZsmWGD8kP8L3lDYcOHZIpU6bINddcY/i4T7y9W8a16JCdnS29e/eWPn36yNGjRw3fk4Nw0omb8WzFihVy2223yYwZMwwfL/ESl5mmiOt4SNgsWbLEM3jwYE9aWpoHQZmQkOCpXLlyjjvzzDNz9sHNnz/f+KXH06lTJ+3XuXNnwye27N2711O8ePGcezNdo0aNjCOcoTJvz2OPPeapU6dOzrluuukmY29wFi1alPO70qVLe4YOHer59ttvjb3xQ16/t1OR6dOney644AId7gUKFDB83Sfe3i3jWnTYsGGDDle4X375xfDN/4SbTtyIZ9u3b/f06NHDk5ycrM/15JNPGnu8xEtcZpoibkMR7QLjxo3TCbNIkSKGT26++OILT7ly5Tyqdm74eDzr16/3DBw4UC/zghEjRuh79nXvvPOOcUR4HDx40FO4cGF9rsTERM/GjRuNPYFp1qxZzj3MnDnT8I0/8vq9nar89ddfOm64IaKzsrI8v/76q7F1nHh7t27ej79nzu+sW7fOWHPG+PHjtTvZCJROYhHv+/Tpo6/vK6LdvEYo5Jc0TvI/CfhPRXoSAXPnzpWbb75ZlIgWJSIN39zgmD179sjtt99u+OQdBw4ckIsuukhWrlwpJUqUMHzdo3r16qIycx0Wffv2lRdffNHYY8+PP/4oV1xxhb4v8Pnnn8tll12m1wkByKZUpUyUOJCMjAzDNzyQFhHX8En/VOFkfGbEiZYtW8rixYsNHxIoncQiDjzyyCMyYsQIUSJaHnjgAcM39pyKaZzkDewT7QJJSUnGmn9uvPFGqVWrlrGVtzz33HPSuXPnqAhokJycrPsbgunTp8s///yj1/3xzDPP5Mrs8HtCrCQkJISUzoKxb98+GTZsmLF1anCyPjMq52vXrjW2CPCXTmIVB+Ih7z4V0zjJOyiiYwAGr6Bl4NJLLzV8vGRmZuoE7w+0KkCA+mvdDgcMPBk3bpy8//77cs8998jXX39t7HGXDh06SOXKlXVryIQJEwzfE9myZYu89957ctdddxk+/kF47NixI6fF2h+HDx821rxhjN8Ewunx/t4bntV6bzhvoPdrguO2b98ux44dM3zCY9euXUHDxgTH/fvvv8aWPeE+j1Pw3Hj+I0eOGD7RAe8NX4w2btxo+JxIsDQJYhl2kca1UJ7ZJNL3sHPnTmPNC768ZWVlGVvHSU9PDxp+wdI6BojdfffdxtaJ4BnM3yL/xb344nu/buNmeERCJPEe92u9Z9wn7jccgqUtvDOUd8HyQVwfx9kNCo3kWa3EMo2TfI7KrEiEvPnmm7ofmF2f6LVr13qmTJlibHlBX63777/fU6ZMGT0YzxeVOeg+ZUp0e4YPH+5p06aNp1q1ap7Ro0d7XnnlFc+rr77q+e6774yjnTFq1Ch9r1bXpEkTVwfYYHDL999/r/sc4vynnXaaR2U2xt7coH/a7bffrveb96OEvbHXC/r5YdDKf/7zH0/Xrl09FSpU0OHx9ttvG0d4PCpD88yaNUs/CxzCEIM+0TcQ5zznnHP0QFATp8cDf+8N/TIHDRrkKVmypOeFF17wqMzXozJy3Scc58K6yriNo4+zZs0aT/PmzfWzYSDl2WefrZ8P7xgOA4Vwn4FQBY7n2Wef9dSvX99z7bXXes466yzP+eef73n33XeNI3KDuIPBo4hTGASKvvqPPPKIRxVgxhHOngdh0r59e0+tWrW0u+yyy/S9m+C3Q4YM8dSuXdtzww036Gc22bp1q6dbt26exo0b632IJ1dddZVn+fLlxhG5SUpKyunrifh/55135lz3448/1v4Aaefyyy/X/n379tV+mzdvzjXoFYN+sR/vHgRLk8DtsAuEG3Et2DObOH0PVnCtN954w3PllVd6ChUqpP2WLl3qqVmzpr4mxkcgfoLdu3d7unTpkjP4DOn577//1vtMQknrY8eO9aSkpOhzYGnGgTlz5ui+rvfcc4+nVKlSnueee87z6aefes444ww96PvFF1/U94v8GmMw8FsT+CEtmufC+o8//qjTV8+ePbUf3v3s2bONX9jjVnggr8c5cN0OHTpoP4B436tXr5z7XLlypbHnONZ0Em68x+DLe++9V4fjsmXLPD/88IPnoosuyglz3IMSjcbRx8E5cIy1T3SwtIVrIU1dccUVOtxRjqJvNcLHCsbKIB9BHG/RooUOX8RbJVz1/vyWxsnJAUW0C/gT0RBm/fv3zyWiUUggUaJwwG/sEjNEJTJbawHTvXt3fXzVqlV1Qff8888be5yBghHi8eGHH/bUq1dPnxMOBWe4wtwXU0RjkCEyGpx/zJgxxt7j7NmzR1sIgYD3J6IxQKR69epaYJoZ065du/R5CxYsmBNGTz/9tKdBgwb69xAD/fr18zRt2lSPwkZBAP/U1FTPihUrwjre33tDxoyKTtmyZbX/sGHDtABBZWXy5Mk6I4f/xIkT9fEmKDjw7KhEmCAczAIVghgZOTLoQEBooPDZv3+/3sYS9w/RsHDhQu1ngkIRgmTnzp2GjzcccL2WLVvmDMZx+jzp6em6wgd/xF1f8N7wvhCGJnhWiJsJEyYYPt4wRvyGAFi8eLHhexyrODCBaMd1rSILQOzAH/cOIIbwfBBY8MezYDs7OzukNBmtsLPDrbgW6JlNwnkPVl577TUdB3F+HI/B06i4LFiwQN+3GZ9xHggfDMKeO3eujrPwtwpE3FsoaR33D+tC+D3CCL8zwx/hBus+2IdK8XXXXaeFGbYhzHC/Zl6K+GQFFiZQeca+jh07Gr4eXSFFmIcyGM3N8EAlHn4Qgr4gnLDv888/N3yOY00n4cR7lAOI7+a9ovxCuKBy07BhQ+0HZ2d9CefAPlNEB0tbKCdKlCiRK/2OHDlSH4s8xQThCL+pU6caPh6dFuB399136+38lMbJyQNFtAuYIhrCBYnQdBCm8PdtiQbI4LHPNzGj5Rr+aCmxsmrVKu2Pws1N3n///ZyEX7FiRS18I8UU0eChhx7KObdv7fyJJ57wtGvXTq/7E9FoDYKfb+tZ69attb9VKKLVCX4odJGhmWzZssVTqVIlvc8UVcDp8cDfe7v11ltzjjcFLUCFBf7XXHON4eMFhSX8YbnFCoQz/K2WXPyBAgVxDnHDihk2qMCZfPjhh9rPzvKJKUStrUdOnwfvAf4XX3yx4XOct956K9e9ABTG5513ni74rKDVDudBaxGEkhU7EY2WPBzvK6IRh8z7t4KCEv5O0mS0w84fbsW1QM8cznvwBS2BOBbvB2FlxRSsaN2DIDbZsWOHbrmzNjw4SetmfgFR5AviGvYhH4LpTQBhaK6jBRX7fUU0QKUZlWfc2zfffKN/g/PYiVV/uBUesGyEY+1ENEQd9gUT0SbhxHs0KsAfS9yfidWyk+/1cQ74W9MDsLsGyoMqVarklAEmeAfm+U1Be+ONN+rtTz75RG8D8zi04FvJT2mc5H/YJ9pFChUqJAsWLMhxKtOXyy+/3Nibm2LFihlruVGZvV767ofFCwwaUTVh2b17t+EbOa1atRIlJkUVRrJ161Y9ENBNBgwYIAULFtTnVhmM4evt/4a+0vfdd5/hYw+eu1u3bidYNVGFhF6iH5pJ4cKF9VIVetrgv4mqJMjIkSP1+scff5zTP9Lp8cDfe0tLS9PL9u3b56yDmjVr6qXv4Ep/77lGjRp6ae4PxNixY0VVTrSlFSvPP/+8Dlvr6Pinn35aL+3i4x133KGXOJ8SU3rd6fPASsK5556rLb743ruqoORcA6iKg3z11VfaAgvitBVVKIkSdbo/7GuvvWb4xgZ/7zbaYecPt+KaP9x6D7hP/D45OVlatGhh+Hox7wnWd1RlVa+D0qVL622M0TDTsJO0HggzXffq1StnvV69ejnryKdxr3aoSqC2MIF3icHR6HeN8yCMQsWt8IgV/uKZGV5Dhw7V92eCbcQNMG/ePL0Mht01/ve//8lvv/2myyAreAfz58+XN998U04//XTtd8stt0inTp2kbt26ehs4jRfA37PmVRon+R+KaBdBxlm1atUcp2rIWkDYkeTH0sBpp52ml3/++ademqSkpGiXmJiol25y9tlnawsZ4LPPPtNLtyhTpox0795dr+MaquKm119//XUtuhBGgUBGiUK8Y8eOetDG+PHjpVmzZvLDDz/o/WamZgVh5Auso8Af1/cddOLkeH/vzZ+/mcGi0mDF33tGAQ9Q8QgEKlKwTFCpUiXD5zioEGGgJgQ2QCFjztBlFkpWzIIDA6E2bNig150+D+J+v3799PrEiRP1EqDSl5WVpSsqJqhgArt7AaZggciLJXbPHIuw84dbcc0fbr4HuzQEzPhsl05NEZSZmamX4aR1O8x7SU1N1Us7/IUhGDx4sB4E/tNPP8maNWv0AGynuBEesSJQWADfZ8H2DTfcoNfNOB8Mu2vAlCmwy8PatGmjBaoJrodGmKJFi+qKH8oUNNCAUOMFsLuPvEzjJP9jn9KJa5xzzjnSuHFjYys4KDQgPFesWKEFiMn69et15tq6deuchOomNxt2rtES4jb//e9/dcb7888/a6sgEKZjxozRhVUoZGdn65bhRo0a6RaRRYsW2bYYBAKZ7xlnnKHXQ8ngnB7vFJgYBG+88YZemqxevVqHFd5HIJChA7QUBgNC3Sxo9u7dq5dWILbNlkiIl3Dp2bOnjkN4JvP+UIn0bVncvHmzXtrdC8CXABDJvbhFrMIuL4jH9+BGWo8UCKTHH39cryMfhh17khs0gIBI8kYneRhYtWqVLktfeuklGT58uEydOtXYExkncxon0YciOsqgNcTMcEIBn9DefvttXYB07dpViyq0hqC7AVpHpkyZYhzpLsgkzjrrLKlSpYrh4x54frPlYtSoUTktYNdee61eBgKZdPPmzXXLNVrJu3TpErYtUrMFv2zZsnoZDKfHO2HQoEFadOK5Jk2apDNyFAqoZOAd16lTxzjSHohVACHkL2P/1zDRZG3VRrcaX/DuzVYwtGKHS/HixfXneLwzPAOWEEFt27Y1jvBi3o/dvQCztS6Se3GLWIVdXhBv78HNtB4J+HICkYYvK2i4QD4Mc2bkOG7kjWYeBnHsDzMPe/fdd/VXSzQuvPrqq7pxyi1O5jROog9FdBxy/vnn6xo3+uNBhEBYYRaoL7/80u+n10hBCxAyENh3jgZmqzM+DaOrAVqnzdp9INA14JNPPtG/sfYhDITd5z34/f3337py4lupcXq8G6C1C/1O7733Xl3ReuWVV7Q/uo6gD2YwkJmjSwgKebuKFVr70YcPwF632aq+dOlSvbQCgQCHPqlm62O43HnnnXqJiTAwaxgqT77dj8wuPIjPduLEbA3y7U9qh3lus5uQL/78QyWWYRdr3HwPbhBOWo8GyJtQ8UPl9uqrr9Zf0B588EFjb+wIFrdBpPE7FOzyR9j3B/hiEC5m/+GXX37Z1vY05g/45ZdfdB6HBgdU0n2/arnByZzGSfShiHYBM5Oxy2z8EajQR5eNBg0a6IEUEJ/333+/XHnllX5FJ4TXunXrjK3AoC+t3bVRYGBwmG+miAwMAw/tCll/QJD7hgWex/wsa7buWMFvTKy/NfugHfCZdMEcXGn+Duc08T0WfP/997qFCS36vuHo5PhA7y0QvvsxVTEqSU899ZQewPTwww/rWRvLlStnHBEY3JPZZ/CJJ57QBb0Jwm/IkCE5g38Apl8HGDjqey/m5+r+/fvrJXD6PCbo+9ykSRPdso4KgnldK2hNwmyZaEHHACJfMDgRn1CRDqzYXdPsW44KjxWzH6/v52azZdMcjITC2zzG3zPFKux88Xec0/P7e+Zw34MdoT6THeZvnaR132cC1gHAIFB+7O9+MVDu999/11+KwLRp03QYPfvss3qCl1BxIzzMuL1t27Zc50P3B3Ochm/8BnbXDifem9jlj5ikC13ezG5pJv7OZeePigruC63NCG/r+0JXRny1xNdX7EccQBlkLSf8lQHxmMbDKUdJ/oAi2gUgGAASq5mwg2F+pvLN+DFYDALg0Ucf1a14GJWM2vfAgQO10MKIZWtC3LRpkxYuF154oe72EQizJRtdBWB1ApnW/v375cknn9RdLNAi4AuuDVHUo0cPwycwyNCQ6dt9FjMtcUA8+g76MVs2gPW3ZmsF+lDjHvGZF4U/CjoAP2TAZngCdIGx9mPEc+LzLFoS7FqUnBzv773hmYFv1wqzNQ+zCVpB6zH80BqIyhIENFpxUWlCC3Io0xkjjuBzKu6lfv36erANwhaj25cvX54zoBOgIla7dm0tVPC+TVBRQB9UVHCsFjScPo8Vc/ZJVMjsWm4gSlBpQ0UA4YtZ8kww2AiFDfo9mt0JAO4D7wWFoVU4oXIGMAsnRA76sKJANOMT3itatDBIDJQvX14vZ8+erQcTIX6bBZ6/dxvLsLPiVlzz98zhvAc7cF3z3SAPtGLeE/IZK5htzhx/YT6fk7SOT/AQmfgt0hLE7pw5c/Rx5jVh+cEOiEKIGtyDVSAi/0QXDmtfW4QdrHUgvJCeQrG64FZ4wJIEvkqi7zDeD/IEvEOIObMbBbq+vPPOO3od+Esn4cR7kxkzZhhrXlCO4AspBn6aQt/ELP98y0G7a2BAISr7AGMnYHkDFW/kh0hvjz32mI6baCVGuYUww32j+wesDw0zpvZGlzZ8yUNFB8RjGsc9OClHST5CRS4SJjCGr4ShJy0tDSlUO9j0hD1J2Bq2AzYlH3/88ZzfYAmblfAHmKAFhv7N89k5VdjkHK8SvbYLqjIbbWc1ECoz1rPZmeeBPVRMbIDZsVRmYRyVG3PigLZt2xo+9qgCQBuch41XHK8yMm2U3rQXDVTmrm16qozG8PFOIIHnh11t874wSxQmg/n222/1RB6wxWnuw8x8mPQANpKxjYlFlHjS58K14IdnwmxTsFGNWRNxT3AwuG/FyfH+3hveMwzuK6Gh/WFXF/avVSbqUZUSfb/wh8NkBXgmoARKzqQudi4xMTHXxAL+gF1xxDnrbzHBBK7vy44dO7S9VcSVq6++WttTxf1hEgpV4OpjEEfCeR4rqiKlbY+rgtbwsQc2VUuXLq2vMWDAAG1DF8/iO1MkZiOE3VXzurj3+fPn632It9g29ylhqG1Gm3aiEd8xQ5wZ5/B8qnKk9+Eecf/B0iSIVdgBt+Oa3TNbCfU92AH7uqbNYjjEPYQ/7klV8nJs5RcuXFinL8wqh3iB/MT8japs6d84SesAadXM+1TFSc+8qMSmnpgFxycnJ+v3tGnTJuMX3vu1xqVWrVppv3nz5unnR7rD7KEmmIwGkzGZx8OuMWZC9Ieb4QEwKQuONfddf/31On7gGgUKFND5sxK1+thA6SSceI8Jn+CPvBDnwnNjxj/kz5j90Qrene+5YE/6jz/+CJq2cBzKIuyHK1my5AkzQyI8YEMb+xH/UcaqipCncuXK2k9VtnJmd43HNB5qOUryHwn4T71cEiegRQJ9YlUCFlVo6BotWkvQ+oylypR0LRwtlqjdArSy4XeoSQcDrRRoeUWNGV0H8MlfZRrG3hNBSwpahGDuyhwIEmsQRdGqhHu39k9GFxaVSerPigCtr7AHi/7k6C6BLg5KCGtzg2hV9sXp8W4CM00zZ87UrR5o3cL7QEsU3jNaS9CC8sEHH+S0eAQC4YMWWHRpwPtUFRJjjz34coJnRWsevmAgnrkN7gct4oHiFkBLD7rOoOUKLVO4n2C/sQOfl5E+GjZsqOMDzof4YddnE2kFrVe4nvnpN1RiEXbRINgzu/UeIiXUtG6CtILfYOzCyQryB5j5Q99d01Qk8g+kcyfxz2m8VxUAPR4HeRGuhZZ6jOXA1zO3ywKUc4h/6AeOLhymjWorBw8e1F9eMfhdiWDth3wTcQB5tpV4S+PxUI6S6EARHWfgcyUyqtGjRxs+J4LJNFDImIO4iBerKMYApWA4Pd4t8Hka3RBgttD3c6gVTLwSSrcOQghxG6uIbtKkieFLCLHCPtFxBPpjoV+Xbz8rK2itxExPVkP0JH/x0EMP6T55gd7zW2+9pQsxQgghhMQnFNFxBAaSoGUSA1tgjQNmwtAKgGmUMWgKA27QIoBBEKZJHnIcc2COuQyG0+PdAva48fkcAzwx2BKVom+++UZ/osXA0R49eugJSx43JnwghJBYk1f5IyH5CnTnIPEDBsF07tw5Z+CC6YoXL+7p1auXHqhBcoMBJu+9956nRYsWOqww2AiDJTHozg6nx7sNBlhOnjw51yBPOAxoqV27tmf69OnGkYQQElvWrVvnmTRpUs4ATQx0VBV9nW8SQnLDPtFxCloqMYgCrQAwRYXWS/SVJieCQSR2drIxIMTO7rLT46MJbL5iMCPeLWzy5uUkE4QQgsHMGOjnC8ztsQwiJDcU0YQQQgghhDiEfaIJIYQQQghxCEU0IYQQQgghDqGIJoQQQgghxCEU0YQQQgghhDiEIpoQQgghhBCHUEQTQgghhBDiEIpoQgghhBBCHEIRTQghhBBCiEMoogkhhBBCCHEIRTQhhBBCCCEOoYgmhBBCCCHEIRTRhBBCCCGEOIQimhBCCCGEEIdQRBNCCCGEEOIQimhCCCGEEEIcQhFNCCGEEEKIQyiiCSGEEEIIcQhFNCGEEEIIIQ6hiCaEEEIIIcQhFNGEEEIIIYQ4hCKaEEIIIYQQR4j8HxqMBurYlEZuAAAAAElFTkSuQmCC;" vertex="1" parent="1">
          <mxGeometry x="60" y="50" width="721" height="285" as="geometry" />
        </mxCell>
        <mxCell id="4bvAKzDYsdmheiuHhJou-3" value="" style="shape=image;verticalLabelPosition=bottom;labelBackgroundColor=default;verticalAlign=top;aspect=fixed;imageAspect=0;image=data:image/png,iVBORw0KGgoAAAANSUhEUgAAAtEAAAEdCAYAAADKCztVAAAAAXNSR0IArs4c6QAAAARnQU1BAACxjwv8YQUAAAAJcEhZcwAADsMAAA7DAcdvqGQAAObmSURBVHhe7J0HYBTFF8a/9EYooffee1eQLkX5W5CqIkjvqKggKipVQQSpUqRJV7HQmxRFegfpvbcAgZBe/u+buwtHuJbcXkhgf/jM3e7e7O7s7sw3s2/euMULSKMcOXIEly9fRv369eHh4WFcqqOjo6Ojo6Ojo+Na3I1/0yRr167F6NGjERUVZVySMvz777/GTzo6Ojo6Ojo6Os8iabon+klRsmRJHD161PhNR0dHR0dHR0fnWSNN90Tb0v+DBg3Czz//bPz2ONHR0WjatCkOHz6svjMte+0J0/orV66ov0Rvg+jo6Ojo6OjoPHukaRHt5uaGmjVr4v79++r7+fPnUaJECbz88ssYNmwYWrdujUyZMql1ZMuWLciQIQOyZs2KoKAgrFy5ElWqVFHGtGhdunTBtm3bjL8wwO99+/ZV6xs3box79+4hY8aMKFSokFqmo6Ojo6Ojo6PzbJGmRTS5fv16Qm9wTEwMbt26hS+//DKhZ5k9zufOnVPrIyMjlQD+7LPPlPDm+oiICOzZswcvvvii2ub27dtqO3P4/e7du+rzmjVrlBDn9zNnzqhlOjo6Ojo6Ojo6zxZpXkSbQ1FcuHBhVK9e3bgE8PHxQd26ddXnuLg4uLu7q95qc+bOnYsHDx4Yv+no6Ojo6Ojo6OjY5qkS0YRC2Ry6W1y4cEF9poDmeobFM6devXqqF9sEtzNHD5+no6Ojo6Ojo6NjzlMnoi1hEsEmtw/6M5tjPgCRovvq1asJ21Jc79y5UxfSOjo6Ojo6Ojo6CTwTIjoxpp5pQp/qr776Cm+++ab67uvri/HjxycMGKQ/9EcffQR/f3/1ndDP+uLFi+qzSWzr6Ojo6Ojo6Og8O6T5ONHZs2fHiRMn1GA//n3ttdceieHs7e2tRC9P86+//lIDCLltgQIF1DoOJCxfvrzqjWZv8/Hjx9GoUSMV1cPLywvp0qVDxYoVce3aNSxYsEClyQgeTIv+1+vWrVPLdHRSA7zP9YgxOjo6Ojo6rifNi+gbN26okHUUDnS9uHPnjvpuguKXftC5cuVKENHfffcd3n77bSWuCd07KJZNMMIHo3YQCmuGwwsPD09wA+EgREbn4D6Zro5OcuBsm/ny5UOrVq2MS7SBjbyOHTvi+eefNy7R0dHR0dHR0Zo0786RLVu2hJ43T0/PRwQ0yZEjx2NCl73M7MHOkyePMnMBTbJkyZKwLmfOnCrCh7kfdUBAAHLnzq0LaB2nYJjFsLAw4zftsBSmUUdHR0dHR0dbnimf6DTe6a6TiuCbitOnT+ONN95A7dq1ceTIkYT7i39v3ryZMAmQCYrb4OBg9WYkJCRECWhuw7cnpt9ym6ioKKxevVo10tavX58QfpG/Y7qJhTffnDANvokJDQ1Vv2f6XK6jo6Ojo6PjGtK8O0dSYJSNFi1aYOLEiXj11VeNS3V0kgZde95//30sWrQI+fPnVyERDxw4oL7TNYMCmwNRGzRooESwCdMbE7oCFS9eXIld+t1zOQU533jw+wcffIA//vhDvf04deoUKleurNKhaxLfjvTp00cNfjXB39PPf+vWrWqfFOb8zuWXLl0ybqWjo6Pz5Ah7EIa7dwxukK4gOjYabvKP5TH/Esob8/0l/p4U+NugLEHw8/MzLtHRecZEtI6OFlBAsyF29uxZ5M2bVy3jTJZNmjRRQpcClgXtK6+8gqVLl6r1JH369MoPnyKcjBgxAkWKFEnwiWZPMkX0jz/+iE6dOqllHCRbqlQp7Nq1S+2L7kkff/wxRo0apdYTVgrstTbFP2/Tpg0+/PBDVK1aVX3X0dHRedIMHT4Uqw+uhpevl3GJdri5u+HO6TvIUTgHMuXLJIrXuEJD4uVf3rC8+Hb0t8YlOjopJKK5C1b033//vXrtPW3aNOMaHZ20B+9lDtpjz6857F0uWbIkfv31VyWG7YloTk9fsGBBvPvuu+o7RTR97Rl20RwObK1QoQKWLFmiPtsT0c2bN1e91aaZOnV0dHSeNCXKl8Dx8scBDi+i6rCmPNhRnNR1nmJrgRq9ayDPy3kQH6u9rPHw8cCivIsSXO90dEiK+ESzkv/ss8+we/du/O9//zMu1XlS6IWAc1AgM8qLJRhm0URy8tnSb7iMA1wTz8apo6Ojk1bw8fUBssiHbGIc/8+/liw567KLBQDpc6dHUIEgBBV2geUJgrvbMzm1ho4NUuyO+Pvvv9G7d29NfJEZqo4RNVasWGFcouMIK1euVC4EbNSkBvhGIq2+laDLhQmT8GVEDMYS53f2AjMKjDmO5LulbRhmkT7RgYGBKqZ5YjGtz6apo6OTJmBRyeKLfx0xYmm5FYuPo9OF6/7p6CQmxUQ0nf35OlsLOHCLEQtcER7saYZ5xugPqQUOsKOlNTZv3qymhv/ll1/Udwpfuk+cP39eTcDDnurBgwcnzGpJFi9ebDHsHJ8Lcxj3vH379sZvQP/+/VVED7p4cHKgzz//XLmRmFw3Vq1ahdjYWPXZnMTp6ujo6KQZ2JfAIizY+FljOPCQ/2KjYhEVEmVcqqOTdFxe07JnjiKDPdGlS5d+pKeNYoQxmRnrmYLEXBTTP5S9lIxYUKxYsQQ/0TNnziiXEKbDAVn8yygH/Et/UnM4EIshwQgFDXvxKMD5Kv71119X+6Ow+fPPP9VvaeyttcZbb72FjRs3olq1aqr3r1mzZmr5jh071AAx+qtysJkJ9hgy6gJ74HkenPnQXDROmDBBubmwV5P5wDQotiyJIp3UA/2hx40bl3D/0UwDDdlbTDgAcNOmTQnrKYZ5D5jWk8yZMyvBzPWmcHiM6sGIH6bfffvtt5g1a5ZaRwoVKoRz586pKB1czxB7TNM81jn3XadOHbVeR0dHJ83AXmpWkfPEvhBjECINX7RFh0YjJiwGf739F6a6TcUvJX9ByMkQEUJ6p4NO8nD5nUNxyOgCrOQ56Kps2bJqOUN48ZU3Jz3hzG0UIRQEJuiycfjwYXTu3FmJSwoD4uvrq0Q3X5lzUBYHc5leZ1OkmGP+nT1zFNIUtBTWJsHNKAhffPGFCk/GAVsU1+ZhycxhyDEOFuOMh//99x8OHTqkRM/YsWPVsdAochijlzCyAiMkcIpxRlfg781f8XPSFp47B4xRFA0dOlSJrbZt2xq3cC0U9DwuE+xdZYOAoQDNlxOuYyxinvf27dvVMjZAeI7MVy7jbxMPimNe0BeeadLYOLIG0zelw9Buqbkx0bdvX3UPfvrpp+q68TOvswk2/LiMjaSpU6eqXmrmBXuauZwwjY8++kg1FnkfET4nQ4YMUc8DI2wwv0wDD0mlSpVw5coV9duffvpJDVK8d++emq6e6dImTZqkZuRkw1VHR0cnTUA1ckpshhj7FDT2UvOWf8vqLMMvZX7B7YO3EVQuCG4ebi7p6dZ5dkixEHf169fHjBkzlNBkbzBFMSMMdO3a1biFHIybW4LASAxfZbPHmWzYsEHFw2XkA4pawt8ybfZUm6D43rZtm5rFkMKDwnny5Mno0aOHWk9BWKZMmUf2SVHNHmyKH76WN+edd97Be++9hypVqqjvPB6KH/a2m8KU8bxat26teioTw55pCn7T/ngsFItjxoxR3wknyChXrpw6DzYYtIS9/RSoFO7MDzYa2APKfKR7AKeL5l9ORU3BO2zYMLWMDBo0SOUXrwMbIWzknDx5Ur1d4BTTFInsiS1atCiWLVumfkPRSDcHimg2Lvj77t27Y8CAAWq9KcIEGw6kQ4cOSqwzf9hQoohkVIqnFZ6neW8xBTOjbFBoO0PidHV0dHSeNOWrl8fBGgcB9iNZUx0Uzqx2WfUNEaP34TAx630vBvib34DGnzVGgWYFLPovs7f5yrYryPN8HvU55EYIllRYgsbLGiN75eyIU93g1vGQf1PdpyI2Tn9TrPOQFHuHwV5FzqZmggKLE1RQ0NIYe9cc9qxRYPfq1Qsvv/yyCg1mwjSDW1J8oilg6c5hEtDkq6++Un/Zq8fl/Lt27Vp8/fXXjxyrCQqTxOfAnnCTgCYUyaaJMLhPuofwPCg0a9WqpZaboNhJ7CdO4UwhyQGAroDxixlBggM86TZAAc28ZQOH14jXhCKYwpfHbRL8/N2FCxfwww8/KAFNTH7uFMb0zaVA5/nu2bNHnTt7RA8ePKjSWr58Ofbv36/cE8yvpQnm/+zZs9VMfYy5zLcDT/uAOUtCN/Esh8lBF9A6OjppEurTCKNZE9p2oK+zJSiScz2fS/R4DKLkX/R9qYf0olLHSZ6YIxBdGejOwR5l9lLXrFkTv//+u1rHCSvYA8reSK6nC4YjwsCWqwBhL6o5plfoDRs2VMdAkUs/5fnz56vjcwRbA7jYM0uhzsFm9OPmoLDEmESqCZ4nzTSJh5ZQlFLg0g+X/t0moc6eZQp/9n7TpYYCm7PmEfa+E7puUOiau6Pw2Hlupt5iTjJCl5V27dqp7xTNHBTH73xjwIYEhTpdDRLDmSSJqZHDHm2T68+zAq8P3Zx0dHR0dJKHrSga9nqbdXSSyhMR0RRf7E2miKV4atmypTL6IxP29lIQ052Aoo490eauFezlTAyFGYWwOYkFbmLBSpcFQoFnfgw8psSC2xqJ0zRBlxW6k1AM0n2B5/HSSy891hhI7MfN3l72EJvcKLSEecgeY7pWsGFiggKZYpeuJWzIsCeaftqEPfMmPD0Z0f5REl8Lnt+xY8fUNaT7CKedZlrsif7tt9+UHzZ7mxPDxhJFPF1j2Hhq1KiR6hV/lmDeNW7c2PhNR0dHR0dHJzXzREQ0xRxdAPr166eEG+GANPZiEooJRiDgwD1CYWvyhyaMcsHeY3Ohy2gEdCUwzQbHwVn02U0sWs3hoDhi7mbB6BjmETaSC90y6LpAH2OT+wnFsbnoZiOCvtf//POP+k7hzUGYjP7gCpg+98cGCme1Szxwb/jw4UoUMw9NZh6mzVqDITEmNw9GL6GfM39nnqYpYkpi6NNOn3BGS1m3bh22bNliXOM8FOj0N+bAPbqd6Ojo6Ojo6Og4Q4qJaApGU88wezQp2NhTS59iimEOyGMvKeHsbG3atFED7CiCKfjoKmCCA9/Ye8zeXa6nHyl7btnTy/1wGQUjXQ1MIpp/LbloULQx7i6Pga/TKb4t+ewSCmNzP11LaVKkmdxEeA7026ag5LacDto8xBkbBnSrYIQGNixM/sXsjXUVFLFsKJgGWjKfGBmEUSYoNHmcpvPk8SXuKU8KlStXViKcecw0mcfW0uQ15LExH9iI4FsIU+PDWZhOkyZN1ADGn3/++ZFwcMmBx6qF77KOjo6Ojo5O2iVFRDR7IimQGcnBBGMqc8ZB9oZSWHEbUw8sRSgjVnAZjX655vGVuYxRH0zrTcJ0zpw5Ccvo78tebsbiJRSMjNvLdeZwvekY+JcRJBieLDH8HUORmfdaM3wfezVNafIvB0RStPEzxSldRpguvzPcHcORmbZnjzD3xTQo3HkMHLhnWq81TNeUNn2j2RjhgEGK3KZNm6qBfYxOQjcKDq4090lmD3Xi4+L3xL3Z/G7yTWdPNKN20BeaDRUKWLq3mGCaJncQvkngMXDQ45QpU9TAQh6fVlCgc/AqXYPM78PkwMYOTUdHR0fHBSS1CnSyyrTlR62jY4sUEdGm3mCtcCa95P7W1u9M68y3cWR7ktinmNj6rTNQlNIVhlAAU+CzN3/gwIGoUaOGcn9hbzF7bBmzmQLYJJz5VoC+1Oaw8cIeXnP41uDNN99Un+mawugcFMh888CJaszdQ7ieRvbu3Yvq1aurCCk8DrrUsCffWeiXTaOwZyQS+mub4LHx7QAFfuLGAGF4RP7W3L2HDTH2ltPodsLfsuHEBhwbSCb4mXGc2SgjbESa3jCYwgOaYDx0vh0w+YAnbqwQLuOgQ745oG85fdVN9w6vFV2ZeD3ZWEgM852+7oljeHOfhC5HzBv6wif+PRuEPHb6sbORp6Ojo+NykloFOlllWovooaNjjxSLE63zON9//70SNuz1fdLwNkiueDf91pk0XEXi42EPN6fk5luFb775RvWMMxIKY4nTrcb05oIxqjlFOnvnGcKQvdh8U8L15lOnc0AkZ8BkQ4Ri2NTLbYpBzuV8K0J/eA4a7dmzpxLuphjcFNoUr1zGnni6JDGsY2LYCKBw53EzygtjSXfr1k0NEOU+OHCTM2kyuon55Cz8Tpci7oe98NyvqSHFvOGsoV9++aV600Nfde6foQnZmGLjgJO+UIRzgOhrr72motfovfA6OjpJxaE40ezWYwwBevwxPjSL2m/F6GHJPgNrAbgciBPNRZ5ungmCOeRaCH6v8jteXvcycpTMoSJ3RKsdWUaPE61jiRQR0alRXKUG2IPIyBim2Rh1tIfikr2pDNnH3uISJUpg3759ShBSuD733HNKoFIccmCjScAyoohp0hvOokhjr/SRI0cSXHqYNmfcZC8uJ6PhOs7KSTholb3sDHFIkcrPXMYeYfrRU/Cy95iuPOxxp0sNwwey155xsinOzTGJaE7iw/1T8JrEMkUv/czpCsPBmAsXLlTbEp4j90WBz1k5KexNk9vwmeS+GYKQDQmKbU4UxEYGlzE/6FrFvKCIZlx0CnG6AOno6OgkBbsimgKaL/02ilFEM+YA9Sq9K/m3oFhdMUtC2gER7Sn/NnbbiNALoVL4STIPYnBt6zVkq5oNPpl8EP0gGi+tfAme/o9HoSK6iNaxRIr1RHfp3Bmrl/8BDw8XeJDIKbj7BiIukgPRXHE60gjwMEQCiY/lK21tGgSmhoW6BDRvf5w7d14t09EOimjGsja5UDA+OUW0KRY2ob82hSYHliZu9LEnmVFN6NZA9xWTiDS5PlAoU3jaEtH0facopUAm9IFnrzR7sSlcTXC/7GGmX7g5FNEcR2DuMsJeb/qds3eZcKp2Rq2hX73JpcYcRkqhiGYvO+G+mJ75YNcXXnhBCXieD4+Nve50tdHR0dFxBodENItoxhegjjVJBfZAc3sOp3lJzFJnsQMi2kv+rXhjBe6duZdQvnPa7/g41r+SbGg0WuxvAc8AXUTrOE6Kieg33u6MI4U/gH/2wsYl3K25GE383Rxb6+RZ8/TBnh5eKDvyojwAQbK5tqfk5uGFa6u/UZ9zNPlEhLT1Vz7Jxd3HF3u6WJ/2XCf5UChWqlQpIZwixSH9kk3RYlig0ieabjWffPKJWsbeW860yHUm32P2ODMqTGIRTcFJsexIT7Tp+rIXm2nxGLgP03LuiyKfLhTmUERzIKv5AFueE3vVTb/lOfHcZs6cqQQzoVuGyd+badM9w9Tbbr5fE6a84XIKaE6CRD9yupDQFcbUw62jo6OTFBxy5+Dyx4cJGaAEsNYH54g7hxAXLYlb27fg7m29k08X0TqWsH7HaI1U2O5ePmK+RvMz+2zpu7nZWifmbRDYhu/m+9DIvD2UkKbxs8VtnDRDR7f1hoKOdrBnmr21FJc0ClSKRpOAZjxp+hxTdHI9B/LZwjzsoaMwtCOjn9DFgvs3HQuPI7GATi4MKzhq1KiEtBnxhuduCw5cNM2syZ5vCn/6crMXnr33emg/HR0dl8EqkMWpJdNArbh7uSuhbM10dJJKyt01Nlp/FuHD5CJN6SZnbW52MT92B87jkbQdPIdEHYI6LoSuFRxwZz5AkP7A9FEnjEJBH2gTnM3RHM6oaA79ipmmeS8xfZxJ4p5eExzQyAGL7L0234Z+x1rBnmZGOyHcB8Vw4lk8zSe04SyTzAP6eRNT/tBfeujQoSpCh5bHp6Ojo6MJev2p84RwREJqgwNikqLT3Uv+Sqsz/NIhhF3Y55jIdRCmFR8ThZBDq3Hr3zm4tXUu7u5fJi1Q4wbWMD92W+fBdSJWbu/8WdL/CcHb5iHs/F51PvYQvaPjIigg2cNqYurUqcoVgr7Hc+fOVZEr2GO7YcMGtZ5+xRxwOG/ePMyYMUO5cRD25hL2HjM9/qXrAycN4oA7um1w+1mzZmHs2LFqW/YyE/P9m2BIP7p7sOeXgx75O87iaY3E4ec4KNUc0/GZ/tJnmlFFeB7fffedSj+xiGa89fHjx6s8YJhD9qqbXEE4AQ9/y9B8zDPmiaUJi3R0dHSeKHr9qfOE8JBK/CvjZ5ey+LdluJXlBXilCzIuSYQ8BBHXT+L62u9xd9+fuLZ6JGLD7iJTpZcRb8cFiSL1ytIhyNG4vwhiK5EDJP3IG6dxfn43Ec5/ICb0pgjc3bi6YhjcfYKQoXR1EdjGbRNB8R168l/1ObBYTcs+W5J+fEw0Lv3yIW7vXozY8Lsi1lfg5qYf4Je3EnyycGixddw9gct/0Lf2S+MSHa1gjyxdGyhaCWfMpO8ye105c+PVq1dVbytjXNOHmH7BFL2Mk82/FNUcFNi4cWMV4o7bUqgyfjSjYjBkHN0z6OrAONjsueZU9Qxr16hRIxQoUEDtk9vVr19fHQPhjJpcxgggdB9hxA3G4qaYtQSPjQP/TDBNRhAxRfLgedJnmYMfGfGFDQVG7OA5ckp9DmTkPnn8hL7cnHKePczcNwcdckCjaXZQ06DCa9euqfQotk0hAHV0dHSSwpQfp+B63uuAK4L7sKPqKFCkdhFkLJnRsExj3OXfnsF7VGeJjo6JlBtY2LYLjhUfAP/sRYxLHsXdBzg0sLQI3ZMo8O5sXP59oAjoFsj31neIszOOj73Xuzp5ovyYm/AMyGT51Q5F9M2zSkAHlmgA32xFJd1whJ7agtOTX0PO/32JPM2/QpyF+STcROBeXTFKfc7ZtL9lsS3px4bdw/3jG+CXuyy8M+VFzINbIu6/RPCO+SjR/1/4569o+dgED19gZ3t3xMdbG1Whk1rhI0QBaw17658UPKYUevx1dHSecSo8VwEH6h4A2I+W1GKH21srQrmOAwt/BpoOaYrCjQurmM9aw4GFE9wmINZer57OM0UKRucQEV3CuojmAxJx5SjcvHzgmS4LTox5EemK1ET+t8dqI6KJ8VQNYW34Qf4TO/xVWXj6ZUKpQX8j9vG37qqn++pKo4h+WUS0lWcoPi4O7p4Uwvxi+F3I4fU4Nf4lFOmzAulLN7J6bGxE7HpXF9E6KYcuonV0dFKKAgUL4PyN84bwda5A6m7fQF94+EnF64pijRrlakSCi56ODkk1PdHmxIQG4+T4JiKiX9BWRFvhxNgGQGwMSn6+2bKIdqQn2gJ0Awn57y+cmvQ/FOn5p00RrfdE66Q0uojW0dFJKcpXK4+D1e2EuEsuFOZLgYb9GyL/G/kRH2vcAf+Y92An/p4EPHw88KPHj3qIO51H0HDYXtol9OxOuFnzpU4W8qSKGOaDHHn9OHxzlIBPdk679GShYGLkiYjwCINFpEGT4+ZEJSkJ/Z85qI/7Dzc7FvPPSVn3pMw04NCELqB1dHRSDIpXil1XGN05JH2GqfPw8oCHr9H8zD5b+p4UcyRCgM4zR+px5zAjpXqi+UyEXTiEY6NqosLYO/Ld8msgR905+BBH372GsEv75e8VXF09EvHRYSjSewUCCpSz2YOdEu4cFy9cxJsd3sS/2/4F/I0LtYRNsptiWcRcdVfdB9q83gYLFy80LnA9c+fNQ7t33kFej3SQppFxqXZ4uLnhQkwo8ngEuCTb+IjH+XnhqzGj0K1rV+NSHR0dnZTDoclWTFBwm3qMua297Smkf7c/2Yo5bgk7YPL2txcZrU+2ovMYz6w7B0VryKHNOPFdXWRv3B/53hyJuEcjhiXgqDsHxfa9o5txdflg4xLZj3cAgqq/jQxlXpJWsCHqgSVSwp3jwtkLeHfyu9hYZyNQXBZovat0Yry8h8RcUc6wzNsOdFjWATN/mWlYlgLMXjAPJ4fNwfBGneS8XNAL7u0Hn+/bILLXHLl3XXD9Y2Mw5+w23Hu9Ivp062FcqKOjo5NyOCSiWcazw/eGGEPtM/wsAwLxN7bcKNkT7cCMhYRiOPx+OG7tvoXYiFgVzSNDgQzqN/Z+p4toncQ8g+4c8fDwB4K3/qIEdK5XvkL+thTQzrcl2EOdvmQdlPx0g7LiH29A0HNtcWnJxyrmtVnD98nB5z9MjBPPhWpspsnsXJG2yRgq+QnkY6QIUUTJzl1k6u6zsFwLixKLiElZFxgdHR2dJMFyneJ5pRhfNC4Qmy32s9gOMV8xZ5BC1lv+7fxyJza224jl9Zdj1cursPaNtdj+2XaEB0t5qaOTRJ45Ee3h64abG+fhzLRWyPfWZORu9iViKSo1UmYU0hycSGOnYpbnWyNjuVdwdeUwxIbfM26VhuBrMrqLO9/GeBRmNwtF9l7TXOFe8sSQk/P0FvPSPNvAyVLov28yBhjX0dHRSeuwTqA7ICdFrSPWwmgVxJaJcaoGJ4o7TzdPrO2wFtHh0Sj0RiE0WNgAL/78Ioq/WxzHfjyGK5uuaF/P6Tz1pJyITgU3J2cmDN7xJ87OfAf5281A1ro97LqKKMyPPSnnIdsaZmFk2J0McLMx/WKqGuPF12kUtbS/xT4wftYKZgN7xL8WqyVWV6yjmLM9DU8aDy9ArjVbT/23LMSgbb/CTYS0ZogwP3zrIkrN64/8s99HPrFlZ/bKPn30sl9HRydtQ082ugO+KlbOzMqLUTyfFrNWhTpQAMbKvwoDKqDqkKoo/k5xFGlTBEVaFkGFvhWQ4/kc2PXZLsSEOxh6S0fHSMqJaG06epMN9ev9Y9twevLryNt6HLLWEtXmqPIwP3Yb50HfaXOdzM8RN2+o6B9ZanSAuy+7XC3DeNWpAhZWB8VqirHwooC+I6blncJXdtXEdopxhulWYruNy9KLpUVEQPfaPAcBU7vAe0YvjP9vA4IjH8gKbS5snLSy+myag7K/DkG5oDz4tnpzBHn7o9m6H1B98Vdy79mbu15HR0cnlcNizEeMgtpkrKftBc9yoJilv3PGEhlVpA1OxsLv/MsBhlwWcjzkYWg8HR0HSTkR7QBx0REGi4kwDLCLi1E9xZxZ0Nmu2qjbV3BsZA1krdsT2V/si9jI8If7E4uPsTBVYRLgwMBjX9fChV8HIi4qTKUZfvU4jo+uLfs+D+/M+Y1bpnLYG/yNGO8Mvj4rJMaCTEs4K+sSo7URe1fsiBhd0jjjtfW2RupEBOxH/y7E5COb8XvD7ojoNFH5UJuP/nYWFvmLzuxGfJ/5WNSwG1oVqYr9bYZiTp322HXrvDwfWl8kHR0dnVQAq37O3+BCtRIbFYtsz2WDu1eqkkQ6aYBUc8cwWsaRr0rh0Cf5cHRYJcSGBqspug98mBUH+mVGZPA545bJxN1DzYQYcmAp9n+QVfaTX+1L2YA8ODvjLSWEkwt9oIsP+AehR1bj0MACKt3jo16AX85SKDFwJ/zzlTUUBqkdDgr8RYxuHMQV2oy93QXF2G5h+jRGRikqlgY7AtgAG12zDeJ7zUGj/GUR5YLR255u7rgp4jw+MtQgmNmolP2+XaaeZFk8huz8QzbS0HVER0dH50lDhXJXjP0R9cQ09rZgR8e96/cQeiEUdX6sA09fJ5yudZ5JUo2IjouIR/kxZ1Bp8g1UmnQdFb4/hwrjLsr3m6jyYxh8slJ1JR+vDNlR6YebCWmq/Zjsh1so0vdXEcJOKjjRNmWG7TNL+yaKvv8bfDLltB5bOgXx8fGRtoRccmotvjLjq7PEZnqVxuPld94hLMCsbW9u3IY4si3LKvPv/A1FNffH76nmzrSP6m9m9I5oaUnFMfNcRHSkYV/mGP2ACgVmMQhrHR0dnacB1lPsO5ssVlEsl5iGxSsFdPSDaGzutBm+WX3hl8NPdUjo6CSF1CNVRAzEhosWsWJO39vye0bhsJQ2zRAj+jGJkmRUZI5E6abkm/Zjx49h+JDh+Hb4t4/Y6BGjMf678Tj3j5RKDB80SYyFky37Qeya2Hmx743LaD+afTa3cWJ87eZI2oltghj3w5HZ08TOinGAY5rH+XvKKp5e+PXoP+pj2zL15Yaz003jwkPR0dHR0Qx2quwV43QAHHj+hpiVeRwS46gbXVxcHP5q8xdu7b2FFya+AP/MT1WIKJ0UIg319+k4wt6de/H5hM/Rf2d/9N8mtt1gH2/9GCNOjsDpXKcNPb6XxC7bsStijcRqi1HUchkHBY4X47rE258RY0iii2bLHDX2ODQXayq2UYwTtjwVItpFPRvuHrh27xbe/OtHLG7QBYhxoIbRO1l0dHRSOxTQHGjOMTOvizUUCxdzEEd6kz3l3/J6y3HrwC28tvU1ZCqcCRxkqKOTVHQR/ZThIeIKBeTDc2LVxRjxgsbPVcX4Wqyy8bMjxggdNNN3pktxyzTNtzMZQxJZWu6ImUIa8fh1wWcdNzfExESh2dof8FH5RmhVVC6uPouWjo5OWocuHOxA+U2stVglMS3niZJ6xVf+LSy9EDd23UCLfS3UbIUMf6ejkxx0Ef00QgHKRrUrzFTWWFqnlekC2gZukj/xaPPXjyiTKTc+q/iy5JleAejo6KRx2DlzSowzFb4mVkqM9YGG+Lr5YkaeGbhz5A46hXWCb2Zf2YXGO9F5pkg5EU1hpAY+ifGvI2ZrW7N16qvC9OHR9YYNrHx2aJ38MaE+G9c9so2Fz6bvpmU21qmvTxJX7Z/p6sJYM2LiYvDev4sQLX9HPdcc6bxMozl1dHR00jB0MZwlRvcNvi1l34CpY0WDOsRL/s0pPgcPLj9A9/juiIsR+SwWHxNv+KvHiNZJBm7xgvGzS2nW+h3siK8Gv0wcYqvtLt08vHH6h2bI334mPHwDJXmNW5bunri7jw5aQMaKzeWB1n5WIzcvP5ye9D8R087lzeL5i9FmbBvJcPli7TA57oK7CRWjf/RtsZNinCnK3qszarbPxb4Us5XNTJ/+0+xZoI9zYTEOEMksxugb1mDBeVyspBh9pM3Dd/O4dwEd/uqAmT9zxEnKMHvBPBwePAOjG7ST47P/bjFCtvGb0Rs9S9XFpLrtVSg6m3j7wXtyB0R1mWLz3g2TdIbvXYHjITcwu+67SOfN2RHt3y9RsTGYdX4XolpUQ59uPYxLdXR0dFKO8tXL42CNg0Am+WKp2GJ9MVuMPdKJX65xe9YJHHNjqTilG8hvQOPPGqNAswKy+eM7oB/0nw3/xL3T9xB9X8pxs/GHcdFxyFk7J15c/KKaeMUSHvJvqvtUxOpv/nTMSDER/XrLt7DlTk74pM9qXKIdbiJyLy8ZgJxNP4e7t7/FB8gZ3Nw9cP8YlSAQWKKe6BztHyJ3Tx9c+qWf60U0Cw5GwGCrf50YNRu/M0Yzp962Nz7NERHNU+DIagaOkDaNCmfHZRw8WEWMx2ZNi6ZVEe3uzhtFfYyLiYbH9O7oXboeJtTvZBj0F8sTs3JtHRDR0XLPjT24Hluvn8Z8STPAL71sa3Yf2ojMoYtoHR2dJ41dEc3y3daLNRZ31uoNB0Q0F3m5ecluzNSzGfxNtI1eJF1E61gixUR087Zdcaz0IATkyGtcoh3yXGBnO09UnHAfngF+lh9QJ+B03leWjVWfc73yAeK174iGuy+w4y13EdG2unftY1dEU+dRzHKGQOYTBxwy2kZxMc4cqJWIXi3GyB4Bxu9s3IsAVhO59BXLImbp92lRREsja/X5g9h+44zqGI4RcTti3yqUDcqN1oWr4F5UhBoAmNXatO/2RLSkP2DbLxh1YA36l2+sXDhizOJRu7u54cuqr1O9G5c8SoKIbikiuqsuonV0dFIeuyLaGcxEdMFmBaVqca4etYQuonUskWI+0WzlxcdEwjCNt7YWL0YMU3g/vl4LixfxRLO0TgsznYPLYdnC6Bf/E6P7RgYxraHYfUWMPdCMG01hHiZGPzdCzxgWek8N8cjsG4CCgVlQMH0WFMuQXYWd+6RCE+QOyIgiGbLCm1FTkoso86pZC2CRpFk6U07kTRek9pNggfSRcaBW0rri0tHR0UllaP0mWkfHFik3sDAZuIsI8/CTD5bfviQZvm1neo8Zp/vWuEOeaZrvw/imP3VAIc1OSwp3V5U3TN9a2vSNdkFv/hMjLg5VsxVC+xIv4F0x/mXYubeKPS/fa6FLqbrI4C03QXKJj0OLIlXRWtJsZ9yHuXGZHqFDR0dHR0cnZUm9IlqO7PKyr7GznRsirvH9vpOIEL93bJNKb3cnP+zq4J1g+/sVgIe/RkpdcPcG9vQIkrS9VPrc572jGzRrDKRJ2BG7zfBRuWo8bZqPbhgUstbMWSylaW46Ojo6Ojo6KUrqFNEiNu/sXoLbO+bBK2NuxHPQlBYC1Cg28r09BVWmR6HyFIOV++acmqJbC+g/vauDG9x9AlB1djQqT41C+TG3EVDwedf1+qYVVonRjUR7dzUdHR0dHR2RCs9yb5VOSpNiAwvfaNsFx4oPgH/2IsYl1okMPoejwyqp3r3Y8BCU/uoIfHOVtCpC3b1EuHbyFLF6E54BmSxvJ8/V/aN/4cTYF1Gg/Uxkqd3B4QGCFMZXV4xSn3M27W/1dx7+wJ4u6eHhlxEVJ15ATCgPRHbMZ9pOLtP9Y2f7FBhYmBhuM0xMy4GF5vDcuY9JYuyN5qBCWx2nXJfGQ9wlGQdD3CUXPTrH45w/fx6xMa4ciCBVuZub08+zLdzcnC8vbJES6av73VQ2mpeTictMS2WoaZmtdR5S6DAyjvk2ibfnd5I4DROW0idyfZWZn4PWmI7fhLVjIZbOw3z7xL/locv3DJkyIXNmjqtwLWUql8F/5f4zjMOxdg7JheNv1gK1etZCniZ5XBLz2d3HHYvzL1ax+nV0TKQ6Ec1y9erKbxAdchV+ecrj/E+d0oSI5nGHXT6Ko0PLofJUDkI0rnCQp1JE8z0HBxTOEaNe6S1mD5OI5mxVb4iZ6xxWAjufJhFtrNUsimiuI+Y3s3F7m+uI+WejiL4gIrq5LqJNUOAiV1XJJvM81Aim/eA2EHIFyF1Oe3cbps/Y4zfkQclZxrhQY3gfXtsL5Kgkz7EIOa3ziWle3g/kyQ8EuEJVGTm+W8qS5+S51Vj48BrcviF2HchXDFCTHml8Dh5S8RzZDpSoZrgemiPncOMKOr7aADNms5B2LfkL5seFBxekvJMvWl9uORXcFX2eMwO8M8kOXPFYu7sheE8wYmI0vpd00jSpSkS7Sbl6ZelQXFn2FSpNjsKNv77HpV8/0lxEF+y8ANnqvmmICCbbxlkK3m6GIyKagwePDqsnQvogKo4LVucSGxkHd293Vd4yAoetB/upE9Es1CigOYUr9yH6E/5i9u42k4jm8VBEJ+6Jljqxw8aUFdFzREQfGPwjxtR/RwpQ7XsvPb194T2lMyI7T0asWeg6raCInnNxN2JbPofeXbsblz7bBPp5o9R0ublcoU2k8XjvyE7c+nsqivSZgTh7z1RSkecg+l4kzs/tjMI95qryRWtYXh34MBfKf3dFjfGw+9wmEYb0PPVNG9waOAgoV1rz9BOoGACcfAA1sZSWSPmOtWuBVfOBTyYDWWU/Wp8Dw4MWlgL3qNxA2hc76j7Fhk3otX0GJs6ea1jmQio8VwEH6hwAguSL1nnFaE8/A00HN0WhJoXksdb+weZkLRPcJiA2qT1kOk81qUtEi1jd3clNKp6VCKr2Eq788S0uLemvmYi+998anBzXBH65y8E3R3FpWXrCK3MBFHhnxEPXCws4KqKPDK6J9GX/B6/AbLh7cCnioyOlAvJDYPH6yFyzgwjldFbP4akT0TzP6WLM0rfEAsUcOTWWT1LO4oIYb5XEv7kqIrqwiOi5KSeiFyxaiMEdeqNBobIuEbneHh6YfGQzupSoJdffyg3iBLFyT52LDkGzj3uiV3frPdHLli1DpUqVkDt3buOStMeqVavw44/S4BkzBvnz5zcufZxAf2+UGB/lsg6++8c3IfjfmSjU/SeXiOiY+7dwYWFvFOosrVS+BtMYhgs99GlBlB1xVsowKZw0vi3dpRw5M6Y5gj8aAJRmT6txhda8IEp0v4tE9IY/RUgvBvqNAbLk0P4cKKLLcpS6NPZcJaI3r0SvA4swcdZPhmUuRI8TrfM0kkpEdDw8A92k0K6GDOVeRZ5motLkqK6u0FBECzEPbiPs4j4RrIEihKNwY+NE3Nm9GBnKvIwSn6yQ9cYNE+GQiJZ65r/BzyNrg364tmIICnaUlr3U0HcPLMXV5YNR5P11yFDqRavHlqIimhWAnJOC2wwSow9yFzH2/LLSt3ZXOCKimb7UK8goRmEu5/bItrZEBcuno2KcjIWTtZhXHhTkh0REnxARvSjlRPRPC+Zj/SdjMajGa4hUr4VNjS1mkukzMf9ua92jcPKUYosH4UDzQSJ4rWV88omOi8Gf144gS7uG6G3FnYPis02bNsiUKRP27NnjUh/Je/fuoUmTJrh+/Trc3d3h4+ODw4cPG9c6x8iRI/HJJ5+oc2CDwBpJFdEsY1gOxDLuub1LJJfZcREdL4LS7aEOlrT5hsymq5mkbxLRBTvNl9/ygXME2Ze37Es2tzeQ2lERzTxh3iSGnXVxUdbv+WSJaJZZ3Bfz09Fi0lERzXKNaZsOmfuwJVydEdHs2afxXrJ1nU0iercUynbuB7WtCfPjeGD9GqRaEc3j4rU2HbbN58cIr529GQvN8JJ/HIDI7WLlnyOi+0mJ6FKlSiHSPR7KBc0F+Hl4IUbqtWitXZ6MeEmBM2b0d3jppZeMS54uUoWIVgXqj10RvGU6qs4yHA4L5itLv8fFnz9AmeFn4JdbWpdWHiZHRXQCxnsxLioCkbfO4shXpVCg4zxkrfm2xUnfHBXRR79+EfeP/YXy392SRoFBhPC+Pz+/N25umoRy316FV3opbC2QYiKahdNuMU75bXKVMFUWLIj4mW/8LR+mfRHNyoWzEkpZqbD0Kpi/tfa8snwy+URbGlj4pHyihxh9orX0h+P5MG9EpPhM7oDIrlMkT42ZZSovzfPOtL2tdcT8s8DCcabyia5q0yf6vffew6FDh/D7778jQwZXzMIj4vL+faRPnx4NGjTAtGnTEBkZibp16yI6Ohq3b982bpV8vv32W/Tv3x979+5FxYoVjUsfxyERLfmoxLPc0xcWDcL1NSPlGb4mZQzfR9tAfueIiKZw9kwnj8rA5xBxRVqHgrtPOuR4+XPkermPQbBbQtJPjojm27JTk97BnV0LUXHCAynX+DBbxhERzXLx+rqJuPz7J3A3SyteRAbfvhX74Der5+CwiKagYhnC67R+mQilqUD/iUCeApbLn8TYE9FMnzbyAym3JskFkQvuJTv8aBzQUp53uqRZIrkiOloKtCXynI9+T+x3oMHrhjLPEo6K6KvnpbwvKtsHPnoMHJS45QZgrcHE805tIpr10yWxNWLXxBhev58Yr7Wt6826y0ER7S3/FlZeiPtn7sMnsw+qfV0NxVsWlyy2XbY/KRHtKyIipONE3JNnUmsooHv9PR+1X2iCZhXqaP6m1Veepe4/jUCT99vinbZtjUufLvgYPVlUhRCO0OMb1FeGh6PtaOumBDQ5/Fkh7HrX0IOiCXy+xNy9fOGXk12wQPDWmapScAbOaJi+zMsPhbwY02S0DoULXAGSDMsJaov+YuyBpg0xmumzNQHtCCxfKH5NaVJwm/ZjMkd0qDH/HrMnRcL+zQ/GSVPtV5rx/wn/E+O6hPVmy+ytS/xZTFUoapltvv/+e6xfvz5BQHMATawxMgD/mj6TOLmX+d1SG5zLzLfntqbBOL6+vvjzzz/VfgoVKoSSJUsiICAAd+7cUevNMf2Of81h+ubrXNUP8ODcPlUWMc77tZXD1PPtSD46AsuF27t+xe4uWREbdluJ8/JjguGfvwouLe6Ly3+OdLo8MoeNgYvSELi9c74SuVrkGTsI4qPDpZHwAO6+6eEZmM1g6bPBwz+D81nF8v6QtPjLyI7KSVXV71W5KPe0K0clWZyQxksF+XBwK/D7SeAfUdtZc0tDvz3Qt6VhHIeWXDhhENAk2pEuVgdgfnCsho8cbOZsQJDRMom55tFwDVQj+8WkjQEWB8z7u2KsM7aIOfk8sOc55EwIpgRMQcT1CPjn8Efsg1j81eovHJl9RK1PjXhIxvj4p0dWv0DNLZ1/IPxF6Kb3T4egwEzIqrEFBgbBz9snleasNjxxEc2COOr2BRGaGeCVISe8MuYyWm54SMFMVMEc4KLXy6ary8LGmSvN30qtER9r3nVqwEVvYZIPz5XGusiSOYuttGlPJVJAR4Xj8oO7uPTgjrJrYSEG9w9X3ABu7rgZfl/tz2HsHEbXrl3h4eGBy5cvq+9eXl7KJeKff/5Brly5pEAMxPHjx3H16lU0a9YMnp6eGD9+vOpFNhEaGopZs2ap31Ek79u3D40bN1ZpRUREqL+vvsr55q1Dcbxx40a88847avt27drh6FH6+MjtI4Jh3rx5aNq0qVrXtm1brFu37hGBrwnyLN8/ugZZ6/dFlRnxyFq7m3GFNvCWCLt0AEX6rka5USek/AtUjfpiH6xA7jdGiYDfhZj7IXavmSOveNnjfe/YVtw58CfcPNhlpz1F+6xE2a+PKiv3zQkU7DTLeV9wuoENFCH7v3dFXEnBMXeX3GAiorXEV5TagMkioHcAufIbLsyyw/IwDBaBfcDwJsx+FjvGfXlW36wgmVXeuMBB7O2frRWex1ezgdXynCw32lI5D+07L10H64bSYux8+ViMPdAjxLKKyaV3VETbEsMxoTHo8qAL2l9qj7eOvoVOVzuh5oSa2NRhE27svmHcKo3De9gVdY6JJKbvwiNJFTxxEc3XqX65iqPM0D2oOOEKKo6/rKzyD5eQ63WOeANKfrYHlabcSnLYuMfgteeDyKsqxt6ZqGCOYJNGb/4qTqXP3wYUfl4q3vWql0f5OHJ/HjzHONmXn3zWsGtJJ3Xh5YNW66bhf6snotnaH/Dyqgko+8sQfL1/FUKjNK7J3D1w9t4NNF45DnnmD5CbzMHHmI0bG9A3mZgLszNnzigf4/LlyyvR2qhRIyWo6ddcpUoVvP/++xg8WASHkQ4dOqBTp07Ili2bEtEffPCBEtK2oADOmNHwtoafx40bp9w9Tp48qf5evHgR9erVU+tHjRqlRDX9qV988UVcuXJFifQJEyao9ZoheZDrlU9Q4J1x6hmOY0g5DWH0i7wthiJdwcoGsWm6NvLXKzAL7u5dgvArR4wLreNIj3JcVBTu7PkZ2er0QKaKfE2kPXT/4Dkx0hHNpk+3o3Cw919ngZGzJFH5HhGmylTNYNblKwy83UNaGcbvhO4P7fvLsjvA+TPa1JJsEEz5AmjYCvhsqmGZo9i/xLwRDD3bLGrMLa3B68trzXY5jefQWSwJdbM1Vw4uz1IuiyQVq1w3TP+80hkalgxhl2Zxl5uUDWSpC7ZdO43jd66pMkwzWMfQ1Uns3K3LOHjxhKqHHMGR2zcto0Xx4DQU0vSd42AXc4s3+gDFRdy3OxDGLnI/Rd06j1v/zkP0vZuS3n3c3DwLZ358U0XryP/OSFX4Jxf+tkC7kfDJVhRXVwxB6JndiA0Lwe3dq3Hvv9XSIBgOD1f1pus8eaQVVTFrXux94zPsaj0UB1t+iffKNsDgPcvx1+VjhkJIE9wQLYKu7YaZqJmjyCOC1xXQr/jff//F2rVr8fzzz+PChQuYOHGi6ilmDzB7nOmecfr0adWD/Ouvv6JOnTpqHbf57LPPlAuHJdgzPWXKFFy7di1BBFMwDxkyBO+++y527typ3D42b96M+fPnK0E/cOBAtGjRAlu2bFH72LRpE2rXro2hQ4eq32uZHyZR6CqY/mM+2XL41EOBJRpIWSICz1lkB8HbfxJR/hsyVX1T9mnNydc53L19xeSvtMO0u9UlMzjY29my3xbMf0vXODzU0Lubq6BhG2dg23TRj8Avk6UVuAC4c9OwXEuYV96yI/oQ01JFza4B9IfnSyiNXjQlFtju8i8uxnCB06qIjpMCY6cI52/3rsCQ3UtRe9m3GH1gjXYPogj0szcvYsK6efhm+XS0mf4pBv4+UY3l0Unlj1pcjOF9oLOD7UxwApdLv3yIU+Ob4NSEl3FuTkdkKNsU+dpOdf7Vo0ChX+Dd2Qg9vVWlf3L8S7iwoBfSlaiPzM+3hxsHeug8ncRE45saraUuk0cqirW+G94qWg3FMmTHfTYGtSqfPb3w65k9KBuUGxUy52Gt4DjJOAZzNwmTX3OvXr3UX/ZGsyeUkTXo4vHFF1+o5bNnz1Z/ScOGDa1GyeDAwh49emD48OHKLYOEhYWpdAsWFPFiBnukKboJe8X9/ekwaWDu3LlqUCLFt58fFUQaRa5PdMgd3NoyHQEFqsE7o32fVruNBqkAr676GgU6zYNv9ozqrZiWxBtHYl9c1BenJ72Fs9M7IfL2ZTVQ2jWkgNDhgL7P5X7MkBlIL/tzpiuNNezNO8CwLsD3ywx+3klN0O4pS3rspWdPd9+3gf7tRKjfNoj3tAhf2Jrun1Viy8VeE2PPtAPY823mAEEOLiSnlp/Coe8PoWy/skhfxOA+mrZww6l7N9Bi3VTsuHEGedJlgr+nN3zZa6wV3n7oMm84pv69BOl9A1AiRwF4q/Qdu49T4Il9oqRaEc2yOUuNDij24Ub4ZCnkXEFG5Pd+eSug6PtrkaflGOR6bRiK99+CHE0+QWCR55x3FRGYRmCxGijYYS4Kd/8VuZt9LX+XIM/rI+CZLsj5c9BJ3aiJWEwXWf7KfyxAGKdZE0Qw/XfzHPpt/xWN8pRCNj8W+km4qTS6/0xi+ubNmwmuGt7e3qrnmOTJI+LeDPpZm0Ph/fPPP6toIBTeH330kXENT9FQ5CYeTEhM6xL7P6dLl079pQuJFgPmnhhx8biz5xclTLM1eO/xXmoLWD/feBWN4+iwKkhXuCYylK2NeAdFiKPw+PzyVZZjfR8BhWvBTe7HW//OxInv6uLiz1+oXmntceX1lbT5SH3eHdi+Bhjzp6EnPLnw2jASxadtgC9mAnVfclgIPoK9Uw6Unbz5HlDjZXkYMgAr5gIdawAzvnPYjzjVwOP9R+xbsfFiHGjIiboqiDnoImTNnYOw5/nQlEOYV2oeFhdfjH+6/YNCLQuhxnc14J3OIKzTFvHI6Z8BC1/sgum126Fj+SbI4KVxR0JUBL5+vTeW9hqLng3exEula6gJvBzFlU9saiD19kRLznNwYWDxuuCEJVrAgTv+ectLmnWUpStSU/UcaqVxCIW0V4YcSFesttqHf74KcJOWYYreSdQsbCi6yggLO0vrtLC03GHPa63MB4dvX0augAxK8KoK1UnCo6Mw5uA6NMlTGm8UrY6YJxz0nzGeTYSHh+O7775TQvennx6Gy/rjjz+wbds24zcDdNlo3bo1Bg0a9Ig/NTGJQvpfJ8baujJlyiBv3rzo3r27Oo60CNsH9IG+uuxL5G83A96ZsjtVZrh7ueHkuNYqLn6hLj8hni4LZl1C6o2J2ffkwLIufYkGyPPGN8j58kDkaz0O5UffQEChFxBycAVi7mv4BiYlCJCD/eZzYMlUYHMIkDOvNGyM65JDOkmvT3sR5GuBxm8aRCAfGdNrdv59+Agln/QiovuOBNoPAD4cC2yLlDJUCmj2TKe13mjmUWWxjmKct6CaGF9sTRJ7+PIp2TAedLF2xfDq5lfx6r+v4vkxz2Pv0L3Y3HUzIu4Y3nSlNQJF19C1LxOjs0gDXHOpIfVM1YKlUShrHsTHRCMmNvap711OClo8wq5F6zuC6Zmbq0iJfViC4pYdggwLRH2itX0qRu32ldkyLY2urXyFl9aeUlFBodGRCJzeHW6TO8BtUntMOrIR65t+gJz+GeU+cP5GuBF+DztunMPUWm9rkp6WsHeabhbsdaaLBl016MPMuM03bjwc9c440ZxJsEKFCsiePbuaWZDG7QgHI3766afKl5p/o6KilG81hTNdPOjWwXXcnu4dkydPVq4kRYpYnwk1tUMBHXp+H44OK4987WciIH9Zp9+MsWPg7r4lKPnZboSe2oHQ02KnDiE2zBBK8MHZHWK7nHabZIxqxptm1A/GivYMzIpcr3wh4n0vrq35Rg3eThNQbM4UpTZzOLDprgjq9M4JaObr2UvAYSmMh80HTh4ADu4ADuwGzh0zbMNwd/tkmbONYd5AXnICnlL48y/jXKvIHGHA8j/ku3G7tAI7hOlSw76zWmKM0sHY0ZzJVoMOFk9/T/hm9YVfFj8UbV0Ur217DeeXnUfISWk4pVVcXR8w/VRW56QWUr+I1kkabMmz9c7AJpzUJClGYWxpOc207msxFmQUvObrEv/W/LutdYmXUfxzYqM0+Ly6i/Lnq7VcIpppu26ex6DdS+VUnH/VQb/qAgs/RevCVeDN6eOl3kzwh+Vf02db2NmE8aHplmFyv2DEjCxZOHWkAX7mRCmm/VLYMuwdl5kie3DmQ6ZDAUyh3K9fPzUQkPB3NG7PwYRffvklvv76a2X0iyYchNizZ0+0atVKDTqki0bz5s3VoEb6O9P/+fXXX8eIESOQI0cOfP7552ofGzYY4szTtYPHZaknOzVCERtyYjNOjKqJwr1XIqjiS0mKbJFwD5jBCES3/pml3uSdGNNAjc2g0c2C4pmcmvwaTotxMKCriItyxSBGB+7zpMDkaAunAVO/ABaL+KRLhLPw9lsl4jn4OvBtX6CvFGq03o2AaSzshFlSmHYWlRhh5+1Jck7Z9JtxH6Zd32gTzEu2MxwU0UmJ98ye6TxV8yBHjRw4NE4amVFONmieBZJ4Pybn9k1L6CL6aYTlAF/f0v8uKWbrN6Z1ppHsidcl/q35d1vrLC1Li+WYtNIZtP7EO9/icsfxuNxpAv5q+gFG7FuFaUf/kZLEiaLE3QOf7Phdva5rU7gqtl76D7uunsTRO1dVW2P7tVPYfeOc7MPO42ynYUIhyxkE2UNMOAEKI2/QjYK2aNEihISEJIhsulFwECCXvfDCC2obhp1jz/OtW7fUuurVq2P//v0qdjSFLUUut2fvMbehXzXt7t2H8a5z586NxYsXq8GCXM6/f//9t0o/Z86cakZFHptpHd1ITLAXnL3XPDan4SUTe+TS8YtxubPwct07sQUXfuqMYh/9jUwVGqmxIElJ3+TiYg5FeJbaHVDh+/OoPOV2glWdFYwM5f6ntqk44bYKKRob7lxrVd1yZsfK76aoSj7Zi9q95+xiygtlxh1peA3UDKG//CCCdgQweR1QvPTDtJ1JP1LS7TIA2HUb2HEL2Cl/aXvEvvvTsM3whcAxKfgCDD79VrGXh3z7aP7oU3Re4nR/AmdFTCseTsxvS0WYaZmDjQF7PtGJoZCOjYhFxhIZ5f7V4qZ6ykniM53EzdMclm5Zl8DWIWMlc7CJCoWksRF3b394uCh9d09vg1lap5GlOCxsuV8aC2JXwvSfxDmmNIwJzegckWGomLMohlR5FZP+24RrSZkUJTEioicf2YQ7kmaxxYNQ889RqPb71/h01x9q9fN/fCM2UvLXNSERTD3I9uA29IdmGDxCMT1gwICEeM/mPtTJwZFj0JI4ye+Y+8GIvh8hwtQQvif2wW3EhAbL3zuGSj+5xMfhzt4/cXXpFyo6kK8Izqg7wSpt7jMugiPakl/9UEibhws1WbxxQFBseIT6rgRpcpGfPji3F5HXTyWU6/dPbcOV5YPhX6AastXposL4JRseWojk891gMfnLyWd4/PdEiPI7lzsD01o5F1g4Hvjwe6BACSCY+zKaA5PdWEd+yI4BTjee2NS1FeT+wn3564zKoN/OwsnAmWMPw9vtlEZ7z4aG8ylXTs5TbZn6YV5wnDLzw7xe2i7GdnsVMcPtmywYlePIj0eUYPaUf17yj6L6/PrzuLnnJgq8WkDq+BSTRDpPCW7xlroyXMBrzVtj4+kYeKczToGtIW5uHri15UcEVX9LHgJfeQa1PSUOwuHsYsQ/T3loFXLPHPoU3vp7qsWepaSweP5itBnbBmgmX2wVOBTQ68So7VhR5BR7Xoy7t3V67A3gVN50vXA0G6jtNonRNdb2ZHWGAv+4GGdj57wQrIhM8Dh3AR3+6oCZP880LEsBZi+Yh8ODZ2B0g3ZyfFZUAcVI4mvn6YMhO5ZgxvF/8e9r/ZGH08FbwtsP3pM7IKrLFEOlmBgRnxMP/SWn/7BG95Rle26ex/RjWzD5hbfg5+mFd0vWNgiDRHAk9azzuxDVohr6dOthXOoaKHQ5CUupUqXULIPHjh1Dly5d1ABCUxSN1ECgvzdKjI+yPqhYruWtLTNwa+tMEYf+CDu/W0RnCAIKPa8a0x4BWVD0vV8th8aUy3T/+CYE/zsThbr/9Pg2sp6TPJ2a0FQq9HvwyVpE9vdQ6XBil6CqbZC1dnfDoOTEyO9j7t/ChYW9UbDTfNAv2REYdu7o1y/i/rG/UHFimOrUsAYnTzn0aUGUHXFWzl9+aKFYotvI5d++UBFFAgpUVeUiz9svTwXkaPgB0pdpYNU1haL7zJjmCP5oAFC6msX0lSDs8ZoodfqqykmH3AJOHQZKVZV1ASJCpRUwmwrLBi/IdvtFtFK8JoaTqdQPMvg/l5PCL9JsICSPJ19RYPh0yz25zPINfwJrFwP9xgBZclg+h8Twd+t/Bz5+Axg6D/jf29ZFLv2Cy8r13y2FoLWynDfwxM/kOBYBlehALKz9GWjUSspPedYryHlZu8epFzevRK8DizBx1sPBwK6ifPXyOFjjoCFiiaW8YtuCdRL/sqjgNsybQ2KtxTjRo3l9YA7rs9+Axp81RoFmBeSnj++Aonn1W6sRExYDn4xyA/I5ks/BB4KRp1EeVB1SFd4ZLTxvRijCp7pPRWwKD+gOEH3zoPdsOXdLN2IipC7JO+s9vF6gPCbUaivX3s6xSr3R46+ZqF/vVbSs/KJsb7tSpz5ZsGM1Fu5eg+UfTTP43dvCywedp3+Guj1bJoQxfdpIMRHdrHU77PKqBb9MueWbtrt08/DGyfFNULDzAsNU4RqLXM40eHuXFJZCUNXWCb05WsIK7cRYqXRSQkSznKAG5fNVXEzqJuwWYxghTgzHdo61w0iqiGalwTBFUm+o7Y3ugFbhMaVBER0eEw0/+irzfTwLLrlngh/cRb3lY9CxeE28X7aBcUsL2BPRxD3RqwJJf9mpHXhtzWTE9ZS8YOFnpcBMSRG9detWNciQIeooqOkzXbp06QSf6dSCXREtRN46K2LX4CajhCp9FTj6XZ5RDqJLx9CYln4v96lNES3QXzjyxkkR5oap8h557uWzd6Y8Iq4LGfaZGFb+yRDRTCr8ylH57U059hcsp23EERHN44i+cxkRch4m3OQ+9c1REl4ZM9v07XZIRPO09m2Vk+UzJztjQ5VvM1SIQ/kB7/kqhpksrWJLRDPdA5I+3ZMsPTv+gXJslQxlUmJ4bMkR0XIKCLkNnBQxWbiMCMos1n/niIgmPI/9Wwz5Q/i3eEUgvdSFlosEA7z8qUlE8/CpyS6LSftG1TUMOUiBnF/MVh44IKLZCREeHI67R+7iwZUHCLsWhvSF0sM/pz+CygTB09fT4u9M6CJaLpuUTbqIfpQUE9FvtO2CY8UHwD+79qPoOQJ8VydPlB9zC14BGVkHaQp7XK6tGKU+52ja32blkFzYS7Szvbscu+2b2B4OiWgWVnx1ZnKxYH6xo32pGFv8pcWsHUZSRTR7oeeLMXTwWjEOHLQFn/m0JqKloGi3dgp+ObMHfzV9HzVyFcOa84fRZNU4vJS3DH6s/Q5ypZOaw9qN6YiIToyI6N9P7ULzdVMQ1226zd8liOiWIqK7ulZEpxUcEdHqfrOFtXJGfmdPRCucSN8kogt1XiDfrYvhxzDt004Z6ZCIJtbOwU76DoloYu/U7D0utkQ0sZU+j8nacSVXRBPmGc1W+sQkovdIIWi57f6QxOdhL22S2kS0CeYN6wH+NZ2XvXMxE9EFmxWU28L6jUExTdkTFxun3DfUd7s7SOUimo1LngJF9Mw+aFagAsbXeUfykccqK6zVPY6KaOWKJxdE0lm4YyUW7FqDZR//aBDRTNtaQSp1YxcR0XWeYhGd+NFL4zjyKCQPpuuqtFMcnghfl1Hg8g5ghcBxWOXErL0uSw5Ml24crMAenX/j6SI6Ej816q4KrlrLRsNtShc0XT0B3UrWwsr/fYBc0rCzWoilJE/NDZxCmB56a+YsltI0NwdIch9IEtJ2CFN6iU0rWDfbMmexlKbJtDwPc5huUtJ3ZLuUOvaUgMdu1GzqcxLPxZ4KUOslbZP/s+tUQ8pwT8T1sjP7ser8Qfx9dh8iYqNx7n4w1p07gJVih25dkvN1Qup5eOCf47ux6uDfWCm278JxXL93G5v2bcSKA5tw6NIJm+VQ2s5d+6QeEc0HxpZpTGxkqOpt0Tx9Y3ociBQbwe5e47LUDI+PvdYcVK/VsTKdK2J0WeSAEO1d4VMXIqQXNOyO2B4zEd9zFmJ6zMCUOu3lRnPBawsi6TYrVBlxsi+He691dHR0dJ4e3NxwVgTzq2snodVf09B0zUQlaP+5fgpvrJuC5uunYvLRzarHOdl4++KDX8ai1bSBaD39U0zb8jtO3biIVyb1Q7MfPsa0f37TblbeNEiqENFsJD04uxP3j21Sr0Eftc0IPfEPYh7cNm7tBCLsou9dx90DS3F8dB2cn9ddpR92brdy2XAWNw/RoVeOyvH+jQuLP8Cxb55DyOGViLl3w6mGoMug0GUzkeN2dolR9GY1LnMWPlOcU6CYGGegStk3YE8G+kPH0H/RaK5+7ceCi/vR0dHR0Xn2EMFcPks+xPf+Cfe7TVd2q8sPuNNlivoc3mMGfqj7LuKjrfmU2Sc+LBS7By/B/el7ld2duhu3p4hek89Rsw5jwjuD4OnguIynkdQhokXA3t4xHzc2TsCNDQ/t5saJuL5+jAje2oi4dsIg+pKL/JZi9uyMt3D5twHwz1VGRE40riz7UondSGlZOSN0+dvIW5dw4vtGuLz0S8SF30VAgSq4uKgvTk9rjeiQm84dv9bwnudszH+LLRSj2wX9qAuIaSGi/xPbIlZJzEWdsTpJJDXdf6kANnpdZmogopsqFyyud9Y40FQSd/PweHydJuapbhdGDbK8XgNj5jCf2IHhKiOWlmthpsGmkleqPDUtN/+c+HtS1tF4FRIv08q4Pw6qTMn37axjuV/+1dokq9w9GLTOdf9SJexMob+0NYuJcqroV6FFGY4xPNSy2RHozuw7LZBKBhbGw92LT4DxqxEOGLy2+kdc/uNTlB1xToWassTDgYU34ckwYhbOKD42GldXjcDdvUtQ9P118M2WXbmpRt9/gP190iHzc+1QqPsci4OAKPKvGgcW5rQysFANlJn6rup5LjP8LLzSB7AORfiVC0pY539rMtKXqm/1zXuKDiwkLMj+FePumF/sheZnBpHIZvxsCUcGFvI6MrteEyslxuNgb/c4sadxYKGzJGdgYRJIyegcaYXAAF/k7r3RJfnNBz/swh6EHFqBXK8NT5h8RDMk/ZiwO7ixfgxy/u8rgxi1CR9w86rM/LvldXExkTgzrSUKdfsFDBuqCsvHtk0+bnLPX13UDyFvvg0ULG1M3wX0lAJt1nYpiBk3TUMoPvdskkL7L6BNHyBDZkP2KBLnk/n3JKzzk/quXTVgxhYpQ13QE8GJRfZuQa+wo5g4Y5ZxoesoX7U8DhY8aIi4wVPVEtZnfwPV2ldDzro55bE27sBWdicRd293LKu+DDFqRqSUI0nROZJKEqNzJBk9Ood2JCc6h4ef6KlRTRH0fHsEVW4hR2u5snBERDOU1MlJr8A/dxkU7DjJMNEAkQdqT1c3BBR6DqW/2vZwuRmOiGge639fVEf2lz9DpvIPgyFTXJ+f1w/hlw+jcPclIpYDjWseJcVFNGHBQ5hfjBe9WozuHLXFTOsSY09Es4fjBzGm016M+oGXjSGLvhXjdOTEWuNVF9HGhdqhi+jHSR+YDnHZK8onVxR/blKOhCDm/nX4Zi8hz7TWbj3yIMh9GHnzFHxylDAu0xi5Dxkb2z9/VdkdH2Bt84k99RFX/kNMrjyGUHIuuQ7CoW1AhVqSXxoLH/aQqElZbgK5C0m5ZwpzpCHs4d4nyrD8C+p6aA7P4dZ19PpfA0z8gYW2aylbriwO3zhsqEO0vtysG24DGfNmhG9mX3nmtL+fOJvhza03VQjPlEQX0ambVCuiKVxvbJiCC/N7iLg9At9coqqsHKkjIppwUoBra79D0b6r4BXIODuyqTx8e7t6ocSnuxFQoLz5nAcJOCqiDw+qisK9lsI7A2cuMcBZvC4s+Ag3Nk1Cua/PwzOQ3byP80REtDkUv5vFGOyeOssw8/Pj2BPRHL/wmeGjiv5hfi0onPl71pkfGr8nhvl/QozRQlqKJRbRO0REr0l5EX1s6Cx882IHl4lonwltEdl9huSXCypLERAzzu1A2BuV05SIfvXVV5ErVy5MmSKNC40J9PdB4eFXtK80iIjO0FP/4PbOBSjQfpaKCa0pkn5M6C1c+v0T5H/7B9FC1lq8yScuJgJHh1dByc/2SPlq6onWDnefAJz/oRVu9+wDlKisefoJ/C8/sFHU1QPjIG+tYE/0P8uBTX8C3YcAmaXA1Poc/NMBdTJImXxDynIXlDsMW7Z1DXqdWYOJM+cYF7qO8tXK42BFY4g7rR871l8rgXof1EO+V/Kp8HWOYivEnfk6Dx8PzM04V++JTgrPQIi7VCuiKYwv/z5YNEWcCNfPQd88azgkokWARd48p3yimVahrosRGXwBx7+pjvSlGqF4/zVW47k6JKKlnjky5AWkK1YXuV8bKj+i4jOK6IX9cX3ttyg38jK8MuZSyxOTKkT0RjHGi35HTMpui9gT0ZZgRxZ7uh115+DkLByUmE8s8T5uioiuKCL6p5QT0QsWLcKAtp3xXL7iLhmF7OXugV/P7sXr+StYLcydIU6O+aa0WNp//hG6du5sXJp62bJlC5YvX45WrVoha9asaNq0KQ4elMpXQxyKE51c5NF3KE50cpH0kzPZSlJwOE50MnE4TrSz2IsTnVyY5cmNE+0ojk62klxYLqfGONHJgfLAzmQrzpImJltJKnpPtNOkThEtlUTE1eM4M7WliNbPEFSttc3KztGeaL6VZDqnf2iGu/v/UMtKfLYbAfkqq31a/Z2DIvrkuBa4s3cJyn17DZwamDt8cH63quwirx1DuVEiojM8YRHN8zS5aFIQm86bPb5rxLKIPSfG5ZZIARGd6VQmtA1si0LFCz3So8CCkTPf1apTC+XLcw7YlCEkJASr16zG2XPn4a6CzmuDKeuZ5tnTp1GgUMGEzixT9pvfkqbtba0j5p8NxCNzUGa80awZMmUyvIFJjVy9ehWzZs1CbGws3n33XYSFhUlb1E3l/759+9C1a1fjls6TJBFtynATj2bu48j2SRLRyUjfYRGdOG0TdvaRLBGdhPNIsohOah6ZcFREJzX9pIjoZF6DZInopJxHWhHRpnOy9RsnRHRqn2yFZWCXkrUQrbVLkuAhdc+WqyeRM0c+FMycS+qfpFwY+3hI2bTx6E4MGT8Kb7/9tnHp00WqFdF3dv2My39+jiJ9VsA3e1GbD5CjPdFxkWG4+PP7uLv3NxToshA31o1B2MV9yFD2f8j9+jARuJYLQkdENH/oGeiG49+2wN19S+RH7vI7bzmezLLODQzRV3bEGXilt+wnkWIimoXNMrFLYpwxl5UB3xQyUsc1Md7necWsHYYzIlrqGkem/Q46HYQpTaeg5Vv059B52mEvc+HChVGtWjWsW7cOERERiI5++Pray8sLbdq0UVOKe3rylYnzODpjYVxEKB6c260+838cxBdYvJbd3zkioumFEXP/DsKv/Cfp8WF1g6d/RvjlkwainfQdEtGyXehJ43TQ6oDVScjHWATkryxCljMuWSYpIprnESvXLOzCXsTHiuCTbT3TZYZ/3rJW8ynJMxbu3izbcCPDOaBMdcDXAXHvyIyFIXcM03AzfeYVfZGr1DSUi9ZwVERzuyP7gIhwWc/MMJ4DZ5IrXEoEZVbr55AUEc3zCJPzPHPUEDGB8DwqvWD9XkrtIpqXmvUGB6Wz3sotZu1ckimio0KicGvfLTXtt28WuZ9s8KREtLfck/++PhAPXBDO1MfdE9/sW4lKFWugXrHK6q2lwnibJmD+PQnrvD28MGzZj3jrs55o+7beE+0USRHRsRH3cGb6m/DNVhgF2o+X78YVVnBERMdFh+Piovdw/8RGFPtwE3yz5oab/O7+iYM4OrQCgqq2RpHeCy3uyzERTURIp3PDpT/GIOLiAXgEBCFrnR64vX0uQo6sRbH318LDz7KfRIq6c7CsWC4WrL4Z8BNjPGeGuLNVeSRHRPOholso/a0fjrm0DHuiT2fCpMaT8Ga7N40LdZ5GgoODcfr0acyePVv1UhQoUAD3798XHWNeQhvw8/NTLh49e/Y0LnEOR0R0tAjVK398irsH/kS6IjURFxWOe/+tRr63pyB7g26MkGkZOXx7IppvxcKvnsCVpV8gOuSqlBtZVAz7B6f/RdH31yN9SYbJsYKk78i03yy3dncy5KUHG/PGk42LeoASn+yAf74KFstK4qiIpoAOO38It7bNVuebrlgdFY2EnQXWoh0Rh0Q0T+v8SYPf8TRpfT/XyBBlY/taoHUf4MOxso2VBoQJWyKaWRNyG/imF3BUGkpFpfFy56ZhMN+w+VKGviX7M2z6GI6KaI7/qJ0PuH4RSB8k2xg3otD9Wn77ohTU1jSZSUTbm/ab+RQiavP7jwwRQwqUkOOTAzywFfhXzsfaOaR2Ec06abLYeTFG9PhUzJoWMBPR9qb9NhEfG49DYw9h+8fbUW9uPRRvW9zm756oO0ffuS5y5/BGr/XT8WL919GsSkN58B2t1B3Eywfdpg5ErR7N9Wm/U5LYsDuqMgmq9rYU+MaFThL74DZubZmOTJVbwS9HblUBxoqwC8hXDnnf+gGRt84aClWncEOMlI25XuqnKpD8bcciXeFiiI28j2z1elsV0CkOC6KXxOj7bDJGwmAPtK3COrmwwGR0Qu5DR8fIsWPHsGPHDvTt21f5PoeGhloU0OTBgwdq3ZIlS4xLXIyInZCDS+GbswSKfbAeRfv+pgYkF+gwBxfmd5eG8hDVeE82cprRIdfgn7eClBVLUPQ9MUk/W/2+OD35VYQcWqkEqj1s9oEYV3lnzq8a8IV7/qmsaN818MlWJGF9spFziIuKxsVfPxSxHIpC3X6WtP+Qc1mNXK8Nc77sZmN/cEd1LTBxDTBBVNL4VSKs1gPLZotommbYzhkipTAsUtaQ7sRf5e9KYOAPwOdvS6N/hUGcOYMq+4w9/t8vB8aI8KZNkoZABRu9xObYu0737wFDOgEHt0l+zZF8kv2Ml32M/t16FKTUDq89o0WZ8oedNw7iaC90ZEgkLq6+iPyv5jcuScVQuLvEYhAnz1cMP9NdxAX2tM9mmOpEdLxk+sWfP4R/vkpIX6q6zZ6ipGGonPk61jxNfg4sUc/wQYNKhVCgsweGkT5C/tuNm/9Mh1e6LNY6jJ4MFMus5EzG766815m3rhDoOmkWunEUKlRIuWvYeyFGv3G6e6TQizMWFEhf8kXkaNJPuSWYBGG2+u3U31ubJque3uTCsoG92zlf/gRegVlUeeHpH4gstbrKvsIQfvlgQnniLO7eAVKWSnlaopbBStWFh691Vw5HocgP3jEP0XevSD4NRIYyDRPe0nlnlha5s5eKArDnMKDTx0ClmobGv4cUoo0aAEVF+I7ppzZLNjy+rLmALp8CBaRRwbdl/gHA293VaswcniTxZpdqzwNVahmsel0gyIYrR1J4ICL6yC4RzdLIqCb5JPeWKmsrOyjSUxt8rnaLcaA736i6APpBr2y4EhlLZkTO2jnlvk2hcsVVsPPBS25Wbz8zY0tEG1S56+sP+Em5kWCB8jw6UQg+JaS+nmi5F0IOLkPWur2svy5NDsbXflF3L6uODb5OpNGl4+hgKZDVDGBqk+Qhv40Nv696p0xpR98LxtkZbZG1VhekL91EwwaBjk7ap0ePHpg2bRrOn+f7WvukT58e169fx/DhIm5SAO/M+ZQofKTRbRSJWkBfZpW2sf5muaR8itUXxwoLaz33jxKvRLu5aSHe2CkQdfsCstXtCZ+sBQzpmtAgfSUGq9QxCEJT2kxXNfglfzJyFLQGMG3z9E2fS1Z++FkLTPuh8T5yNI9sXWLeNH/OkNZdbjne4o/2PGt57CkJddkesY5inG8giVAg24IzD+4euhshJ0JQZ0IdRN9P47077u649uAuXl0+BummdkHGad2UlZ7/iWG9Q2WEdXibuqUPQo2vWiND18rI2K2KMv9O5bDluLR27Ahp5/ae+klVIpqF8q2tc5Rfc5YazTWtsLwyZFevGYO3zsLuTh7Y3dHTYJ3c4eGfEaUGbbU40YqjeIhoZtSPXR3dEtI+0C8L/HKXRZ6WY52+kXV0nkZmzpyJPHnyGL/ZJk6EU8OGDVG5cmWcPXvWuNSF2BA5/oVratMoZrFgNBYRMeH3EFi8HrI1/PBRUWoFR3vmWbaaTBPkWENP7cXNTZNV+cle6Uf2wXPSAkt5zLSjRC2272/47ixMj8dM8xbbsEKEnBfw5QTr/sTJwbSPpOaPrUvMxsTUr4DchQ1psq/ItI+0CN1nloqxMZDMNpI9dw6u3zt4L7rc76I+p9jbLZfghqPBl5FHBHNx0Th32o1FcPsxuPPuWBy/cw1Vfhsu9wRv6uTj5pcOJfo1wO2we7j7/SYEj/kLt8dsQPfazVHr2844dvmUcUvLpOXcdYRU9ajxXvbOkAOFe6/QzBc6AUk7Q5nGqDw1HgXenQOvoHzI/EIXlP3mIiqOv+70/mIj4lFy4HoU+2AjvLMUQsYqbVDis70o2vcXB3uLNMSVu0vhU9F5usmcOTNeeukl5fPsCIzOsXv3buzfz2DiKQuF4r0Tu+Du7Y/i7y+xOmjOURhD/uKv/XF8dD0c+6Ymdndxw4WfOqHoB39JvSetcg1qHzepQOlusauDn0p///uZVRQNZ59jFmlRdy4i5v4NuPmkw5Gh1bC3p7+yPd29cWPTD9oJdnOoB8aPAM4cARq1MSxzBorOf1eLIK8BdKwFlJMT++B/wAGpELSYI4fX0C8ACMwIVPYTk0ypId+XaTW5CStNuVcatgQGdpH0PQ3pV5Lz2L/FcH5pBd4vfCkllxYcV+u8x9FjsBd6qttUFO9QXHJOgwfsiROPAC8fzKn7Lr6t9Ta8PDzgIQ8ee+NDOo7HnlsX8PGWBVJwOiGkIx5ga/8ZODZimdIyDFtH97oxbT9FnWKVcOTqmTTeEHGO1NVeleuQsUJTpCtY2SWuD6Y0s7zQFhW+O4OCHX6Ad6bcGgl2NxXZI33puij/7QkU6TEP6QpUdLqiTSrqZmbhbwoNpLVx+m4+L65KXyw+PK33DugkBQ4WXLFihfKNtgdD33Xo0AH//PMPLly4YFzqeiigo25fxfGvqyFfu5nauJqJzokLD0Fs6E0pJ+6rQYYe6bLgzr7fERN2z2mhy/KuWP9/UWbEWVScHK7eiDFO/dHhlRF6aqvT6TMBNy9fXFzQE/nbTkWVH8NQaWoYAorWxpXfBuDuwVVO+Y0/Bmuro4dF9K4AftopLbBkvOu3RJQU3HduAKFS+JSoJOnmALZL/kRIQepsHrEne+g84LcTwDb5MnWTwQ/7q3eBxRMM2zgLWyvHDwB5CgMnY0SESoO02otAZ2kUnDuZ2mp56/DN83GxKmIlxVgFmOe/k9fCS/7tHLITGUtlRMPpDcFIHBSbqpNL8sieG0hqJV9gZrxdnCEZHxUbEcaQeMGRoXJyTpyb1MVB6aQRmDjEnohpbxHn64/ufOoHD9oi1T1eymfPxdeDbiIUvEo8a6zVePymtJ/EfRWUNQhZIrIgw+oMyLguo+aWaVUmVdhkWpvJ4nqnbX1GZL2YFZmyMg6SzrNAhQoVkCFDBmzatAkeDM1lB/ZaM1zS6tUcvu96OG4i9Owe/DeknDTAOyPL860dcrWwR1xkPAp2nIqy3xxG2a8PovSwfcjTYjQuzu+G4K1zlHC3h823XFK2BRaukhD2M+dL76P82EMILNEAx0fVdCh9W3DfDGeXt80EBBSqqMq9eGlcFO21FF5BBXDv8ErteqOZzuXzwPgBwHNNDGHctCi7eR0bvg6sPwUsPwgs2wMMmg50ElEyd7TzAwtZBxQq/lDwV6sNrBVh2/YjYM5IQ+g7e/rG5npZGSni/L8dQL9PDJ0ct8UWrZOLL9f9LWkUMFReaofXcp+YtF1UCDzOWXDTaIQCm58d6PCyJIbZA315x2Uc+vYQ6s6ui+vHr+PO8Tu4c/YOwm+FI+xKGG6fuC11tsaCICVgh5OFqch9ReC6yzPaKHcpWe9kgZW4U4vlTmQYQsLu442K9eBpI9Skvds7rZM6J1tJIo7OWJhcHI8TnXy0ihN99+5d7NyxE3dv37VdwVqCm1vLO+M6phl8JxhBmRjz1LAq4Skx/615WonTtbQfs2UB6QLwfM3nU/XsejraM2jQIPTq1Uvdw/buXV9fX0yfPh01a9ZU7iBJxdEZC1m2PDh7ECcnNEWmKq2Qr/V39hvHcujOTPt9edlXiA0NFnE6TvLBggqV9B2JE20JupBc+m0Iri77ElV+jLfaGLAXJ5q7vLP3DzUOpFCXxQiq3uphWnJ8d/b9gftH1qDAuz9YfNPnUJxoE7wV7twyhJ1jOLpug6WQEGXoSFGZnGm/+eZ7dH9g4+/AOhG8ln5LzZDcab8pzCcOAaZ+Cfz8n2HSFUu/pfi1FyeaYcSqy036ehdg+LSHPtw8hw71gLNHRZiKIrV0DrxtUkucaN4jX4sxX7OJmepYXvvrYlyeT6yuWEGxxNeeL7FsxIn2ln9/NPoDl9ZdQqbScgBMV2A5E3Y9DB5eHnKfu6PloZaiISy/PklT036LgO7790/449x+XGj3neSnlRsoudN++/hh6c7V6PfzWKz7YDIKZsllXJEILx90mf4Z6ujTfjuPLqJto5WI1tFJq1y7dk1NujJnzhyHfKQDREi1bNkS27Zxus2k4YiIplCMuHYSx0bWVD3QuV4bKssc6L6VCjq5Ipplzc1NPyLswj4R0eMt70/Sd3ja70QoP+zFn+La6q+dEtE8hshb53FmehvkaPAegp5r8zAtqVJubZ2NsPO7RERPdk5EU+hFSgLtqgKvdASadwX8/BwT0CQ5Ipoc3Ap81UFE8nEXi+jDIqJLW/6tSUTbmrHQJKIbtgbGLXrox00R/XYNaTGdBraJCk3tIprXUw5V5av5teUx8tA4xUIrMf6W+ZL492Yi2tKMheydDj4cjPCr4Y/0NlM4H5txDP45/JH7xdzI82IeeQaNCjsRaUZEi3CdsG81+m5dhEMtvkCZLNL6sHbMyRHRHp7Ye/Ywqo5oh5Fv9MEHL76tpg+3iBxLZxHRdZ9iEW3lzHV0dHRSFg4yfOWVV5SYduQtSlhYGEaPHu2ykHfRoXdxZFglBFV7C3lajICHt4cSucoc161WYToUtRSk6ruUxlG3r+HSkgHwSp9N1jm/EzbOTR3V/Mvv946sNSxwBtEhvtnzI32J+rh/ZoeIbmPlS4Efdhvnf+ooeURl4wTMl3v3gFcLAW++B7QXCxQBzWxh0hpcA1UDSpIJafE7B7T1Mb7dsH8b2oZ9VEzfeA3UX2q4kGCgxssivnM9LgiTAsOLTdkIXD0ngki+83hpFJqMHZ0pi3PppxTMl+JihcWKiRU1Gj8TPifsf+OkXck4H4rqzGUyI0/DPMjbOG+C5auXDxmKZEBQuSAUaFLAqoBOM4ho/f3EdiWgDzS3I6CThRuu3bmOysPbokONV/Bhw7ZqoOGzjOnRTgHk5pSahwW51mY6C/bIWFrvtPHQ5YPBEq3TyJwurHV00jgcWPjqq6+qsHc+PvadUfkSLVu2bAgKCjIu0Y74uBgc+CATvAKzwitjLlxZNhyXlw7DFaNdWzdOieDkQvF8bnY3HB1eG1HBF1QZcP/0Dhz8OCcCClRD1vrvOe13TaG/810P3N7zu/p87+gm7OtbBGEX9qDi+FCn02ePYcZKzdXMjmemtZQ8i0V0yHUc+DAbAovVQf5245I/aJvlIfP3NRHQuQoAt66JWBwG/CDGv5MGA2udnL2S+/hvD9AgP7D3X4MwP/kfUFbuPfbwLrXSC50UAmUnjeQc9hojZVw8I42B2sCi8cDrHUXksmvVSfKK8uS05Z1fBe7eBm7fACqJeI6VC/ynnI9jgW+ePGyHUSCb/prMRDLEszkU0hb/saEj++TnNI00Wn/6bxNarJ+KgyKgy2XJo7GABqJjo5Hz48ZoXqk+fuwyQvQQH6I0nm9OkmLuHK1bt8LSP36DJ2ec0ho5A44Sj4/he1MXnQ4nYyEWHPg1QQ47zt3L4VBfOjpPK3TP4HTg7JWOibH/vHGbt956CwcOHDAusY89dw4Kwn29fKRcoeuAVESJGrleGXKi/HenLceWl20dcueQovDk2MayLadmE6RCooAu+fk/tgc9S/qOuHNQmJ//+WPcWj9G9iXbSFHvn78yivRZCc8A2w0Pu+4cRtiQeHDuIM5Ob4XImyIQ5Rx8sxeX3x1UAw2tYdedg/lNe1kENHttE1+D6GjgxZbA8AXGBVaw587BCByMszz3W/VqmxNXqLyy5wLCLHfEnYM9wm3rAYe2yTkYb7bCZYFh84BiJa37OhNH3DkIq9SzIvjffwW4clZdAwRlB/66aIi3bA3+zoo7B8cl/PTTT3jxxRdRqlQp41L7/Pfff+p3I0eONC55iE13Dmswn+XyQE4HfcSsnY8ddw5r0EVj94jdCMwfiGJvFxMtbaVAEFK1O4fct7+c2oUuf8/Fhv/1kzYUpzJ3IA8cdeeQeyoyOhK+vWqgesEy2D7sD3k+GKLLDs+AO0eKiGjuwpHXszo6OqkDulQ8CRh/lDGgt27dqkR0YGCgoafIDgx9FxUVhUqVKhmX2MYRn2gPvoa3hhxSbLj8z1K5Josc9YmmmFRvoozweOz6UEv6jvpEc7yIeY+5St+WQDfiqIgmPH5ztxSVNzYENHHYJ5pCkjBt8234ncLSzn7simimw2OnCDOlz2X2eqAdFdG8d/0lQbNrrLbjcdu49xSOimjC9OUyJeyH+7DXH8NtrYjoPn36YOLEiUpEUxTnzJnTuMY6bMQy0g5nFuVv33nnHeMaA8kS0YQvpbi9rbcayRTRhOKY29sS0CS1iug4ucdWXTyMz3b+gdn13kWF7IVlodkx8qG3VoY6IqJlm4s3LyHfJ01VXOhNw+S+D7klzwkfFIFvPKzlt+4TrQ26gNbRSVusWrXqidjy5ctx8+ZNBAcH4+TJkw6XHffv38esWbPUtOBawV5mq0YRpEG5RsFsnm5SBiE6AuNZP5Z+UgSMA7COZn4k7MeesE0KFII0ilrTZ9N3LfbDvGCemKdvT0AnBd4jkiePHDsH/9kT0EmF6TFdHrvpXJyAg3bpXrV+/Xq8+eabOHr0qHGNZf744w8loAl/p2nfHK+PLQHtJLHyz56ATr244XxoMHr8Mx9FMmTDmXu3sPj4Viw+uUPZr6d24uidK7JZMqWehwf2njmEUl+2VF8/f7kTFq2di8U7V2PxjlWYt3UZ7kVo+cCkPVLMnUNHRyftcPo0h8o/ORgvmm4asaqXwz7c/vjx47h3756q9O3haIi7ZCG6yZkQd3aR9JMb4s5RktITnRySFOLOGZIbncMejvZEO4OpJ9pWiDtnsNETTb755hsMGTIE4eHh6g3PokWLULQoR/s9CkNNdu3aVX2m+KagZg92YpLdE+0IZj3RlkLcaUGq7ImWRtquG2dR7XfGB7TMpxVfwvDnW0mhYaElYq8n2jcANYe0wdbT1l3lDn6xCGVzW4m65vX0h7hLkZ5oHR2dtAUF7JO0yMhIhwU04bb58uXDoUOHsGHDBuPSpx+9D+QZ4Ald4o8//hjDhg1TEyHt3bsXr7/++mPP5NSpU9G3b1/jN6iea0sCOiVJ8wMEk4I8/8UyZMdvjbpjaeNej9nyJr3RoVgNKSCTOZYrKgJjW/XDnz3HYGmvsUZ7+Pm37t9ajxFt5Gm/GrqI1tHReSpgRA/6URcqVMi4REdHJ7nw7U6/fv0wcOBA9WwdOXJEPVvnz59X6xcvXoyePXsiIsLgV0P3q+eee0591kk5Mnj7oVnBynilQIXHrGn+8iiSMbso2WT2zMfFolrBsni1Yl28UqGO0R5+bla5AdL5MO7gs4suonV0dJ4K2CubO3du9OjRAwcPHjQutQ7DvrnCGMjHzfA/i+udNY4jVDGYJX13T4/H1mtjXmp8nTv/WlzvnKnsoRsK4xxz4KOrjFha7qzRfYBT1DOaB6N6WNpGC+NV4L4srdPCmP923mYMGDAAnTt3VqL6woULqFq1qnLhaNOmDeLi4tRyCusiRRyYSI2KQ7ItyWbrd1xHk6xy93SXRR7y1TX/bNG4cWPUqVMHdevWTbL17t3bmEoyUYMHrZmTfcFMg24e1uwZJ8V8ot9p/y5Wb9oszyxLBO2Jf3AP7unSO32/WIKVSVyUobXt7u3rktcTMVFR6PRWG4wc+Y1xiY7Ok4P+xWkVf39/NYX45MmT1WdLMIJAeDzDGbiG+Nho5Vfs4Zfe+UrMApzZNDbiPjz9OJWbK4hHzIPb8AgIkvKPJaDGuLkhLjwEcbw+FHKu4u4tIFNWl1wDREcBkVIv+KeTisG2wEoWHJTImM+ZOA+2i6rpB6Ho1bkDJk6aZFxgnffffx8//PCDioJjgj3UW7ZsQZUqVYxLrFOqTCkcvXjU0CjQ+nR4iz4AAtL5w9vP0yW5xctx7/ID5W6WmIwZMyIkJMT4LXlwLMeCBY+HbEzWtN+O4kh0DmfQQ9xpw+F9e9FqwlwcbT8YyCqVitYwBE4RucPPyak4OSrZInzop3xv+Nz9fe0HebD8DQ5Tg2BSqE2jo2OTtCqi2StGv2j2CNmahCXQzxulpokYcElty1kBd+Dm31NRtM/M5E84Yg1JP/peBM7P7YzC3ee5YlyhOuYDH+VC+e+uGMLXaZxPHFh4amRr3Bo4CChbxmUaEZUCgJNSKdw3ftcK9oCuWwOsEtEzQARoVhHSWp8DBxYWkYw6Eum6gYUbN6LX9pmYOHuuYZkVWC8xUs67776rpuU3MWXKFHTr1s34zTblXyiPg0MPAnSh1boDk+3hr4DJrd5Hg6aVVbwNrfERIVDErS3iLMxS1KpVKxw+fNj4Len4+fkpt5kWLVoYlzzkaRDRHFj4jj6wMPl4eBoiMarA9rwPtDaG9mHNwr+W1mthHNlKs7ROE3OF+tfReXZgJX/79m3s3LnT/qRFUlyo8HIRrrG4aHmo42IQ66J9xEVyxkFJPyL2sXWaWGSEEk6xERGPr9PIePyqTmC57SojvBUsrXPW2AsdI+o2PNTyei2MnSquOn5ahNyn7GK1A5+tFStWPCKgyc8//+yQ61QCrOssHYezxjySSxEZES1fI1xiD8RUj3ci+JwwH+gznlzbs2ePRQGdgKe0ZJXbkMbm4Q0PaYV70z3MS1oiIno1NW8feLp7OHKLpVlSpCf66KGDaDV2Jg63/sQQCkhr2FNSTtoDR6QVxQfKEUwX1ZGzl/sLM0YZPnfq71ivQFLSZ1Pm9i3gxax6T7ROqiAt9kR7e3urXugSJUqgWLFixqWW0UPc2SZZIe6SUObpIe4cIDkh7pJa79gIcWfOjz/+iC5duqjP7DXt378/xo4dq0JKli9fHsuWLUPevHnVemuonuhPRXBz3hZHnzuejyPnIvcTRgBjm/dC3eYVXNIT7S1CoLx7Z8SlcIg7NmDeK1MfUdyvKS8S54ut625jnae7OzZcPorcuQugSNa8musPD0l/7eFt+HjEF8qv/mkkRXqiHXsKzOCrmXRiFMdaw4eNhROnjSXcD/enxc3DNJg2jSOWY+VBZvoU4fbQxbNOKoIF95O2pMCZDnft2oUTJ044NsApycQr4cdZDPlXGx6mmdjMZxm0hfVKL95iuubGAX5aQHcPnocaNyKXTcu0H4NlaaCYVunzNqPbPMvpxKbKbSfKZV4bU11myXgejtTAjhwC60qeh8lfl+lrlEecxKhXr17Gb8Bff/2Fr776CiNGjFDh7zhTIaPi2H37kxT4jPEcXOQu7ymZEwg/uTzezlzhFIGXsVGeUqifqwTq5y5uMPPPpu+Jlzmw7sXcJZHbPyPK5CqCBiWqon7xKppaw5LVkTtjNnh4unDcwxMmhXqiD6DV2Fm2e6KVAJUSjdr2+8+A36YA73wMdJXf2PMpdLQnmjEuF4yRZvUwKbzk1mRF7SOlXJO3gUGjgHvMCguVt6M90SzEmlcBrp6XfUlhxvQD0gMffg80ft0w85IlWJAG3wQaZrNRKeropBwcLPSk4DPAWc84+I8+zo7CyAEc6FS7dm3jEusktSfaQ57tk9+3woOzO5CuaG0U6joX8dZCr8pj70hPtOqNndIOIYdXybeH5Q5dQXI3+xrZG/a2vA/Z1N6030z7wAd5JS0LO5dyyd3LF3naTEBQpVdhwcXT4Z5oCujzc9/D7R3z5LrFSdIe8EyfDbnfGImgyq9IOsYNE6HOPak90Sznly8CBneU8ljuz1KV7Pdo2uqJZpbfugZ801My619JSxIzNd442LHzIOCtHpbrH2a5vZ5oaUzgo7bAvysN6ZlgGc/vdAXheRQoYVyRCFNPtL1pv9lDuXoB8C3jNcvx8xzk+cHUTUAhSdtaHjnQE71w4UI1IIxROMjZs2dRoEAB9ZkMHz4cQ4cOVXHdc+XKhc2bN1ttxDrUE81s4nFNF1sqxvr8LzF7GoCi205PNLPdz81bCei1q3djcIfZKFImNz4Y0xLFy+a123v9pHqilU90H7k+LvKJ7rn+RzSo/xqaV24kmaTxuXn5oOu0T1G7Rwt9shWXk04e/OeCgIpSOs0ZKQvkO0dWG8s0p+GZ7lwHrF8CLJIHee1VsevA2x8Cc0dLQfo54OvEzpj+1WCgSn0p6EVEr5H0fz8J1HhZCtJmwK6tqSm3dXRsUqNGjSdmtWrVwpUrV1TcWfYwO8LVq1cxc+ZMhwR0UmGv6p3da3H/xGZE3b6A6JCrCVrLGZhG+NWjKPHJNpT95kKClf/uBrLW6W5dpDsAhXvpoSeNaZ5PSLvcyIsoOegAou5cRKaKlgW0o7iJTru66nvc2DAehXv+iXKjrqp9+OYujyt/DkLknVua5JOCt8GB3cA8EaxB2YAIjXo92dlx8RTQUoT0OqkPll8w2J9ngGZd7Is3W1DzfDETWHX5YbqmumHQDKjoHqqzxbB5sjlzVPbTDuj4GbDxtghjqYey55O6TRoZ7AlPJlu3bsVbb72lBDSfw3Pnzj0ioMlnn32GPn36qMYun9nnn39evQ1KFhTQbE+WE5sgxnDUN8U0ItDND83KD0Ipj/bo+9J4BF+7h+uX7shlcOJBM8KQf76+vsrVJTnGBgh79K3C1r6LjG2/OLYwWBiwsaSxqbSfYlKPrGOBM0lE7kG5kJvuArkLGXqOtUKuJ2o2ARZsB3LlVy0k8BVD+35A+kyGngjHO70eh+lnyAz0GyUFl780W6X0CpLvdV4x1pYavurS0XExrDSflK1evVoNtilXrpyUwXywbMNtjh07pnrNXAHrmht/jUeRPivgGWA94kdycfP0VT3DD80PKs60k5inZ/rsGeiDE6PrSMPA2zmBK7+NuHIGt7fPRaGuPyOwxAuGfXj7I2/zUQi/dAA31n2nhLYmRIvQ2b8FqFRHyvGXta0bCAdZeUt1yDeTJtMi9J6Xt6TlZ5aufPaTdHdvAJqK8M1TWG4w47bJgSK8TVmgekOg10fGZWK/7wQipVIdOVD2aVicFDhYsGbNmuqzp9ST+/fvR/78Um9a4Ntvv1WTsvDt0a1bt/Daa6/h5s1kqF9q2fpi0lbCWbHcYhoSJTto/FZVbHkwAYfiZ2LFxW8QGqJN7+6nn36qeuM58UxyjJ0A7733njG15BMWE4X70RFG4apVC9aEG6LlfrsfEYYY1Ruvdfppk5QR0QmFhI3SgnVl6cpSMsvfqEjZVLbV+hpxH3y9aH4YvBeKV5Bl9itrh0hctlNMs/DUKn0dnaeYsLAwJaQbNWqEaNO4BRvQd/r06dMuHQh5+bdPER12B345SxnKpaSQxM1dipSn0XcfIPbBLVScEO70m9uou5cQdmGfpCPX6ZHzNHzx8M+kzfmzHtj3j6EX+pNvXdMhkVLXiedy7QZw6pA0CGoD/vT50ADVk2j8zH2YtGGOvMk6t/bt26tnKzAwEH/88QfKlhWhbgW6X40aNUpNysIeaTZoR48ebVybREwdWdZcH+1g61Sj4qPRZcD/pDr2kuSjER2pwVsAIxxoyQHNJUuWTJZVqFDBKXeHu5Fh2HzlBMr+MhjpZ72HBad24NQ9uc8suHolGbkPQsJDcfDSSXzx5w9I/15tjFo9B/svHkeYmj/Dfiam1OP1JEgZEZ2Qx3Yy26QzNbqxHYL32IUThgEZWuyXOcqWP43pHdsLZM4JZJVm9dN8J+noaAAFMUNp5ciRQ1XO9uCr0KlTp6pIAVqPJ2DQi/DLhxByZC3ytvgW3pn9k/4IO1CmGHqJ+ddgrhqU5yFl0oUFPeEZyGmA7TdQbCIZkaFUbeRuNgK3dy1G1O1r6th5vvSP9slaGFle6OyUS0oC90OA7vWB1n0MfsYaX2d1MuyJ9pWP5mW3K+C1PbQNuHEZKFnlYZ2XXKTBibf7AWePAEdOGfyoI0WBzv4OyCL1TqeeyXJJ2bt3L/r27YvZs2ejadOmxqWWMQ0Cpm/0559/rgYdjhw5UvPn0RFsXjZZGY0YzathnufHH3+Mo0ePPha6zlHbt2+fil6RnDzjb1Zf/A+Ddi9FxSz50KpwFSw8tQtFF32Of64ck3vEyQLF2xcf/zoO/X/7HkeunUWrKg3xz6l9qP51e4zfsAjRbETbwVWPU2ogZUR0akUVaLuB65eAN99LVmHzCMzNU/8B478Exn0BjP1Eaq2TwLe/AcVdOKGAjs5Twvz58/HJJ5+oHml7UEAPHjwYc+caJopIakQPe8RFR+PqiqFIX7we0peqoY0gNIeHGx+Hy78PxIWFHym7/OdwhJ7ZowbsaQoFxP0IhF3ch7xtxit3DmdhT3aGMi+LKM+GK8u+xKUlX4gNwP3T25D7tWHwzhTknN7ljzkh48hehkHmfcS0efv+EO6DHSjrFgMjBsi+PjKU3/fuGnx0teb2HeDPGUDd14CihZyvE9jS6zXCMBZnRHc59mHA8K7ApdPAp1OSPfkYn6Xvv/8eb7zxhnGJY1BAf/nll0rYaf08pla0PM/kpBUred00f1n83Wwgfn35PSxu0gcrXv0IQd7+6LT5J7mPnXzWY2NRJndhrO43DX/2m4LFfcZh1UfT0adeawxdMR0X71w3bvhs8uyKaN6rMXHAgBZAz+HA662cF9GqV/sUsGic4dUjB0huEAEdEmxYl0p4Ej0EOjr24CtRTh/MUFn2KhO6fLAHp0mTJmrKXe2Jx7V1YxB6agtyvPSJ9rMOCkwz35uTRKA3QkDB6vDNWRpX/vxczUR4//gOTcM/08U6eNtsEdI34ZNNmxCA9FBLV7wcfLIWwq1/puHampG4vmaUHLc7Mtdq43yjg9Ga3m8PrJpvGGvCWZW10ysGAZsxK/D5dKDDp4ae4fI1gOlD5GZsDpw/q20NyWNnXXB0D/DyO87XNyYCfAyDIHf9BfwwCFghwun4fuB/rz7uXphCPCsCOjXAWM+BXn5yraOlpRxhsJgolA3KA19OouIsklbfRnK/crI5To5EEwL9/BEWFan8pJ9lUkZEJ2g2B8WbqzUen2++smtTHiglBee7A7SZLpz3UvUXgflSgC0+BPx5GmjdG+jRANi3K9U0WVjA9ezZEwXzFUb+PIVcYgUk7RLFS8jngo+t08Jy58iHFs1bqGD/rmbd2nXIWyAf8hTMjzyFXGAF86FUqVKW12lhkn6tunWcmpY2JShYsCAqV66MWDuDxtgIpK/mxIkTVXxal+Duhht/jVWRLHyzZVauEB6+hmeHg/7c+erfEZ1goyxjT266Is8hqGpLZVle6IAifVYi/NIhJd61LC94GBHXTyBX08/hE2R5gFhSYW/5zQ3zceWPz1C4+28oPfgoSn15CGHnduHE6FcQeeea5Jdx46SiBGcksGYhsPqKIXyoKQa/cr2QBfzsLByvUukFoOEbQOOWhr+/nRBBugEY2dPgPqIV7PGe+620nIqJYC+hkcCVK/vveuBLaWz0GwssFeG/8iJw5j/gpbLSSOAmrq5QUw/Pzpkm5uGZq09evth58yzCHXC1cAiGYzTHwxOxcXHoWOM15MogDVE7PM3XJfXEiTaHrfXeTYCKUrgNlILB3iADvq1wdMZCFs6snN6uBuQqAAxbIIWynfd2bMwldcZCEzy2r7oDWXMBHQYaKoDE8HhSOE50qeJlMP6fDvBPTzWgPTcu3cHA1tOxaM8XeBDBwQfawYo5OjoGg99egAXTliF79mzGNa5hzryfsG/aCox9+2NESGvcpAt4pcw1gvl3W+sS4+sbAO9uVRA64R+HolEklUgpAOfuXQO3GnnRq1sP49LURbZs2bB9+3aHBhMylBTdOOiHyEE5ycFWnGiKw92dvdWAOforP8RNxU/mDeidMReKD9gGn8x5Hk9DLnSyZyyU315bPQpRdy4hb+vvZVcWlLRsYy9OtDlM4s7eP3D6h2Yo3GspMlV4xe44Z3txopnm3YMrcWpCUxTo8BOy1HgnIc2I6yfx3xfFkKPJJ3IOX1vsxbcbJ5oCuW09YM8mg9A1redDxHuE8cMZIm534h8mIjkzFnIfK+YCM4eLgD9m+bfM8qTOWMgB8zyeTyYDbbra74lmHtiLE81ewOpSp9QT8T9hycO6kudQSf7HKFd/nbZ8Dry1HJyxUAuSNGMhJ1ppIHZZjLOK28srdoolccbCS6dvonPtbzF2aS+UqVzQ7m+eaJzo3rMlD2z5Msm1pn88/4rALTrvY1wLC8H9TnKvxdnoKRY90uOvmahf71W0rPyibGsjD1S0GklfNMqUjYvRe+FI/NVvCuqUoG+/ld95+aDz9M9Qt2dLPU70UwELljgp6d5/HciUBRgiBaWrZ9JhDvtLafiL3MyhfB+ZOqBW9/b1UiOVXWXu7m5Stlle55T5eMtfqVx4PVMA1o2eUmm7efvATwoFX6OZf0783da6xAZJl3hbWKeFcd9eIrRcIdC1gKP6//77b4cENAkNDcWgQYNQtGhR4xLX8KiAThkoTj1804nwFuGnVS+SEBN6C9kbfYygKvYFtKOoRoa3P3yyFDQuMeCbvSgKdFmM2HAnyzs+33Lv2hWnWsP95S5sqCu0gueybwuQPQ/Q3gEBnRQYWvV7o4DmIasCS6xiLWnRuCCSiU7qQhr156RR/eKy7+A2pRPcJrXHmiZ9ce/dcfKs2xDQScE3AOl6PgePLhXh1qUC1h/bgZgf96N2sYq2hfczQMqI6ISyyE6hxNY9jT0r7G5UNYpxmRaESYHCWZ38pZk76jf5KwV0wj7VFs5BXyGmYzKm+0BarVcvGAZ/sLBLw7glQbUmtfph2u7JughJ3VMKkux32Q7AZ8OV6acQjJHKWdBiTNMV24Exa+nGsXv3bvXZFcRFxaPqzChU+TH8Eas+PwyeAZmQvmRDVJx0Ed5BFnqhE2Pr9uSPjcWcyWIehOL+sQ3wzpQH7j6GxpWzRN48j8t/fA7PdFk0E9AKaYnHRYUZQtyZnUN8XCwirzsZcjBUMm72RuBgBHAg/KEdF/tfe+DHf+SzRs++HHNCHcC/fKyGdAQCM2hXvPAFZK8XgTLVtfdTZsi/0ycN++A5mM7jwX3ZV8r2mjoN857HTjNh+s7zsoO9y8U6xsNkHu6G3clfD/XPgR2kRuQ5LJA+C9a/1h/xPWdhb7NP0XT1BATM7IMDty7KSZtnZvKIDw9F6PS9iJ19GBdGLBfdHA+3TuUwdt0CxDrQM6/VY5QaSZm7JqGuT/jwOLzO/6wCNi0zTJN6/w5w6RSwYQ3w1+/OxwZlPMMJnxh87DiSeY8U0BtlX9wf/x7Y9uiDm1RY37G3ecV8YO8WSW87sFsK+q+7G/zrWHh62Dj/VAynSfWFN+7dfYCYKMcKZUfP1DztA9tPIzYmVr02czynUlme8pUXJ1gQNXGL97CWQpdpefuoQuvgxeO48+CeZCD9hdIuDKHFXmVO1GAPDia8dOkSXnjhBTRu3Ni41BW4IVaKC0tGdyv27sTJZ4dqBiuXn2Hs7tHlY/s83D+xBaGndyDkyAbc2PA97uxdAv8CVYxbOk9k8Fl4BmZF5ufbKz9sLVBvsjLlVZPP3N79M+79twmhp7bLufyLm5t/wNWlXyCg0PPJF+2815nHLPYTG/0z2WHBz85y7zawfB6wXcrogzuk7lkn5fgPwHlpBLTomTTXPWuwXvl7reHz2MX2XQ6TAvOpQHHDuJudxnqH9c+6FcCJ/UCd16y7gqQ2+KzcEOM03+vFeP2JXBpIdY3/xOzU0VYeNwXrmp0bj0p1v1+q/f3Yvu4IIiNisHvjcWxcuQ/rf98j9U8a7VXlA8mBf2IVsxfC0XdG470y9fGyiOk4NnKdrIfUQFHjoMK8WXPht4+n4+eu3+DDX8fiyFXOjGMb5/aeukk9TS8O4Oj7MvDBq8DnbxumYt281OAb/dEbhjB0znDnFvDzRIO/9dBOD/dF6yf2TS/nBpGwQs2Y2SDSu9UzxDXlPu7fBSZJAVqiNJyOCZrCeEmx4yUFz5a1hzB20C8Y3GEOrp4P1uyB8JOWB9Me+fFCDGo7U+qBMXJpfsLiaRsQI2I6KT3fTxKlpShm/QOx7tC/+PzXcRj423jM2bZcltsXh45CX7x+879Gp5+Gosn4Pnh7xmcY+MsY+uUYt0hbrFu3DlmyZHG4R5luHIcOHVIzGaZPn964NGWJiwxFnE3fRMeJjw7HtZUjcGJsA5wYUx8n5W/kjVMo2ncVgqq+oongZU8xfaf985aHb3bGhzaucBZJJ6BIZRTttwGRN0/jxPcNcVzO4cSYeriz73cU7LwQWWu/o31YQMIOES16WFm80E+Z9QJFKK13I4OA/uA74M13Zb0GGcbHs7c0+mr9T3s1wV7G6X8DZZ8HOtcy1D38+8ePUgcNAb6Vv+FaXXQXQ4Es7Rhw4kUO3ZCqWtFHrJ/YJDEnijrWN5+0mibV/SSp9idheNd50oZ6gDH9fsF7TSfg4zemIPxBUgYwpFLYMyzP/eeVm+JqWAjmnpCGlQYzoCZA943Qu2j5/P/wQpEKxoXPLqlHRLPVOWoJ8PWix23oPCCbk3OAUuAOnWs5/RFiHBxiavkmB/q4tehg8LPmfr6YAQxfAAyeA5SrrE2PRgrC117LF27Du3VGYkinOZgzcg02/bEfD+4zk5yvCfjybN3K3ZL2T/AL8EbjNlUx6Md2KF4xH4Z3m4ffp29R/tRpATcvb8zY9Ate/bYLWkwdgKl/L8E3q2fj5A1tXqURjoSuO7obLty+hsaln8foFu+jU83X1H7aTJIaxofhC9IWFy9eREBAALy97femsyeEPt2MH21r9jRXwgFyhbosRu5mw50WuPx9pkpNUbjnHyjYYS7yt/sRhbsvkb8zkKF8k6QNRrSBm4cXcjT6WKy/Zmma4HwtAQXKq8GNhbv9ggLtZ6hBhoU6L0CWGm1UfmkO02z7IVBU7gFntSF/nz0nMPp3YNh8Q6g7lt0Dvgc6yjOlBuNpoHqZ718vNgwodKaOsUagNCi/nCn1569S78jfIT/J91lAr0EAgxc52QuZYvCZ4guYoWJfJ7IRYl3FnMi/cLkQQ37qINV9F6n2H7ehczvC1z8NvtmjD5WFUHZ8a5ZJ6oUq2QoYChxnSNwZ5OGJg2cO4fi18/KEpJH7y0WkjIhOKOxslHrssWB4oSatH7f/vW3wY3YGHz9Jp63l9F8Sq1rX+ddeLCwzZJL02gAvvwnUe0WavyJu0piAJvHyL3fhLBgw6U1M3/wx2n3cyLiG2K+97G0RJ/+KV8iLcSt6o9OgpnJpnpcsq4633n9RFXS/TfsHp89ckRvU3gNq/1hcjoi7Qllz4/OXO2LrgJnKiIdyEFUfnYaDNCe9NQCz2n+JN59rirfEmldrgksjV2Lx7rX478xhzQR7StGxY0c1ucqpU6fg72+7ERAZGYmuXbviww9FQD0hlPCt3AzpS9R13E3BxvWPk3LBN0cxBFVrhczV35S035D60EPT3luK6Cw128Mvbzlt/aGN8Fi90meVBsHr6hwyV28DrwzZ1bm5BGqBctWBoGzaPFtML6sI6aZvGcps1hHMfy0bHEyvSatkT8FtF15XDl5v2FzOQ87hlXeA9Bm1PYeUgHnDyB3/E2uSyF4SY6enHS1oK3tj5McvvFROqvtqUu0/bqyDPL3SVhlKTty9iu/2rRStIY0pDobmm0l57ost/gKZfQJQOjsHyTrx8EtaC7cuN6TrK/cZLS4Wkzf/gnSiqzL42ddmrrjtUwspI6ITdJAdQcQHxJppgaV0TaZVBcO7xTzdNHr3UESXrlIARcvkQcFCORGY0Shy1CW03/K0L33jkTVXRhQtl0cN7GB4IRp/l6dwVpzYfxFbVx+G/cEe9o/F5cTGoE6xSqhWsAxK5y6MvJmMYRw1PDS29svmKYpAFmAMa8VXdjHRyJ0tn1r/6Z+TDL7YaQz6REdFRaFmzZoqdB39ni3BXui1a9fKvfJkKzkK0SSJUfsPQkKarhC5RKXrynIo8Tm4uszTeh9My7zMdgWurgsSn4Orr4GrSHwe5sbrbgd7jxs7b0x1jSVLe7ghLj4ew0VEe09oi8BpXeE/pQu8p3ZBSFQ4TrYZDuX+5AzePhi8Yhq8O1dAQJeKCOxaGR7dqmL90Z1Y2GUE8ma2H7Y4FdTSLiNlRLROikGxwYgHEeFG42fTd+NnEi+1XVRENCJtWFRUjGwfhci4KNFrLMWA6MgYREZa3t7coiJi5FjiEQnL661aVDTCw6JQqkp+1PpfuTRTsLmz15lwgIerajCVdiIopoVxrT7kxVGf0xL0h+aEKRcuXMBvv/2GX3/9VblumMPvr732GjJnTtvRbXR0dHS0JR4lMubE7U6TcKD5IBRIlxmDKr6MqK5T8aDzZLXe6fooPBTHhv2JiIlb0fWFZsgXlB23vluPU9+sRPVCdKtyUX2XRtBF9FPGqlWrkCFHBvjl84N/fn/45zOa2We3rG64FH0BL5X5FLXz9bNrz2XvixmT1iB9ofTo9sY41PDtZXE7c2tRcyguBt9G5aw9LK63Zi/kfh+9Xv4eFWoWQcF8OUVCP9sPqE28fTFi2VRkDsiAAnmKsAVlXJE2+eCDD9CuXTsMHz4cN27cUA0+Pz8/fP311zh37pzy8dPR0dHRMUfKxZgolAzKjUNvjsDAKq8YOleMHSyaEBuj3hKOfXsg/huxHJnSZVD7fNYFNEmhGQsPovW4OTj09udA1kxON4weg+HlSkh74JSICC3CHiWGPvXTxhg+d+2nvY8zmzLB94E66Z0WCvNmzcPwk8PReERjxMo/rfGWf9/7fI9ekb3kMmp/6/B126kFJ1D2Sia8+9FLqic7MXRtiI6JwactZmPBVNfPWDh73k84PGM1RrcbKNfe/mipiOhI+PWuiZ51W2JS+69ge6YpwS8A3h3KImrKTseFsAjo3Sf2ourX7bC6z0Q0LlfTaqEZFRONWbtWIKpaDvTp0cu4NHUzevRo5MmTB+Hh4bh//z769u1rXKMNgX7eKDlFrqUr2h1uwL2jW3Hrn+ko0nuW5gP6mH70vVCcn98NhbtyxkLjcg2Ji47Hwf65UW7UFTWDo9aPOmcsPP1tK9wa8ClQtoJrrgOpFiAVkFQKUrxqCoMdrFsJrF4I9J8AZMmofb0mh44SklEH5QZyhY8575tN69Fr1xxMnD3XsMyFVKhVAQe+PADkki9aV02M2jEEmNCyL+q/WsklbzA50L2Ee3sporWvV23h2IyFySQpMxYmB6+nf8bCFBHRu3fuwNsDvsSJXKXkjgg0LtUQxuad8gXQc5hDIifJcMDWvn8MnzkLlNYPEV9fMw723NFOi+gFsxdg8OHBaDC6gctE9GTvyegS1cU1Ijo6DpcWn8fzUbnRrGMtRFkY7alEtLSMP22eWkV0lIjoGgYR/a6I6Eh7IjqdiOgyjotoHz9sPbIdNUd1QucXXsf0jlJ72DiutCiiSUhICEaOHIkRIzg0X1vSp/NHunr95ZMrij83RAWfRdjF/chUuSXUZCSa4oa4qAcIObwKmSq+YSg/NCZenq8bG8YjW/2+anCi1vnk5uGNu9vnI+z5GkDWPLLERdXQrK+BbmzIatySYcvl7FHgzH/Ac41UeEvNz4GzNbJe6yLmCuHG++b0UfQqlB4Tp003LnQdBYsXxLnK56QFK1+0vtwcKrEFaFSyKgqUzoF4LWebNOLh6Y5pX61ALMekpCBpXUR3ERFdRxfRzrFv9y68+cXXOF6yttRemWSJ7JJ7NS/7E383x9Y6wkJ+kFygEQvlRnNBDCHGWPxnmeFzLb4q0fghYoEceg/4ts8TE9EMacdeYHskVURT8DJtbutI+gYRfQ7PReTGG51rWxfRz2pPtBRKm//bigZjeuCzlzth8Os97VawaVVEu5LAAD9kaT1VyhaNKw2FOyKuHUHoyX+QtV5vxMdo3RXtjtiIewjeMRfZaneXB8IFIlrumUtLPkaeFqNdI6I9fXFzzWiENmkK5C4kS7RNP4Hh3QxhRyO1nOFEYMfKkd3AYXlmm7wJ8PW26Rz4x1rdlpR13n5Sr70NfCkCSus6h7DeObIHvQJDMXH6DONC11G0TFGcanQKyChfeK5JIXHemMN1vEWXA29WboAS1fNJI9Cwg8Q/s5WMPTy8PPBlu1kiol3QoLGB3hOdukkxd45W42bhcJvPgKxZjEs1hK8bS0uBcFxuAI3LSgUf0OnfGT534QAuw0fN4Gu14LtAvUwpKqIpbj3lX4z8u3ngJrKUzyKFjO39OyqiKXS95F94ZDhOLTiFrNWyInvp7Gpftn6ni2gbhZhU3Ecvn0Kpr1rio4ZtMar5e6KfePPYvma6iH6cQH9vlJwU5RoNLbX0/WNbcGvLdBTuOccl7hwx90Nwfn4PFOqywEXuHDE4NCAvyo68BHdvEYzOFUuPQXeOM6Nb4lZ/eabKVNI8/QSeCxCh+wCGmM8awp7P9aLa1iwCPhon9Vpm7c+B7hwlJaP2yw3kis5P3jeb1qDXnvmYOPsnwzIXUuGFCjjwxQFDGDutnzvJJgwDxrXog/qvV5SaT/sHmzPplnbvIEW0LqId5hkQ0S4ofi0hpQtfr/A1CAsDVxgLMEvLtTI+ODRL6zQxVzi9WcYkcE/+chLTMk7DjwE/Yu+QvUpQa0Xk3UgltmcGzMTmjpuxpOwS/OD1Ax5cf6D2r5N07oTeUQK6R50W+Lb1RyKgmY+uUh9PP4z77DJjz6E0iC2u08SkvJAWQHxsbKLlWhkbu/wbnWi5hsYWjCvrBBqxtFwLY32gzkGuhaX1WhivgqXlWhl7VVOoOFadJ5aOQSuTSxEXGycfY11mTwy+DXKReUg94kWXWE9piTBMqsbm6e4hDf2nt85PIRHtBFp3lDM9S+YK2KpjIeWq9JMBZwo8+uNRTEs/DX+1/gtegV6ICYtRPcBaER8Tj9mZZqNkz5LoFdML3eK7oXdcb/jn9se8HPNUD7g92COfenLNPnFSmcZIpWowQ14yficrWi5z9mwiY6IQ9EF9vFymJiZ3GCxtrkiz/T3Bwv1px1Q+JDZXQFHMa+mK9BPS1u45fwSVvigZV6SfOO9N5gpUmS3noXWPHGHesD5wRdqEeeLK9FMSXl4WazwVV11qEdyxYinwMt4pwiQT3Me9CfcfOmpvE97BpGP/oNmkfnDvUAbuHctpa++UwNR/f8ehg4eMZ/P0kXpFNAuy7WuBqV8CIaZJ9J2ADaGr54AfhwKzvwFmjTAMOqEtnmBwCdEC7uf+HeCU3DS9GgHVpYU39kPgzs0Ua/Hbgn7JOevlRMd7HdErrhfaXtT+FYubpxu6x3dH7e9rIyo+SgnIyPhIdDrXSa0/NPWQEvPWuHPjPv5deRgPIiMky9JAC9bbF5/8NhEZ3quDdH1qIUu/BsiSLiMW7FwN326V4dWjupoeNdm+q14+KPVVKxXKbuuZg/DpXEHtx2QZZb9qRk4dTYmLDMWV5UNwbfU3uLpqhNjXCeZm/fZNEnTFiLl/A2GXD+PkhP9hbw9PXPz1I0TduaRNeSFphF08gHNzu6m0T056Tb7vM650Hvp7R92+IMf8saTvhdPT2iAq+LxBUGsBX47NGSllNstqszJ7mtQLYRr5aLAWDA0x+Dh/8Y6U2V7AZ28CV85qU0PyLSPrnq97GeqDTyXtA1uhBjtqcY0pAs+fAH4aBdT0B95rahjwmAaKzseg69MVMQYLqS7WQUxkACgBNHjmOHnXlXPB2Lb6MNpWGYGafr0xf8x6WXZLJEfqbHwEyDHHffAz4nrN0d7eW4A+JWtjWZ9xiPvpKOLmHDHYbONfS9+Tsm7BKfR44Q2UK1/OeDZPH6lTRPOo9m4Gejc2iN7ga84XCPw9CxqK8uWzgT2S/u4NBjvwryYPqNpHtFQeA9tIYdxOxI8UxrX+B/y3A7h+0bDNE4aCNmPhjOpvtPyLidCoskuEYWao2IfXTf7SH5qc+eWMXGLrt15gJn+Uq1EIfj7e6jhTPTFR6FmnBda/Pxkb+k1R9mfPMVjVZ7x8noq/P5qO/EE5DJVdcpBK+OcuI7C011is6D0OGyVN035o6z6YLPed1o63OrHhIbi6/Cvc2DAOoSf/xv3jGxJMCz9kphEVcgPHRtbEhbmdZUkcMpT7H8LO70LoqS3O70OeueDt83F0WAXE3Lui0naT5+nosEoI3jHv4bOZTNiQuL33N5wY2xDhF/ZI+q8gLuIu/htcFrd3/2wIjecsFNETBwJbVkpZvelhmb19nTb3PPPgjii0D1+Tcru1ocOGg8fv3wVmDjf42joDQ6/9ORN4paAIaRHlrA/C7gF9XwK+/wiIcNLPlWXKqvlA67LAzvXA840kzyTTWpUR8fmLNvVaSsFrLW0LdBOTKhO1xDhec7GYXB5IO8SZ8/GUH2/76wj6vDQOc0atRZacGfB8k9JYs3AX3io/DMf2XjBumbpQtUZ0hMssOi4O4XyWOPg2wmjmnxN/T8o6sajYGNXr/7SiQVXgCEksrTmr3vpfjaO2Ba1GznBENek6GJgvzds5UujQxslTGqaBWGOBOfkzQ6/zvN1SCK8Cpi2TQkBEemk7g2dcMMLeGk9CmLJHOeyBPFTCi7+8mCCoLeHp5YmMmdOpXgOrpFx22UcKoQLZ8uD5YpVQw4LVKlEVfhxpbxU7JxMfh8qFyllMm/Z8Ubm3noZXuKkN4zMZVO0tlPpiDUoOXJ9gcRoMYfCQW+Ly7wPhm7MUin+yDSX6r0bxD5eh1KC/kfn5Nspv2B6JZ3c0hyL33My2yNNyLEp+ukKlXfLz5chUuZUsf8e53nTZbfiVE7i2chiy1OqCEgM3SfpLUbz/WuRo0h+XfxuAiGsXNSu68f1yYK4IZ1OZ/fM2SCFhXOkEPL5VC6S1cR2YIeX0rNVSZi+Vv2uA4T86Vy8w7atSF7AR0OlzYDbTlvpgrtQL7QfIOUyUG0CEtb2yzNZ6PvfsPa/ZBFgk+cP054j1GiGNglZAOuN2aQEWYYx2+LUYe6KniTFoCKPviSTAeDEnGjWsT3ZvOIaRv3TFvA2fYcbKjzF96UeYtf0TFC6bC4snbUB0lGs6lVIcT/ojO9sCtIGHFB6+AQ81lQ3s3d5pHa2KODskoSCi3x7dH47sAlp0Ny7UGI5y5aQsJqO2c1bE8ucPpBRY8L0UvlIoe8rNxbeNTJ9/7VWIqdwvyynk1Hzl34a3NiBLpSxIlymdHSEfL3WDnfxIbdnFyowuSNbMzvnaxVKa5qajPcbLEhcThVgpMmKlIjeZs1DA3tm3CXd2LULeVmOk+HB7mL7sK97BS2rTn1NWMTxdjpfeR/Q9Y9pSHvnmLZ+wPrmwuIy48h8irh6Bf76KSvAzfUYiyVKzE6LvXELwttlwY++iFtB1w7zMpjlx/AqW2RfOiOj8Bnijqwi4HA/LbBo7iZ2pF1i7njsm9Y1kTL+hhglfmC7rm4Rn1oGTsLmJrKQrV49hwF35yvRvy7L3RbiTgT0NnTtpAYro4mK8PeV+TbgObLCyveSkWomMj8b7w1uieJl8cpnDJekI9TeDpz+y5w3Cyp92IDryKShLRUD3+2c+Oq2X1oe7CySehyf2nzuKRiPfxZ5zh+UZsb0PZx/T1E4KiegkYHo9NWmtHJ1WJXAi2CvI8EHO9MQkhh2NQztJgSUf8ktJwO/sBeDf1JfLKYdcTj83P6ztvhbnl55Ho98bGdw8dHTSCO5SKXn42K0rkgRF9N29v8EzMBs8/DPCQ4QOe6YZ+k2zrhtJh9E1zkxpK/sxLPLwF31ycDm8sxUzLHAGqaDdfQIlf+TgzWpKDmB08/SRxgBVnUZwpL8cu6ZlNrkbDGTNBbzU1pDvLLNZN2gBi7kqteS4JdFPOhgmGSGs1sJFrddrDmTL+0jeJQumX7GsYX8KORGTp8tfSwz7SytQSCeuHpg/PB9n9a1kS5Qo8sTh75g8/aEz55B72RWiMyWRRl/Ig7sYe2g9fj27lwsMyzXkSvBVtJr2CdYd2YHLd26ofT7LpK47hoVXnQxAt8FA7iCz1rrGfNsHqJodOLLfMKBQi1zgfXTpNFCuBuAjX+rlByrICXVsDFw8m7YKMg3xdvPGX+/9haNTj+LNM28iXT57vdA6OqmLm39Pw6HPX8D907sMPasa1RkUmbmbj4JvtszY368gdndJhyNDaiLmfrAmPbjszS4z4jxu75yP0z90U+Xcf4Mb4cGZbSj5yTaH3EXsERd5H9H3Eo9ZkSecE8xo2er4dTLwemVg/3bDK30tklbiLBzIkQ8olhXo96ahzK6Zw3A+zl4Dpk9beABYPgeoX8iQbu9Whu9v9gXSp+eWzkH3wcH9DB02JkzHTv/otA5PgSL6VTEN3KgSEymJhgSH4utFXeEboFWEgSeETwAq/jYcB1t84bKoTaduXsTFO9eQI31mvSYXUo+IZgHQtLQckQfQ+T3DQ6M1phYTo2fcuw20rSSiV5ZtW6+NyOVEHB0GSkEsiTHuYr6iwPE9wGtSeG5hz7pxu2cEDh7cO24vDo8/jNe3v470BTWoMEw8UmmndZ6qk3l6MF4WCsKwc9txfORz2N3JDeHXjmt2ybwCs2Fv7zxwk/LCJ2sRRF4/hgMfZsHVFSM1EdI+mfOh7IhzCDm0Anu6uCGwRANUmhQBz4Ag4xbJgy8MA/JXRfpSjXD/2F+ICQ1RPdCMLx16iqPDiEaZxLKUA8xPihjtWAMoK+nu3Oh88gw5d+uKtATkZAa8D+zZBBQoIXWD1A9VpLAe/ZHzrhDs9MySE9gnH+j/XFkOOiIU2HQdqFTbsN4pmAliR3cb/IYpnHjffNqDK9M+rDMbiuUV+5+YxiLaWzJr+vBlOLT9DIJypNfqjn0yePnipd9G4GpYCMoG5WZT1rhCO0Ijw/Da5A8x9e3PEBFjf+KxZ4HUIev4iu6UFDA3pUA7eM/gi8Zlplcr/OvskbKweq6+FDZyYx2KEZOn8ZQsLFEZ+Oh14LYUnM7uwy8A6NEA2BAMrDsN/L4f2HoLaNUbGNbZMAr8GYE+nkdmHMHW97fipRUvIWf1nA4/1HGx8bh9/R4uXLiBi6cs2OkbuCR/wx+wpaV9QZEYd2l83X5wDxevX8SpG9rbtevn1X7OWFinid28hJvScIy352eu8wheGXOh2px4VJ0VLRaD5xbFwl+E45EvSoiwlvLDyRrX3Tc9TnxXF6UHH0G5USdRZuh+lB8bjKz1+ighGh0iDX0n9sGO4NAz23Do0wJIX/JFFOy8CHd2LcTeXr4Iv+xkCDS5lXyy5kLW2j1EoK/E/n6ZVQi9fX0DcW3VCOR8ZTDio1mQOwmFIcvqwyIOWW7/J2U2Oyq6S1l+1cmIRzGS3nlpEG36HShSRsrqq8Cve2RfUq7UeAnYvFTqIjlRZ/KJ9diuDUA1UeOlqgJ/ngGuyPNe2Qf4bZoUdk6qaA7w2iB1DBsYFOjVREFX8ZZ82g4ULOm6t7muhvlG3/G3xLKKrRajT7mGsI6aO3EdJn/+J75f3htFi+dJgdrERbh74NStC7gWHoILb39tePi1RvYR2Lc2Gpaojgr5iiPWRT3daQ23+BSINH700AG0GjsLh1t/Iq3yHMalRlhA8QjoxlH2eXlo3jf0EHh6GaZUXToTGDgFyJYbqC1NUUtHyzcw5eSmOSK/MwSAcBBJLEAOoKRY2eeAX7ZJrWNcZY4cCmaMMnzu1N9ya5iuKG3rGgbA/LRLzstY8rIn47vPDDFOV102+N8lhvd78E1pcWezPVDIARyZ9puFhynEXEx8DKa7T0eB1wrg1T9elVOLlvZGnOSM5eNwZNpvpn9i3glsfGcj6s+vjzJvlVHpmrDlE81JX45PP4YTQw4jS/6MloWf5G2cVD7Xzt3Fsf9OIHv27MYVrmHRokXo2rYDSuYtbJhARWM8pJG489x/qJK/pEvGl3JmuLtRYej2YW98/NHHxqXPNpz2u8T4pE77HQ/P9G7Y8aYbgqq/g8I9frI8pbc8+vePb0LwvzNRqLvlbRj+7cz0jsonOverQ+DG0fQCfaVv/TsX52a1Q9H3ViN96caPl3mSfsz9W7iwsDcKdpov9SUVx6OwDg27eAhHhpRDjqZfIP/bg9WARfpEn57UVU1JXumHWNnOcmUbFx0h4rsgyo44K8f6qM+zOewtZx7e3vmzHPcM5Prfl/DPW15EdVZkq9sT+d4ajTgLHVZq2u8xzRH80QCgdDWr6T8Gi1WWx83KAh2lXG3cRi22ygtSMO9/YLlcp4he+L0hPvQ4qWvM6w6K22qSrx+PB9r1efzNKLN8w5/A2sVAvzGGei3xObBH+IDUBZ1eAAb9CLR5x7APvnWd8p0hxN3P0pgpXMry+bNOKSv3xW7JQFtamJeQtmSGQbC/0Q2oX1saBpJZzzUCZq6xXC/yN5tXoteBRZg4y/XTfpd/oTwOfnrQ/rTfvL7XxHqLsf6cJ2apzjWHLj5SxY5t3gt1m1d4zO85MQx3t2TGZgztPBfDF3RGszdfkCyy9DA/hNN+l3fvLLdGyopHu9N+S314N+IBXlkzCV1KvIB2xURHSQHgP6Mnwjr/IHlt43gdnfZbyoB5//yOsevnY8+3a/DPrrVoOvE9zO04FK9VlAattX3o035rhVFQWoKr+EqtnVTubDlvloLp72WGv2ePGLbZs1G+/+GCo5Wdc/Qv4QhnRwtyS/A8GDw/i4jkxErIJKht4cg2GkDxfGv/LewdvRe7h+9W032T2//dxs7vdmLHFzsQdi1JLZFHoIA+s+SMEtDpi6RX039vG75N7ctk3MYW6TL44f3vWmDpjhFYsmvIY/bbziH4ZfdXqFa3tGzt+nzja6s+9Vpjx4hl2DVkiea2feQqeLl7YufQ3y2ud9Z2f7kYn7/SGX7pWCvrJB9pvLFnVAi7sMf5zp7YaPjnrww3Dpozx1QhObADayHu3ESInBzXBB6+gSjQdrCIbvopixa7J5qt+zQl2hlez52CxQlUFBEp7jI/1wolB6xBYLEaiA27K8LbD4GlGmnid/0ILFoprFheUzA6A/2FS1WRNEU4JM5qESWKi6eSX+9Q2E36VDJdRPDLIiDYk8r8YPH6SgegRCVD5A572CviqHuYbstOwJj5Iv7N3ERGiMh3YBepBt6Pl8TeEysiRgGtYWc6q+Z00oqZMnSpEtAjf+2G5m/WtiugUzdumHn8X+XGUSdXcRYKxuUaIWXF+v2b8c7MQVjZZ5xyh7UVWjMxrq+hnyyay9Ikw4edvbM9Pwc+GwsMlpYTbfhEoFFrwza9vzbE7NSiQE58RU1xNDNmMRTQyYUPes2XDROr+JtlK3sjTPPGp4K7iQI29GIoLq2+hAsrLuDSmkvI3SA30uVJh7O/nsW5P84h6l7yfZ2YfvD+YOSqm0uleWruKbUfc7MnotkbHxkeLe2bcBWGyKLFRiAmRusa2jqcdlv5MrJydYGpXn0Ly7WwqAipIqKjVL7qOI4ln2R3CjiBPdGOhqGzhke6LLiy9AvEmfUwUTerXmlpVHn4ZTQuTR5xMVRPiZ+1eCWwSZwW7hZEbivmBUPccXe3ts6Bd6Y8yFTJWREtCTMihznsAb4mzyEnRWn6jmFZcmHWMNbtwW1iRwxpm2CM3UDJ/1dF7Ca/OJQ0H39LoOq8bEFAhsws7NRpOgWvJ9PgcVKgs6086gv5n5BLzsEkqFM7fN5uiA0So4AeLGZspGkBszrILRBfvTcbU75YivEr++DV5jVUmLs0i4jZGyKel184iEk130T+DNkNJ6oZ8pBIep3nDsOUtz9F9kxMP63cUClDColoOxeVq9kQZCFsMt7X0cZ3OJGygMuchTcXz5jCmcY66vVKUghJpfX5dOf2wePvLE8/Z7rq8SqQSb5zHN2ho8AfM4APvpNlNtwONL3xrUNXitwv5lZuFg1/a6is3rx6qL9Qvv/eEC+veRmBBQONWyedOPlX7sNyKj1Tmqb9mIzbOE3KZFeSUEKYPWR+cnPRP97b17DMLkk/mUf2paM98jze2bNUhZ1LMMnqI4M5ygnI0egjEanqY7LgZC25Xx8mD2QMLv36sXJv4D4ig68rN41sdXqqXmp7t4a1hlG8pF+s3wYRtvdwfsFQeGVwU+l7ZXTDyfGdRfRGIU/zUU5NGkM3IQpPU/54yi1/ff0k3Fg/BgU6zFXH4BS+UoH3aWkQhaYym0UHJ7S6fAbIU1i+OAGzLp+oNUZUWrPQ0HPMfbDcblWaU6cC5Sskv/OG588ZCuluQ7dEFqs8F9Y7i38Edqwz1D2J2zmJsXUP8Pqv+92QJo89i9gIyR8OxJy3x7IbR2rlshh7oBkrWg5fXQc2okzX39iATS4Bbj7o1uo7LBq/ASsufoOmLz2vlrNnmubnzEwuT4h7kWGo+eco5EuXGY2LVJMHUVoiDOFLFyzeWPwsjXI7xYh1JJ0us7/Ey2VrolsjabR6Sx75pkOALGdnmD/3Y6cOSva+0whPvifaGixYYo2lsBYtH54pR19XlISrSIlTOQNQRp7OY/uAzffkgZXvzuyGdwr3sew88M8yoKyUAJWDgJalgLqvy99ecoNb6JV4Anj6ecIvux/8c/g/bjn94e7l3G3hndHbctpGexrh5XcLyIhXv+uOTN2rilVDt1lfyDLOW6s9bv4Z8OI3HRDQWSp5K36tOs4ReecSdrZzw55uGZXt7pAO94+tR7nRN+FGVwBnagf5rYc0tIr0XYnbO+ZJ+oHY0z0IhwbkRroiLyBPq7FW/ZUdgUVmQN7yyPXGN7i67Avs6mA4h53tAhH87wyUHnbK4OvsBO6e7ri2chR2veuljn1Xp0BcXNQHRT/aiIB85Zx35eDp09WvopTTLK+riqitKZ8XjQfGShlraXxJUskoadZ+BZghDZrKIgaqSpldXv4yXOkfp5zrWGHPcNveQOEyIgo7y3lInVBN0i8nanpYF2DAJKBIWefuI/qwft5W6hseu5xLKdkHx9/8ehQoWcm5Oi0lYX1/W4wenNKeAfWtFG2oaDTJJvQXE02YfNzw307OHQ60KPElSge8K7dWF1QI6Iwy3h3QqfFIREU42/JLWaLiYnHq3g3MObEN6X7oiIApnQ32QyeES0PZe2I7dN84C27Jnb1QyqBzwVfxw+Zf4d+lotQ3Yp3K4fmRHXEv4gFemfg+3NoWRQQjkz2jpN7alz27HT8F9kkJU6i0cwUNYWFSrR5U5Az6p3GEN8XzXkmYrSstChumwQEmPObvfpdCTfa3XET155MN+9B5anGT1niJjxriyLUzqJyvJAplyY1pf/+GDpP64UEku4PsdTclAU9v/Pz3Ehy4dAJhjvhU6iQdNzdkr9cT5cfeRpY63ZC1/nso9+1VVJkeD69AJ12/jFBk+mYriooT76Jwjz8QUKg6Sg8/h6J9lxoEtJP7YCdlziYDUGlyFHK+8hWCnmuH0kOOobKcg2/Wws6nL8efs2l/FHlvNfwLVkOJgbtQZVoc/HOV1eaNLx+bWf8CWx8YBu893xhYcgw4IAfOQeZaQKHfVOqDQ5LmaCmzS1UGlp6VekFOQINroIT04v3Afknoy1kiDGsCUzcBB+V7q56GbZyBHTPbJH9mbQfqvAZMXGOo0xiqz9ljT0l4rCXF9olxmA6jJJrbDjFp5zjjeREmLaIV576W7JmOf0Mnym01KcF2Rk3B5DUfwNvXyUECKUwW33SI7zZdWWinSXhgss4/wM/TC1Hdp2NK7XeA6GT6fItQXvfBD4ifvhdhk7biAW3yDmzo9wMCfQPwS7eRiJ9xEL6Jx3U8Q6SQiE6mgOCD5Wxvhjks2DMEiaidCHT+xFAAaVHYJ4bH/FwD4PslUsvkc2xghNaDAZ52Ull2xYeH4tjXy3Fq1Bqs7z8De4b+ho0fTsXsbcvx54G/DRWyVZJwMrxPYqKwcNca9KzbEu5Oj27TsYqUP54BmZC35UjkeWMwPPwCXeIOSH/iDKUboHi/VfDJnCdJPbh2B/jIOaipvxu9j/xtx8M7U25Nyzx17KUaoMSHq+GXq4T2+cP0aM07ichdBOTIa3CT0FIgMi1qjBoNgR/XAUFZta93WAc0ag5MWgaUFqFOce3oOdgrHnisxcoAI2aLSH/eNXVaSsFzMV1zS+YkjDtFd0LL/7S8qVIQPnSWjPBNhelzcuHvmY7JpIAyRKmSvORfO9FKUllVrTkpVAOnopuTh8ICzAl/RofgfZWUgtKKb6OOFVJZdqmCgr3CNLb6I8NRNFtePFeorBQ09goxx08mKiYa7WZ9KWVZHPIH5ZBf6veNS5HspVBUgwhdmNWqnkqGOHR0sCiFuavOIbnHniR47EkpT5MDy2yKaVftw1Qn2CsOEuPI8TDN5KSt89QSqWKEu0bCsk5jXcR6yB6ufGRTA3o31lMIfZq95J+ni/7xuXRZ+l6e8PD2SPutVw8vhISH4uT1C/Bg8F8tcHfH3vNHse/CMYxo1htZOfBJb3zp6Ojo6DxCPPqWqS9/XNCqkjond8Zs6FWvNQpnzfPM10Gp253jWUIjdw53H3ecmncKy1stx6rmqzS3ZW2WIT4mHitarLC43llb3Ww1Dk08jGjVwrWRJ6nylpKDYlQOL2/sPLkP787+SvVE1y9R1U5h5tjJRERGYODvE9Gp5msoXbQCYmJtv0bTefpJSrxWnTSKfol1kooI27G12rpMRBfOlg/fvfUJyuWj773tfTztt2/Ku3O4Ikf1QiYBCtxs1bOh7Ptl/9/emQDaUP1x/PdW60OELFFSJEXEX1QoS6mUJbJHpChR/1QiqVTKlqiESrJV9K8UobSvIpIlqUgR2Zf3vPe4//M9d+aZd81d5t65993H9/McM3Nm7ixnzvI9Z875HbngrgtcdzBfl5CYIDUH1LTdH6mr0f8CbWM6SdvWDlDDjbfKrxIzhzPTpf7D7aXGkNZy/aRBUqF4aflfvzFStiRmMwt0w8EfBp/tn1z4smzevU33hQ5pkgaSJ0Rb18Yyu6NG90OucGEgOSIawRWD95Hv3jLmNogWEM4og4L0hwbxVlS7TexaopEbY3AVYiKu6qbDOaNxXqvTsyAoZ/Vz07lUWnmOeiTtrDSp0LCCFqMVmlTQzrputx2yq1dB32+FK2z2ueDKNyknJaqVUK/TnfCIGUrkFkopoGd0+uy+qbJ44CRZu+13qfXozbJ804/euBMBMKk24eM58tPDcyUV5ooCinISjGPHPHqK7Wg4pI+ERHR7SrTdH6mDbWYMFvQYeardMZE7w0pBYqrNPpcc0gTs2qp/UXPAzj9Sp+4fE+LoMg3mDq373HTIB3Etu31uOBX+sZqESefpyAaRtWPppsM5lUMDj9cLS3ddviuTSExIUAko6ilo1apV0qlTJ1m3bp3hQ/wR6euY9eosGbFmhFw1+irBxCpuk6r+nk99Xvpk9lE1TPejzrGsY7J17h/SIKOCtO19hWTajABFZpaVnS1D2r8qsya/J2XLljH2RIdXX39N1kxbJKO7PygSqj1MJXAOpB/UgwBb1GggdzS+SXn6Ca9CRSS154WS+eJ3UHeGpwUYtu9ZU9rXvUrevGuCHrQoySny9veLpd2L98mxKSvsf2eAASCvfP++ZNY/Q+66o7/he2rToEED+fZb2M0i5NRmyJAhMnLkSGMrelSpUkV+//13Yyt/kqwqTFnmJHAxooiqcR6681WVkUdhZkVVjtzx0ctyZdPWclPdZgHLkbBIKSC9pzwkTfrdJF27djU8Ty5iIqLX/bRaOkyYLmu6DhcpjWmIXAYmmM9V9c/fVQQ45PVyFTTKTB7vXe870GtiyU1Qdd51WOSyIjET0RCiR/YfkexDSqSqSyYXTZYCxQoEFcbhiGhcK2NvhhzLPCaFygS2lg8Rve7FdfLlgC9l6JRuclPvxiq4cz+HFtFHlYhuF8ciGqgM5JH5z8lTi16RdSPekrP9DcIoVFSJ6Jr+RbQ6zxkDm+i4kZF9RD8/QBjATnRx9fszipeS9U8vEkk/MQFQRBNC8pral9eWVSNWiWCOHJe1mp7N8BGRSR0HylXX1lElhtsXgMxIkXMTuskxJzYoXSC6IjpViehphohurt6Ly8+myq4+SkQ3PolFNORbDFDCAYOgMpRQRDxw28EoP7QJlnb73XAQT3B2+1xx0VD/9kCE/bvqX1ly0xJ5vfzr8nqF12XxjYvl4N8HxXMsNGHslCVtlsisyrOMLf/g6sVKFpZRs/pIl97NThDQOUTnNsMHU/vadNk4kp0pTc67RAndNHsBrQn8MJ6sI7J94pfyz6SvZN/kH2Tv5OWyd9oqmX/7M1pO752yQtaPWiSewwe9PyCEkDhDNxBhKIdt+RehQ9mfjW66WWrzSFTcYeWM9ouYou1XI+xQTOil77q57etnukD7POqfdds81iWHhTpvKKbw8isxaoleJR3GvSJrOj7gndHPF9xCQRU7g0l6JBY7MFnORerHa9WLQmIKBBIBjjevhXcbbDIftERPe9q7fuvg4C3RaBk3zw8NGKzxEsfu2inSvIw3QkdAKC3RMCX3xX1fyNH0o5JSXD2cCoN/vvpH9v6yV65dfK2UurCUiv/29+G0JRqm8H6a9pNs/XCr/Pbmb3Kb5zZjjz35sjtHUorMX75Y6lSqJmeVq6JuUEUylWms+eNn6TxtqAxu2UO6Xnqd8vNTIQjWncMOducghOQjal1WS1YPWS1STm0EyubQV9s6cSCyXD9ZZw4oc58QGdeuvzRpV1sd7v8CKD8KahHgJVsdnWVTzviSqm6qVmJvldUGuxl3KVm0mDzVoK1h99ldUhKTZO7G76TqORdIrYrnRqw/fElOSpJZX38gz8x4URr85z+G78lFfIhoJIBJjyshuU2tWKp6WMXdQZTs2yXy1Cz7xBSqiEbiPKgOeHOSyK9rvOfF9Kh3qfs64D3EllBFNIKyhDrnSxPUQ2PuUrVdt4nIDT29z+EvpGMsonEfsF1sdgvAcvcfu2VBswVyycOXSLXu1VQWZJ8JORHRiepvxw87ZGmnpXLp6EtlaYelcmvGrcZee/KliE5JlReWzpK3Vy6TssVKSVJiou5qsXrrRjmzZFl5qetQqaiWOn7YEaaIfuObD6TjlAfFM2Wl+p3/jJ0imhCS14QkoqEFVDYo7yuHrBbbGE5SWzmU0d4i60RCFNFJqkw6eChdRt89V7JVWZOckihXta8rTa6uZVvWWMkrET1v3jzZn3FYyRV/Dx8ZKUoL4JmORsEcHjRCsjp/ty4nZ1cOEB8iOk25hipl7dru3bZj1JsizdrbC9FQRDTi3y+rRAarFHlgj0j3+5Sf+s2zatm0rciUeSJ7cXKbiBqKiEYwllS/7dNO5OP5IoPGKsG+V533UZH/PivS4U6lKqGWbYi1iLbh6JGj8sWdX0i5y8tJ9e7VXRHRmXsz5ZNen0jx84pLjb41ZG71udL7SG9jrz35dWBhthLNK7ZskH8P7ZW9h/ZLiSLFdF/l6mUrSyklrAP2NQtHRKsMdZeKXxu2b5aG59RSHv7fBUU0ISSvCSqiYYXkc+UeUe5G5Soqp4pPgWRoZKz7+xodgoiGgP5j43a5+7qJUv+q6lL7sqqy7O0f5aO3fpAx7/STxq2Rj/onr0Q0iW/8qDq3CVKDQlfOOUrgLvwrt1uqhOWDL3iPubRlIJ0QGls2ipRVKXPmSpEu94h0utt7nWVK9PbrJFI4gppeEfVbnAMCesFmkZvvUoL6YZER00VeGCay6svAoR2lWmYo6Bbjb3fIhqkb9GyHbgChu2v1Lj2YsO4jdSUxVZ030vdnJe+Cy5bkpGSpX+VCaXXhZdKp/tV62ajqxVIKswoGzXTDeBhV2SpVpIQ0rIomGjcDlhBC8gDo3jrKzVQObS3XKbdEOYhptE5DZEcAGn2SVPn2wtJBMmhMe2nZqZ6MnHWr3PLA1XLvDc/Lrz/9pcstQpwQIxEdpJDH7tPKiJQun9uVP13kiw9E+qsqZoHAVh2CsnuHyLCu3u4blVWq1PZJU7zXAXuVYI8k/eC3fyvxPGyqEupnes+PwWbtuotco677+zqRowFaGaP/QcAWtPz+8cEf8l7j9+TiIRdLtU7+u3I4AYMUcc5yTcpJwYIFI25hP4F41I34HKaeU392w/Ma28EJ92GMaxBCSH4H2SCsbJRWzhy3dJpyTykXbNxSCGCAXvmzTlfF82lKTqTqfBq2/SufV1bvz85iCzNxToxEdBjgzrYq4btjq0jTNkrwokNzBBQrKdL3UW/fanTHgOiFO2x0hi5aInwtY3JUnbjhNeq8Pmq8oKoAjBmohPq/hkfegwF/M8rOkFdLvCrLui6TOsPryMVDL5as7GCjJkNjzcQ1UunaSlL/v/UddSshhBBCNNABAXp5Rgpano8ajVuJepZcQpwRvyIaNdF5LyrxrFaKnx65wE1RIhxdQj59R+RpJWj37RFZv1IJ66YiV1wvMuUtkUMRXgQtzys+9YpzE4QwWqUxQUaUzMeFQ5YnS27951bpe6ivdP6zs+xZs0dmnTVL/lz4p85YwgW/3fbZNlk7ca1cv+B6yVZ/SfhL8X6LQ9cR/BFCCCEnAE2Ldpf9yq1RDmPSLjH8XADm1tDqfGh/uqxfu1l34+g08EqpcE5pJTPip4wm+YP4VDPQcFu3iSz/WKTLIJEySkRHChJmrVoi078TeXuKyOB26tx1RAqnibz2rshulXgi6ZeMtFemosijvUQ2/qTOq7bhfv1dZNUXOELdQxy1yKpHzVR/WeovtUiqtHqrlZzf+3xZP3W9pO/yN3ojOBDM6MaRkJQgP078UVY8vUJWjF4hayas0TaoVz69UtY8v0YfFwhM34o/f9OvotUAf7FCXwsDURFH9NJ33cm+E53aa+vvhktU147WyG5CCHENfHDG4MIxymGAYXflWig3Vblg5mtDAIMLv1myTsbe86Y8ftsM6XDBCNmwcov0H9lGiqcVMY4iJHRUKRuH4K7Wr/Ba66h+sTaiHjE451Z1vjkTRBq1Eql3lUjHAd4JYEYO95qmi6TfLvpsYSBh+Soi99+kRHpPkf+qHACDCvft9h7jzzpHHoPaN/pBpxZPlS0Lt0j6jvBFNM7T6LlGUu/RepJ9OLwXh9eQcShTDhxJlwP7T3QHD6jlvnTJSM+I7J2FCPpzHz6SIZnpB2R/+kHlsPRdd7Ivt0OXIjzFIZt9bri96tqHVFhmZ7uRkAghJEogI4S1LhhcQutzX+U2KfekcsWVc4GixQrJGZVKSs36VeS2R66XImp74oPzZefOvcYRhIROfJi48+XQfpGhXbyWNIa/EHxQQSgm7mBu7s6rRYqdJvLQSyLlzlRKTYmwNd+J3NbYa61jiKr+2unHUO1E47jfVYrf8Zf3GTBw8cyqInMnisyfLLLgD+8ASl+grWNl4k6dPjkhWYtd6wBCTMCy/Mnlsmf9Hmk0oZEW1HaEYuLOt7sGtg/8c0BmnjlTbsv0TrZivbYVDHRc/9I6WTn4O0krW8ivRs5Q765Vszby0gtTpWjRooZvdFi8ZLH06XyLJGao8IxCv7mkhETZtG+bnF2srJ8QjYxjR49K2bMqypx350mVKqqSRwghMSbkyVbwkdIsQmBR9EvlBiqnimjpqZydHgjRTjRAeYQWaYCJVtZ895sM7fqyPDmnj5xfp7Lfco0m7ogdMRLRq5WIfjl0Eb19s0jni0VGvCbS9LrgLdGhiOidf4tcU0Gkx/0ig586LpaRlmZPEln0usgbXyvx6/XORagiGkBjwZmhii4dw+8SOfdCkRv7qH02Igz3sPtfkWaloy6iMaBwYceFUuOOGlKpSSXdTQGZxqb3NsmHrT+Upq81lWrd3JlsxQTXOLj1oMyuMlt6Zwa2E30066hsm71NWmxvIZ17dpbMI/Z2mRFOxYoXk7S0tKh3VcjMzJTde/ZIth50GZ1rocvFsSgmxdTUVClTGsPeCSEk9oQson1BWX25cs2Ve1Y5uzLegYj2pZAq0/rdOF7SD2XK+Pf6S2pBFPgnQhFN7DDre1HGgTiAya7ln4qcV1ukZQgC2ikpSnFb0xfWm96g1JtLF8Kj4pzmI2/eLvKryjjKVkKTo+FpQ/TrMhoM9Kv/RH1Z1n2ZPJ/wvExKmKSXENB1Hq4j1bv5n2glEkIV3AD9oUuWLCmlleirULGCrat4ZkUpVqxYTPr6QoCeUbasVKxQUTl17Si48uXL2/q75SigCSH5ErM4graNQjGJRp5jRz1St/G5kpQceKwOIb7ESEQ7ICtL5JEeIqejuuoiZn9kdLUwGxTh0g+JDFfXi9QONc51YK9K5CrFm+dGgn//NZGD+0Wq1IhKBuAUiNni5xSXHlt6yC37b5HWX7aWW/beIv09/aX+iOiYo8M1i1YsKrdn3m74EEIIIRZQ9OxRDuUzimuUoRDQ+5TDF91uytl/mAwJiOX9uw9JZkaWXscf+GzZalm/YrNcft1FkkwRTRwSXyIad/PNYq9N5zEzXRmNm0OpsiLPLRJ592WRUQNEfvzS6wa0Etn0s8j5dXO3UDsFifyeG0QWqvte/onI98tEpo0UmTREpPdQkUqV4kJEA4hatEgXSCsg5RuWlwLFC6h8KysqLdBWcE1CCCEkF9CzfyqH6b5hmWOlciuUm69ca+WaKofZDCNo4ykkBeT+mybLMwPmyA+f/aLdrPEfyeD2k6Vu02pyevkSumwkxAkxEtHeGl9QcDfvTBNp09t9wYnP/g1biox9V2TnXyKvj/W6M84UGf+eyMPjlGiP4KIY7NBfieavPxSZ+5zIGxNFtvwiMvUzkevaBa9Bx6Bbgi/IMCCc4y3jMFsICCGEnAKgCDpXuenKoTX6deVmK/e9cncrh77QsBsdAemSIS98NEiys47JnGc/0m7l5xvljsday2MzesnpZVwy/0FOKeLPOgd6VeCO0tV/oQrLUAYWmqBfle/kh/h8FKiRNNSBhTivdUwCngPnDdYAi8pDrKxzREg4AwudgIGF2+dul44ZHaVbb3y/I4QQkt8JaWAhelP4GobCscEsdIU4sBCKooC6gLWhBsdmqUI6WHnGgYXEjhi1RDsAI3EzlItWyywEMK5hdW71MsB5rOfFc7h1bkIIIeRkBvrUWobCBRPQDoBMzpBMddojOQ5TjrEbBwmX+OrOcSqTB9054hV25yCEEEJIvBMjEc1aXlBc7FUDs2/R/PP+i85fYpKKkvH3fYQQQgghJBex7xNd2ugTjataGxx9t60E2gfQh+pCpbzWhdAnOhzQ13naM971W+9zv4sGns2lyVY+/PBD6dyxsxzNPBo4zMJF3V5y4WTvlN5ROn/J0iVl9LjR0rZtW8OTEEJIfkb3iX4ojMlWQsHsE922vzRtd7GlT7SveAgmJvyTqoTARewTTXyIiYheu3qVdHxmsqy5rp/X1JzGSeQOEvFTVQpqXELki4Oi7T67DabvnjnOu95lkBLR/kYWhkmCqgDs3SnS/vyIRTQhhBASb9RqqER0H0w8pjbcFtFoSJskMuya7nLpdTXk6FG3LwCZkSzXlH9AjlJEEwsxEdH/7twhLTt2lRXb94sUgkFll4EI/eEjkXrNxbWZB63g/H9u9K6fea7S9G4nUFVBUOK/UakU+eLzzw0/Qggh5OTgoroXyU+n/ySSpjbcVh2w6rFS5NKzL5Dy55RSRbT7siYpKVHmT/5CsqOhMUi+JSYiGvzv7fmyYe3PkghBGg0wnXcWhvGG96kmKInGTEZRqoVmZ2dL5x63SOXKlQ0fQggh5OSg1qW1ZHXn1SKl1UY0WqKnidx7VQe5pEU1PY23FyxD/eIdmJQCSXJzzcfYEk1yETMRTQghhJBTE90neqgS0eXVhts6tKByj4uMb3+nNG1j7RPtHgUkRWom9mKfaJKLKDULE0IIIYRYgLaFBsXSTYdzetDT0jsLbzT+oiHMSf6HIpoQQggh8QcUiumiAMyqJqmTY0lIOFBEE0IIISS+gA2CxsrVUa61ckWVcxEI5yVvLJeLE/rIwtnfSrIenUiIMyiiCSGEEBI/pCi3SrnT9JZ322W2/7lLpj+9UC6of5b7BrfIKQNFNCGEEELiA0xuBouynZQbDQ/3SVJ/C2Z8I3WuqCZXd6ov2Vk0W0fCgyKaEEIIIfEBRPQTykFEV4OHu6Dbxsuj3pcXHnpH7hrVVg7uS2efaBI2FNGEEEIIyXsKKTdHuVLK9YeH+8DSxnMPvC2vfHW/lEgpKseiMDELOXWgiCaEEEJI3oJxfd8qN1a5K5WDoHZT36pznSZp0qb6MLn9sdZyyaXVJFPYjYNEBkU0IYQQQvIWDO5br1wH5a5RzuUG4sIJBaRvxzGyecM/ctvQ6+WIZBl7CAkfimhCCCGE5C3LlXtFuWbKHVTukHKHlQMQ2FgPc7JA9HiGaF752UZZ8s9oOXDgsBw6kCGHMjMk60i2HMnIkoOH04XzNxOncNpvQgghhEQVPe33kNUi5dSGr0k5COQrvKsnAAUMlYLuHqOUa66cbyNyAeWeEBnXrr80aVf7hNkFi0hB6d3qGfly4RrDx55P942XIsXQj+REUiVFaiX25rTfJBdsiSaEEEJI3gGBfJlyEMhW11I5CGhMvNJWOTsBHgLZSlY3aFlDrmpfR5p3vCTHtexUX6pcUF7bim58Qy1JToFpEEJChy3RhBBCCIkqAVui0dps1wAMTXueclWUW6bcbuXsGoKDtEQDtCQn+7Qbwm/syDek4jmlpf3NTeSAHPLbFZst0cQOtkQTQgghJO+AckWXDjsHsD9duQj0a6ZkqdMdOcFlZR6VzIxstZ7hV0AT4g+KaEIIIYTEH+YcKBDQUZgPBafMysyW7Gy2LpPwoIgmhBBCSPyBAYRfKjdfuQPwcBdY7LjjsRukdc+Gut80IU6hiCaEEEJIfIL+zqne1WiQlJwoiUmUQiQ8GHMIIYQQku9hn2YSayiiCSGEEJLviUK3aUICQhFNCCGEEEKIQyiiCSGEEBJ9iihXNAouTblUkYKFU9Vmoai4NOXYX4T4wslWCCGEEBJVqp5XVTZt3+QdKOi26kA/jl0ihdKSpUixAhINVZOQmCD//nlQnZuSiRyHIpoQQgghUeXIkSPhC1D8zF+HZ599uESCsW1dB77b4VCwYEFjjRAVnyiiCSGEEEIIcQb7RBNCCCGEEOIQimhCCCGEEEIcQhFNCCGEEEKIQyiiCSGEEEIIcQhFNCGEEEIIIQ6hiCaEEEIIIcQhFNGEEEIIIYQ4hCKaEEIIIYQQh1BEE0IIIYQQ4hCKaEIIIYQQQhxCEU0IIYQQQohDKKIJIYQQQghxCEU0IYQQQgghDqGIJoQQQgghxCEU0YQQQgghhDiEIpoQQgghhBCHUEQTQgghhBDiEIpoQgghhBBCHEIRTQghhBBCiEMoogkhhBBCCHEIRTQhhBBCCCEOoYgmhBBCCCHEIRTRhBBCCCGEOIQimhBCCCGEEIdQRBNCCCGEEOIQimhCCCGEEEIcQhFNCCGEEEKIQyiiCSGEEEIIcQhFdB7x0UcfSfPmzWXZsmWGD8kP8L3lDYcOHZIpU6bINddcY/i4T7y9W8a16JCdnS29e/eWPn36yNGjRw3fk4Nw0omb8WzFihVy2223yYwZMwwfL/ESl5mmiOt4SNgsWbLEM3jwYE9aWpoHQZmQkOCpXLlyjjvzzDNz9sHNnz/f+KXH06lTJ+3XuXNnwye27N2711O8ePGcezNdo0aNjCOcoTJvz2OPPeapU6dOzrluuukmY29wFi1alPO70qVLe4YOHer59ttvjb3xQ16/t1OR6dOney644AId7gUKFDB83Sfe3i3jWnTYsGGDDle4X375xfDN/4SbTtyIZ9u3b/f06NHDk5ycrM/15JNPGnu8xEtcZpoibkMR7QLjxo3TCbNIkSKGT26++OILT7ly5Tyqdm74eDzr16/3DBw4UC/zghEjRuh79nXvvPOOcUR4HDx40FO4cGF9rsTERM/GjRuNPYFp1qxZzj3MnDnT8I0/8vq9nar89ddfOm64IaKzsrI8v/76q7F1nHh7t27ej79nzu+sW7fOWHPG+PHjtTvZCJROYhHv+/Tpo6/vK6LdvEYo5Jc0TvI/CfhPRXoSAXPnzpWbb75ZlIgWJSIN39zgmD179sjtt99u+OQdBw4ckIsuukhWrlwpJUqUMHzdo3r16qIycx0Wffv2lRdffNHYY8+PP/4oV1xxhb4v8Pnnn8tll12m1wkByKZUpUyUOJCMjAzDNzyQFhHX8En/VOFkfGbEiZYtW8rixYsNHxIoncQiDjzyyCMyYsQIUSJaHnjgAcM39pyKaZzkDewT7QJJSUnGmn9uvPFGqVWrlrGVtzz33HPSuXPnqAhokJycrPsbgunTp8s///yj1/3xzDPP5Mrs8HtCrCQkJISUzoKxb98+GTZsmLF1anCyPjMq52vXrjW2CPCXTmIVB+Ih7z4V0zjJOyiiYwAGr6Bl4NJLLzV8vGRmZuoE7w+0KkCA+mvdDgcMPBk3bpy8//77cs8998jXX39t7HGXDh06SOXKlXVryIQJEwzfE9myZYu89957ctdddxk+/kF47NixI6fF2h+HDx821rxhjN8Ewunx/t4bntV6bzhvoPdrguO2b98ux44dM3zCY9euXUHDxgTH/fvvv8aWPeE+j1Pw3Hj+I0eOGD7RAe8NX4w2btxo+JxIsDQJYhl2kca1UJ7ZJNL3sHPnTmPNC768ZWVlGVvHSU9PDxp+wdI6BojdfffdxtaJ4BnM3yL/xb344nu/buNmeERCJPEe92u9Z9wn7jccgqUtvDOUd8HyQVwfx9kNCo3kWa3EMo2TfI7KrEiEvPnmm7ofmF2f6LVr13qmTJlibHlBX63777/fU6ZMGT0YzxeVOeg+ZUp0e4YPH+5p06aNp1q1ap7Ro0d7XnnlFc+rr77q+e6774yjnTFq1Ch9r1bXpEkTVwfYYHDL999/r/sc4vynnXaaR2U2xt7coH/a7bffrveb96OEvbHXC/r5YdDKf/7zH0/Xrl09FSpU0OHx9ttvG0d4PCpD88yaNUs/CxzCEIM+0TcQ5zznnHP0QFATp8cDf+8N/TIHDRrkKVmypOeFF17wqMzXozJy3Scc58K6yriNo4+zZs0aT/PmzfWzYSDl2WefrZ8P7xgOA4Vwn4FQBY7n2Wef9dSvX99z7bXXes466yzP+eef73n33XeNI3KDuIPBo4hTGASKvvqPPPKIRxVgxhHOngdh0r59e0+tWrW0u+yyy/S9m+C3Q4YM8dSuXdtzww036Gc22bp1q6dbt26exo0b632IJ1dddZVn+fLlxhG5SUpKyunrifh/55135lz3448/1v4Aaefyyy/X/n379tV+mzdvzjXoFYN+sR/vHgRLk8DtsAuEG3Et2DObOH0PVnCtN954w3PllVd6ChUqpP2WLl3qqVmzpr4mxkcgfoLdu3d7unTpkjP4DOn577//1vtMQknrY8eO9aSkpOhzYGnGgTlz5ui+rvfcc4+nVKlSnueee87z6aefes444ww96PvFF1/U94v8GmMw8FsT+CEtmufC+o8//qjTV8+ePbUf3v3s2bONX9jjVnggr8c5cN0OHTpoP4B436tXr5z7XLlypbHnONZ0Em68x+DLe++9V4fjsmXLPD/88IPnoosuyglz3IMSjcbRx8E5cIy1T3SwtIVrIU1dccUVOtxRjqJvNcLHCsbKIB9BHG/RooUOX8RbJVz1/vyWxsnJAUW0C/gT0RBm/fv3zyWiUUggUaJwwG/sEjNEJTJbawHTvXt3fXzVqlV1Qff8888be5yBghHi8eGHH/bUq1dPnxMOBWe4wtwXU0RjkCEyGpx/zJgxxt7j7NmzR1sIgYD3J6IxQKR69epaYJoZ065du/R5CxYsmBNGTz/9tKdBgwb69xAD/fr18zRt2lSPwkZBAP/U1FTPihUrwjre33tDxoyKTtmyZbX/sGHDtABBZWXy5Mk6I4f/xIkT9fEmKDjw7KhEmCAczAIVghgZOTLoQEBooPDZv3+/3sYS9w/RsHDhQu1ngkIRgmTnzp2GjzcccL2WLVvmDMZx+jzp6em6wgd/xF1f8N7wvhCGJnhWiJsJEyYYPt4wRvyGAFi8eLHhexyrODCBaMd1rSILQOzAH/cOIIbwfBBY8MezYDs7OzukNBmtsLPDrbgW6JlNwnkPVl577TUdB3F+HI/B06i4LFiwQN+3GZ9xHggfDMKeO3eujrPwtwpE3FsoaR33D+tC+D3CCL8zwx/hBus+2IdK8XXXXaeFGbYhzHC/Zl6K+GQFFiZQeca+jh07Gr4eXSFFmIcyGM3N8EAlHn4Qgr4gnLDv888/N3yOY00n4cR7lAOI7+a9ovxCuKBy07BhQ+0HZ2d9CefAPlNEB0tbKCdKlCiRK/2OHDlSH4s8xQThCL+pU6caPh6dFuB399136+38lMbJyQNFtAuYIhrCBYnQdBCm8PdtiQbI4LHPNzGj5Rr+aCmxsmrVKu2Pws1N3n///ZyEX7FiRS18I8UU0eChhx7KObdv7fyJJ57wtGvXTq/7E9FoDYKfb+tZ69attb9VKKLVCX4odJGhmWzZssVTqVIlvc8UVcDp8cDfe7v11ltzjjcFLUCFBf7XXHON4eMFhSX8YbnFCoQz/K2WXPyBAgVxDnHDihk2qMCZfPjhh9rPzvKJKUStrUdOnwfvAf4XX3yx4XOct956K9e9ABTG5513ni74rKDVDudBaxGEkhU7EY2WPBzvK6IRh8z7t4KCEv5O0mS0w84fbsW1QM8cznvwBS2BOBbvB2FlxRSsaN2DIDbZsWOHbrmzNjw4SetmfgFR5AviGvYhH4LpTQBhaK6jBRX7fUU0QKUZlWfc2zfffKN/g/PYiVV/uBUesGyEY+1ENEQd9gUT0SbhxHs0KsAfS9yfidWyk+/1cQ74W9MDsLsGyoMqVarklAEmeAfm+U1Be+ONN+rtTz75RG8D8zi04FvJT2mc5H/YJ9pFChUqJAsWLMhxKtOXyy+/3Nibm2LFihlruVGZvV767ofFCwwaUTVh2b17t+EbOa1atRIlJkUVRrJ161Y9ENBNBgwYIAULFtTnVhmM4evt/4a+0vfdd5/hYw+eu1u3bidYNVGFhF6iH5pJ4cKF9VIVetrgv4mqJMjIkSP1+scff5zTP9Lp8cDfe0tLS9PL9u3b56yDmjVr6qXv4Ep/77lGjRp6ae4PxNixY0VVTrSlFSvPP/+8Dlvr6Pinn35aL+3i4x133KGXOJ8SU3rd6fPASsK5556rLb743ruqoORcA6iKg3z11VfaAgvitBVVKIkSdbo/7GuvvWb4xgZ/7zbaYecPt+KaP9x6D7hP/D45OVlatGhh+Hox7wnWd1RlVa+D0qVL622M0TDTsJO0HggzXffq1StnvV69ejnryKdxr3aoSqC2MIF3icHR6HeN8yCMQsWt8IgV/uKZGV5Dhw7V92eCbcQNMG/ePL0Mht01/ve//8lvv/2myyAreAfz58+XN998U04//XTtd8stt0inTp2kbt26ehs4jRfA37PmVRon+R+KaBdBxlm1atUcp2rIWkDYkeTH0sBpp52ml3/++ademqSkpGiXmJiol25y9tlnawsZ4LPPPtNLtyhTpox0795dr+MaquKm119//XUtuhBGgUBGiUK8Y8eOetDG+PHjpVmzZvLDDz/o/WamZgVh5Auso8Af1/cddOLkeH/vzZ+/mcGi0mDF33tGAQ9Q8QgEKlKwTFCpUiXD5zioEGGgJgQ2QCFjztBlFkpWzIIDA6E2bNig150+D+J+v3799PrEiRP1EqDSl5WVpSsqJqhgArt7AaZggciLJXbPHIuw84dbcc0fbr4HuzQEzPhsl05NEZSZmamX4aR1O8x7SU1N1Us7/IUhGDx4sB4E/tNPP8maNWv0AGynuBEesSJQWADfZ8H2DTfcoNfNOB8Mu2vAlCmwy8PatGmjBaoJrodGmKJFi+qKH8oUNNCAUOMFsLuPvEzjJP9jn9KJa5xzzjnSuHFjYys4KDQgPFesWKEFiMn69et15tq6deuchOomNxt2rtES4jb//e9/dcb7888/a6sgEKZjxozRhVUoZGdn65bhRo0a6RaRRYsW2bYYBAKZ7xlnnKHXQ8ngnB7vFJgYBG+88YZemqxevVqHFd5HIJChA7QUBgNC3Sxo9u7dq5dWILbNlkiIl3Dp2bOnjkN4JvP+UIn0bVncvHmzXtrdC8CXABDJvbhFrMIuL4jH9+BGWo8UCKTHH39cryMfhh17khs0gIBI8kYneRhYtWqVLktfeuklGT58uEydOtXYExkncxon0YciOsqgNcTMcEIBn9DefvttXYB07dpViyq0hqC7AVpHpkyZYhzpLsgkzjrrLKlSpYrh4x54frPlYtSoUTktYNdee61eBgKZdPPmzXXLNVrJu3TpErYtUrMFv2zZsnoZDKfHO2HQoEFadOK5Jk2apDNyFAqoZOAd16lTxzjSHohVACHkL2P/1zDRZG3VRrcaX/DuzVYwtGKHS/HixfXneLwzPAOWEEFt27Y1jvBi3o/dvQCztS6Se3GLWIVdXhBv78HNtB4J+HICkYYvK2i4QD4Mc2bkOG7kjWYeBnHsDzMPe/fdd/VXSzQuvPrqq7pxyi1O5jROog9FdBxy/vnn6xo3+uNBhEBYYRaoL7/80u+n10hBCxAyENh3jgZmqzM+DaOrAVqnzdp9INA14JNPPtG/sfYhDITd5z34/f3337py4lupcXq8G6C1C/1O7733Xl3ReuWVV7Q/uo6gD2YwkJmjSwgKebuKFVr70YcPwF632aq+dOlSvbQCgQCHPqlm62O43HnnnXqJiTAwaxgqT77dj8wuPIjPduLEbA3y7U9qh3lus5uQL/78QyWWYRdr3HwPbhBOWo8GyJtQ8UPl9uqrr9Zf0B588EFjb+wIFrdBpPE7FOzyR9j3B/hiEC5m/+GXX37Z1vY05g/45ZdfdB6HBgdU0n2/arnByZzGSfShiHYBM5Oxy2z8EajQR5eNBg0a6IEUEJ/333+/XHnllX5FJ4TXunXrjK3AoC+t3bVRYGBwmG+miAwMAw/tCll/QJD7hgWex/wsa7buWMFvTKy/NfugHfCZdMEcXGn+Duc08T0WfP/997qFCS36vuHo5PhA7y0QvvsxVTEqSU899ZQewPTwww/rWRvLlStnHBEY3JPZZ/CJJ57QBb0Jwm/IkCE5g38Apl8HGDjqey/m5+r+/fvrJXD6PCbo+9ykSRPdso4KgnldK2hNwmyZaEHHACJfMDgRn1CRDqzYXdPsW44KjxWzH6/v52azZdMcjITC2zzG3zPFKux88Xec0/P7e+Zw34MdoT6THeZvnaR132cC1gHAIFB+7O9+MVDu999/11+KwLRp03QYPfvss3qCl1BxIzzMuL1t27Zc50P3B3Ochm/8BnbXDifem9jlj5ikC13ezG5pJv7OZeePigruC63NCG/r+0JXRny1xNdX7EccQBlkLSf8lQHxmMbDKUdJ/oAi2gUgGAASq5mwg2F+pvLN+DFYDALg0Ucf1a14GJWM2vfAgQO10MKIZWtC3LRpkxYuF154oe72EQizJRtdBWB1ApnW/v375cknn9RdLNAi4AuuDVHUo0cPwycwyNCQ6dt9FjMtcUA8+g76MVs2gPW3ZmsF+lDjHvGZF4U/CjoAP2TAZngCdIGx9mPEc+LzLFoS7FqUnBzv773hmYFv1wqzNQ+zCVpB6zH80BqIyhIENFpxUWlCC3Io0xkjjuBzKu6lfv36erANwhaj25cvX54zoBOgIla7dm0tVPC+TVBRQB9UVHCsFjScPo8Vc/ZJVMjsWm4gSlBpQ0UA4YtZ8kww2AiFDfo9mt0JAO4D7wWFoVU4oXIGMAsnRA76sKJANOMT3itatDBIDJQvX14vZ8+erQcTIX6bBZ6/dxvLsLPiVlzz98zhvAc7cF3z3SAPtGLeE/IZK5htzhx/YT6fk7SOT/AQmfgt0hLE7pw5c/Rx5jVh+cEOiEKIGtyDVSAi/0QXDmtfW4QdrHUgvJCeQrG64FZ4wJIEvkqi7zDeD/IEvEOIObMbBbq+vPPOO3od+Esn4cR7kxkzZhhrXlCO4AspBn6aQt/ELP98y0G7a2BAISr7AGMnYHkDFW/kh0hvjz32mI6baCVGuYUww32j+wesDw0zpvZGlzZ8yUNFB8RjGsc9OClHST5CRS4SJjCGr4ShJy0tDSlUO9j0hD1J2Bq2AzYlH3/88ZzfYAmblfAHmKAFhv7N89k5VdjkHK8SvbYLqjIbbWc1ECoz1rPZmeeBPVRMbIDZsVRmYRyVG3PigLZt2xo+9qgCQBuch41XHK8yMm2U3rQXDVTmrm16qozG8PFOIIHnh11t874wSxQmg/n222/1RB6wxWnuw8x8mPQANpKxjYlFlHjS58K14IdnwmxTsFGNWRNxT3AwuG/FyfH+3hveMwzuK6Gh/WFXF/avVSbqUZUSfb/wh8NkBXgmoARKzqQudi4xMTHXxAL+gF1xxDnrbzHBBK7vy44dO7S9VcSVq6++WttTxf1hEgpV4OpjEEfCeR4rqiKlbY+rgtbwsQc2VUuXLq2vMWDAAG1DF8/iO1MkZiOE3VXzurj3+fPn632It9g29ylhqG1Gm3aiEd8xQ5wZ5/B8qnKk9+Eecf/B0iSIVdgBt+Oa3TNbCfU92AH7uqbNYjjEPYQ/7klV8nJs5RcuXFinL8wqh3iB/MT8japs6d84SesAadXM+1TFSc+8qMSmnpgFxycnJ+v3tGnTJuMX3vu1xqVWrVppv3nz5unnR7rD7KEmmIwGkzGZx8OuMWZC9Ieb4QEwKQuONfddf/31On7gGgUKFND5sxK1+thA6SSceI8Jn+CPvBDnwnNjxj/kz5j90Qrene+5YE/6jz/+CJq2cBzKIuyHK1my5AkzQyI8YEMb+xH/UcaqipCncuXK2k9VtnJmd43HNB5qOUryHwn4T71cEiegRQJ9YlUCFlVo6BotWkvQ+oylypR0LRwtlqjdArSy4XeoSQcDrRRoeUWNGV0H8MlfZRrG3hNBSwpahGDuyhwIEmsQRdGqhHu39k9GFxaVSerPigCtr7AHi/7k6C6BLg5KCGtzg2hV9sXp8W4CM00zZ87UrR5o3cL7QEsU3jNaS9CC8sEHH+S0eAQC4YMWWHRpwPtUFRJjjz34coJnRWsevmAgnrkN7gct4oHiFkBLD7rOoOUKLVO4n2C/sQOfl5E+GjZsqOMDzof4YddnE2kFrVe4nvnpN1RiEXbRINgzu/UeIiXUtG6CtILfYOzCyQryB5j5Q99d01Qk8g+kcyfxz2m8VxUAPR4HeRGuhZZ6jOXA1zO3ywKUc4h/6AeOLhymjWorBw8e1F9eMfhdiWDth3wTcQB5tpV4S+PxUI6S6EARHWfgcyUyqtGjRxs+J4LJNFDImIO4iBerKMYApWA4Pd4t8Hka3RBgttD3c6gVTLwSSrcOQghxG6uIbtKkieFLCLHCPtFxBPpjoV+Xbz8rK2itxExPVkP0JH/x0EMP6T55gd7zW2+9pQsxQgghhMQnFNFxBAaSoGUSA1tgjQNmwtAKgGmUMWgKA27QIoBBEKZJHnIcc2COuQyG0+PdAva48fkcAzwx2BKVom+++UZ/osXA0R49eugJSx43JnwghJBYk1f5IyH5CnTnIPEDBsF07tw5Z+CC6YoXL+7p1auXHqhBcoMBJu+9956nRYsWOqww2AiDJTHozg6nx7sNBlhOnjw51yBPOAxoqV27tmf69OnGkYQQElvWrVvnmTRpUs4ATQx0VBV9nW8SQnLDPtFxCloqMYgCrQAwRYXWS/SVJieCQSR2drIxIMTO7rLT46MJbL5iMCPeLWzy5uUkE4QQgsHMGOjnC8ztsQwiJDcU0YQQQgghhDiEfaIJIYQQQghxCEU0IYQQQgghDqGIJoQQQgghxCEU0YQQQgghhDiEIpoQQgghhBCHUEQTQgghhBDiEIpoQgghhBBCHEIRTQghhBBCiEMoogkhhBBCCHEIRTQhhBBCCCEOoYgmhBBCCCHEIRTRhBBCCCGEOIQimhBCCCGEEIdQRBNCCCGEEOIQimhCCCGEEEIcQhFNCCGEEEKIQyiiCSGEEEIIcQhFNCGEEEIIIQ6hiCaEEEIIIcQhFNGEEEIIIYQ4hCKaEEIIIYQQR4j8HxqMBurYlEZuAAAAAElFTkSuQmCC;" vertex="1" parent="1">
          <mxGeometry x="70" y="360" width="721" height="285" as="geometry" />
        </mxCell>
      </root>
    </mxGraphModel>
  </diagram>
</mxfile>
